<mxfile host="65bd71144e">
    <diagram id="At_B-eTAIInEwFjM1Z0p" name="Page-1">
        <mxGraphModel dx="4306" dy="3258" grid="1" gridSize="10" guides="1" tooltips="1" connect="1" arrows="1" fold="1" page="1" pageScale="1" pageWidth="2336" pageHeight="1654" math="0" shadow="0">
            <root>
                <mxCell id="0"/>
                <mxCell id="1" parent="0"/>
                <mxCell id="21" value="" style="shape=image;html=1;verticalLabelPosition=bottom;verticalAlign=top;imageAspect=0;image=data:image/png,iVBORw0KGgoAAAANSUhEUgAABxwAAAOgCAIAAACItJTTAAF04ElEQVR4nOy9f4wc53nnOY5zOBrrADSExApwOBB2DAj5gSi2kJPtCGBOWEe6kwHhJEAS177hATlbMDYrHc5AvMoGXGw2qw3aCClTIUVbtCxzFtSGxjBRFDH8Q0cGMTQG1eJwRA45FkmNKBIzxND8MRqSQw45qqvu6q56fzxv/eiu7uqq/nzwgqx+66233nrrrXeqv/28zzPiAQAAAAAAAAAAAEBqRopuAAAAAAAAAAAAAECZQFQFAAAAAAAAAAAAyACiKgAAAAAAAAAAAEAGEFUBAAAAAAAAAAAAMoCoCgAAAAAAAAAAAJABRFUAAAAAAAAAAACADCCqAgAAAAAAAAAAAGQAURUAAAAAAAAAAAAgA4iqAAAAAAAAAAAAABlAVAUAJyObJ0kkEilIRU9IAAAAAAAAAwSiKgA4KVzEIZFIg5OKnpAAAAAAAAAGCERVAHDSVlLOkEikYU6IqgAAAAAAAAaIqgDgBFGVRCJ5iKoAAAAAAAAWiKoA4ARRlUQieYiqAAAAAAAAFoiqAOAEUZVEInmIqgAAAAAAABaIqgDgBFGVRCJ5iKoAAAAAAAAWiKoA4ARRdUDSJ7YeSRGZ/cx7i7OFN5VUyYSoCgAAAAAAYICoCgBOEFUHIaVRVMtxp+Z2jI48Mj6XIpM0YAlRFQAAAAAAwABRFQCclEOqq3pKqaiW6k69VkNILVVCVAUAAAAAADBIEFXTf5knkSqZ+vMcDiztTihe0xnm5N+CP564YCQ7s1R3ClG1ZIn5EAAAAAAAwABRlUSKS/15DgeWdicUr+kMcxpxiKpP/Mv5JFG1Pj46ElCrN3Maa+31nEDfrLfy/cy58UeCAqPj9QwF5s7o282N8Wekkv6/YSNe0w6PmvdMXWw/qaDEfAgAAAAAAGCQSlT1/uN6EmnYEiKCh6g6GMklqiZZqjYUybaaGaSGmqmoq6H6OTIyumPOz6w/Ewmgje1A2UxTQBRVA81ULOnWYYPM+jONs/gHBjWQik7MhwAAAAAAAAaIqiSSnBARPETVwUhZDKuVAxuyaSBlyjn1WiCwivrmmSQBNLFAfKa0V7GibRmxNnN0XZhUTGI+BAAAAAAAMEBUJZHkhIjgIaoORhJvgZ1ZCVFVb3AzBd4GWP5fbGI+BAAAAAAAMEBUJZHkhIjgIaoORnKJqheWZ2OLJS7/j1m8fyaLqNo4Uavaxkr/TkXVZvNEu9S58UewVy02MR8CAAAAAAAYIKqSSHJCRPAQVQcj/dKWI3ZmsqVqI0UhoaxAVfE66ZksomrL12rzNM+kNF+t1+IDVTV3hdVKFqykfibmQwAAAAAAAIOKiKqf2Hwo2dvgf1z/3n96pPCmksqSEBE8RNWBSZkdqpJIuSbmQwAAAAAAAIMqiKppFNVSXIj37d8eHfn18W+nyEyZvvHZho3X7/72XELJL9Q6PkUu7RzIhIjgIaqSSKRmYj4EAAAAAAAwqIKomiE0dtFNTZ3yUDkblYzUvtHT0+XSzgFNiAgeoiqJRGom5kMAAAAAAACDioiqfzxxwUh25uBfiJLyElVTVoKoKiREBA9RlUQiNRPzIQAAAAAAgEGVRdUn/uV8kqj6xfHfbcdECSw6G2vY9ZxAN/xGK9/PnHvs14MCo499MUOBb6/Xt5sbj31WKvmFMLbMyFe+oB0eNe+zdbH9UYoqaVVuHhvljD722+5TNM5e+8qvBx/rXzEalthOvRvN6x3ohIjgIaqSSKRmYj4EAAAAAAAwqLKommSp2lAkdXVPWS8feQhtSoeBW9Kmi9LWIY3tUHZMLCCKqoEWKZZ067BB5jc+2ziLf2BQg5zEStrHKhfbVIEdp2gWszTQxHY6utG83oFOiAgeoiqJRGom5kMAAAAAAACDioiqnfhUbeh9urSn59S/EiiDDmkyQVhMLBCfKe1VzD9bxqHNHLfVp2w6Gh0bBbByn8JY4P+Nz7b3xbczfTcObkJE8BBVSSRSMzEfAgAAAAAAGFREVE2TWQlRVTDwDLwNSAGpDFHVulhZVDVOIVbyxfHfRVQdCtL/YkEikSqfip6QAAAAAAAABogqi6oX/tP/Hlsscfl/zOL99VlE1caJWtU2LD07FVXllfiNNPfYr0v5RiXOi9WX/9vFIocALS8H2qL+xOX/8d04uAkRwYssVQFgqGEqAAAAAAAAMKiCqPpLnVmqtoVFLZ5StP49Xiddn0VUVVbNf+WzKc1XWyGh3AGgGruixfiii1JduzSOVVrlCFRlL/9vx8X63c/WfjdlOxO7cXATIoKHkgIATZgKAAAAAAAADKogqnrp3KoW3khSuRIigoeSAgBNmAoAAAAAAAAMKiKqklSrW7ftKilDQkTwUFIAoAlTAQAAAAAAgAGiKokkJ0QEDyUFAJowFQAAAAAAABggqpJIckJE8FBSAKAJUwEAAAAAAIABoiqJJCdEBA8lBQCaMBUAAAAAAAAYIKqSSHJCRPAkJUXNmVy4HgaC87fDvR/fcuSTz09pB9YbLn9Hx+fUqubGR/3MWr3nVwEDROOuGwMhqXg4RBqjSBkv9ZYf6aA6/1OGevNuZwrsBjYvQHsA9DL1yFF2eI0GZmm5NuPUrnwxpwXzIUAiaYKmkkilSEU/TAAAAKUBUZVEkhOvlZ6lpPjbo/vPhDn+xuUbt722uhoWu7X60ZUbt0cQVSEzuqjnD5HWp+ZgqdVqmsIabIeHRKUHElnBHB01dOJ2mcYjE5Y3JF5R+oypDVEVoB8ULoSRSHmloh8mAACA0pBKVCWRhjb15zkcWIxOmF28GWQaxS7rEurK6kdpug5RFSw0Uc9SSeuRqKpsRsWUzMHDoWDW1YtUBWL9UkyTXVlUddSGqArQD9qPyRkSqbyJ2R4AACAT6SxVAYYPBr/n6AQxZ9PEfLh9x/ajmw8vaCUUS9VASw0ZXBEMeoKu6I2rS/iV1e2NYWFbnkai6ZwhHgbZgq2qqhLGnNpTB2azMuXA9p7mMTE1WHXIx5pt081Tm5uWpqpfm1tUFWtDVAXoC4iqpAokZnsAAIBMIKoCyDD4vRSiamCj+tTBc3YZLTMUVQPdrK1aIaoOH6qiNxKt4DfX8nuS3WmSqCofIoqq1qnNQ7XCoWY7krLx9VooE1vHiqfQNwR1WNVZ40TV2A1XSbG7NJgPARJBVCVVIDHbAwAAZAJRFUCGwe8liaqBK9W9p66s2zmd4DyhLaqqQirL/4cSUdFzZWYVVUXj1sSzhMahkt9S80wJNWg22PKxUttal5CDpapQG6IqQF9AVCVVIDHbAwAAZAJRFUCGwe8liar+xuTC9bCYmo+oCg7yEVVln6oZLFVlgVIZk52JqvrZ04uqrYO79qnqrE0P/yXYBcfU3ID5ECARRFVSBRKzPQAAQCYQVQFkGPye1QlPHTwXCqaBmaphl2pvtGiLqoFopdr1IaoOGelF1TifqrIyGL9qvjEIE0RVpY7E5f+yVwH9/CmX/4ctVRy0RofaNSeKqmZt6vFKxYiqAHkyJKLqJ7YeSRHk88x7i7OFN5XUQWK2BwAAyASiKoAMg99L3QnpRdX2JoGqhpYEc9HW8GgOC0sj1Q1R2yMpyrINVZViI7Va3KmjcSk4SG0HpBqPb7zmASDyuJoQqCpE8EAgPyYpRFWzNqVlmvFshNELI7oGzHwIkMgwiKppFNWO+uG12sgj43NpMkm9Tcz2AAAAmUBUBZBh8HsZRdW45f8AHSBYnuZWusP2DOuvADzRAIkMg6iaUlGtoqg6UI3pYWK2BwAAyERmUVXNUdf/qq4VP77lyCefn3LZqYUMi0fFxnVmEwb0RZ+CZZYryEg/25kCcW2pccv1MoqZlGjVOGLbcTkDdhOYJQeyiqqqmSq9B92TXsY0JsteYC/vHx54ogESGRJR9Y8nLhjJzkRULW9itgcAAMhENlHV3x7df0a1R7t847bXVlfDYrdWP7py4zaiajosR3itT83uaaxXVRVWY11q7y2zukJWMEdHDZ1YXWOrLVZN40PQURuiaj5gqQpDj72kfxjhiQZIZJhF1Sf+5XyCqDq3Y7T10/iOSJ1Mn6knxV/La+3MejhX1+qOnHbNShlVKg23mxvjz7R/y683c+wzVjMx2wMAAGQim6g6u3jTU2J/h1zWJdSV1Y/S/D1GVG1ixp52+hAUo12LPgQHBYeCWRcjYnca7VquDVE1H1J2wrqd0/bSPz+zDy0EgD7AfAiQyDCLqkmWqq/V2jrm3PgjI5F2mTLTlUIZtN78Jb6u7LJzopqb6qqinwqials8rT8zMvJM3TuDpSoAAACIdOJTVczZNDEfbt+x/ejmwwtaCcVSVTX7GQ5RVVf0xtUl/EYgkrho13OGeBiGlDYlQXdMbe3UnnormpUJ4VbMwCxmDVYd8rFm23Tz1DAUvDEW1GuLC8wi1IaomhN0AgB4TAUAKRgSUbUTn6pzO0ZHd8y1PrbVyfSZdkvqz7TfnttHtaRP5YyxOc336DNxlqpxmVVOzPYAAACZ6FZUDWxUnzp4zi6jZYaiaqAitjW84RNV1ZDQVoxpwe40SVSVDxFFVevU5qFa4VCzHUnZ+HotlImtY8VT6BuCOqzqrPHRrmM2XCXF7tLgtdKjEwCgCVMBQCJDIqqmyeytqBrJo/XxUUTV/G8xsz0AAEB6uhJVA1eqe09dERf/ij5VVSF1aJb/i4qeKzOrqCoatyaeJTQOlfyWmmdKqEGzOpaPldrWuoQcLFWF2hBVc4JOAACPqQAgBcMsql5Yno0tluvy//ozI4HwGq3i72D5fyjLtjMb1q+IqoiqAAAA2ehKVPU3Jheuh8XiwtQgqnYtqso+VTNYqsoCpXIXOhNV9bOnF1VbB3ftU9VZmx7+S7ALjqm5Aa+VnvIsk0gkUtETEsBA035MitfFepd+acsRUYZLzAkX7Gvhp9JnaqkdgWr0mdqoqn7aQahcgaqUakNPArVnYi1V29GxCFQFAAAACtlE1acOngu/XAVmqsbXLXujRVtUDSQ81coRUVVXBp0+VWVlMH7VfKPbE0RVpY7E5f+yVwH9/CmX/4ctVRy0RofaNSeKqmZt6vFKxYiq2aATAMBjKgBIwTCIql46t6pxNdgL80mDlJjtAQAAMtGJpWpMsURRtb05xIGqLGWz/dN3oyMsjVQ3RG33XZRlG6oqxUZqtbhT12v6TdBX04uBqmxZVvUAEHlcTQhUFSJ4IJAHRgpR1axNaZlmPBth9MKIrgHzWunRCQDQhKkAIJEhEVW7TM3fvEOvqWnSa/r3BgTZ3iZmewAAgEzkKaqOxCz/h5QIlqe5le6wPcOge0swhj06AQCaMBUAJIKo6k515Rd4VNGBTsz2AAAAmchZVFXNVPmT3BnpZUxtuXxvsJf3Dw+MYY9OAIAmTAUAiSCqkiqQmO0BAAAygaUq2NhL+ocRxrBHJwBAE6YCgEQQVUkVSMz2AAAAmchHVF23c9r2Uu9n5tRIgALgtdKjEwCgCVMBQCKIqqQKJGZ7AACATOQjqgJUDwa/RycAQBOmAoBEEFVJFUjM9gAAAJlAVAWQYfB7UieoOZML10PLdH873PvxLUc++fyU2Xv1Zvzezlz0NjxSDKtzX8iRrAMpY3nDI3Z4tD/2pVqaj4TmYUUvWI9CXge5dT0Gtv48xdRmnN+VL+a0YD4ESMRes0UilTQV/TABAACUBkRVABkGv2d1gr89uv/MiOI9+fKN215bXQ2L3Vr96MqN23rv9SGsGoCIUyjMuea58VHtPE2Vs5Vj7gsPH9VkWKVCLUqgIe6KVxRTG6IqQD/gMYEKwDAGAADIRCpRlUQa2tSf53BgMTphdvFmkGkUu6xLqCurH1lleidsAcTTJ1HV0E39j7VxJcsva/6q0Dy8rh4WVmjYvBoZTlHVURuiKkA/4DGBCsAwBgAAyASWqgAyDH7P0QlizqaJ+XD7ju1HNx9eUAvUjNXKDYWoRVsoaqg5tdpoKyMqEOxXtJ72rtHxcU0bGq9ZC6IBorHXHEp195jRdcxWwZjydb1mXVNtSKp1LU+wVTXPETXP0lT1492iqlgboipAX+AxgQrAMAYAAMgEoiqADIPfSyGqBjaqTx08Z5fRM1WxRnEFEC1rVlc7a7qQ7pQyOrYpriquJkP1FTcDoGGMPfeYUYxJ25ux5c2aw4HXFkDnDLtRY2Ta4qYiqprapqqzxomqsRuukmJfaTAfAiTCYwIVgGEMAACQCURVABkGv5ckqgauVPeeuuI6VvlkmJpqFoG6eqXZsZoGhqZKZWtD+BkAA5eoKma21dLWzsTygqgaDVJtuNpCqW5UaozzTi1VhdoQVQH6QuEOi0ikvFLRDxMAAEBpQFQFkGHwe0miqr8xuXA9zFc9qxqhq7KLqg6bPkRVyEx6UbU1vpRR1oGoqrgF0BxSxFiqeu1B37VPVWdtumsCwdI2puYGzIcAifCYQAVgGAMAAGQCURVAhsHvWZ3w1MFzoRVDIJsadg2j+8+oBZSaYpb/iyupDWkncfk/oiq4yCCqNuXHWk2wCU2sRFixn9KnalRY9QmsObIwnohEUdWszXCu0a4YURUgT3hMoAIwjAEAADKBqAogw+D3OuqE2cWb26YuWNmi4qOGlXIVMOILRYaAZqAqRFVw0BoyzhXx2pjRvfImlFdqdvhBFX2umpVHxU3t1IznJh+YojblidKvVTeotXNaMB8CJMJjAhWAYQwAAJAJRFUAGQa/N+CdIHgJAOgWQfxMiWSrmmZfKRjoqQBgMOAxgQrAMAYAAMhEZlFVzVHX/wZLfYPtj2858snnp8w/yYEFTGffK6MQ4ZCRrF2Xsbyha4VHO8wFlQjaUY5smRUt9hb9EybURmCWfBjkTrB9BAB0S3fip0vn161fS8kgTwUAA4LxmPy3M8+SSGVJrmEMAAAA8WQTVf3twGdi+PHyjdueFZTm1upHV5SQNU0q8KWyRPRuBbS1Rls7T1PllOJeq4eParKDsaxbW6yaxoegozZE1XwYvE4w/QIA5EQwtNDpZQZvKgAYOBBVSeVNrmEMAAAA8WQTVWcXb3pK7O+Qy7qEurL6kVUGR4f9pE+iqqGb+h9r4yl8CNbFAO6dRruWa0NUzQc6AQA8pgKAFCCqksqbXMMYAAAA4unEp6qYs2liPty+Y/vRzYcX1AI1Y+22Ym3Wls0a2latNhqF/ND269GZxTA14zXtFEOMHtyk7u4lXcdsFYwpb4RN0TXVhqRaTxntWjdPFdpiHR8XmEWoDVE1J+gEAPCYCgBSYIuqQU4gWv2Xd/4mdJnlb4d7f2nL5Jqtb4XFGqn+tT8Y+cLTdUP2+rcbhMwyJv9CHvyL1sbIyDP/1r7Gv3jGdP30Bzv+vaMfwo/O2hrbrz3Yrik8dbARdnibR772N7Fta+1qs+E1M0dpqnqsu21a81qHJ/VATNtcnWMMHjPHNYwBAAAgnm5F1cBG9amD5+wyeqYROrmtn0WLvNW135pKprvojI5VQhsrvjVxM9BADFQt9ZJiTNrejC1v1hx2dVsAnTPsRo17YYubiqgqRM7WNHd3tOuYDVdJsa80eK306AQAaMJUMOA8e+j8+j0ng/T46+8fOLuk7p1dvDl/daWotg0Ptsus+8ZfC9VSf+MHp74bqquhmPXj2f/6g1M1TVR1apHVE1W/8AePBLpkvGAa0w+abijX1tBM2xJq/WtPv/asJqrqEvZfPJPYtniB0lY8k660oaiGh//7px+JUZATa0NUBQAA6DddiaqBK9W9p664jlU+Gaammn2kruXpXhMNc0tTs7OVMvwMeG5RVcxsq6WtnYnlBVE1ui3aDbKFUt2o1LiznVqqCrUhquYEnQAAHlPBwDAxd3X71IWnD57bPXNJzd98eCG0gvTTs4fOq3u/89O5cNed3z/20vRFde+Bs0ubJub3zS76G34KHD1BBxiPyZYTWwIt1VAVf3Dqu5qo+v5/TaGouvS1MiZNVH36ta/9Qcs4NEYTjOkHXTcUa3vtwZEo02hDQ8RU1Em9WrltSQKlquEm12Y1QDvc3QOp2oaoCgAA0HO6ElX9jcmF62G+6lnVCF2VXVR1WDgiqqYivaja6lGlXzsQVRW3AJoLhhhLVa99m7v2qeqsTXdNIFjaxtTcgNdKL3sn3Fz9qHeNAYCiYD4snN0zl1TZdOP+M+re+asrgSTqp5emL6rvZl7TjnXttnfCY7dPXVD3Pn3wXIwg6xcODGA3Tcz7yagZVESfqrZg6uf8H/+0J9z+5N8c+vobu526YXtl+h/s+Fo1RdXmYv+2bWbXoqpcW8N6VF+V326DIIBq1TpqixcobaHWXZvQAP9w1e7V2QMp2oaoCgAA0HOyiapPKW/egWyqJr/A6P4zagGlppjl/+K6ckPoSlz+j6iqkkFUbcqPtZpgE5pYibBiP6VP1aiw6gVXc91gjIFEUdWszXAn0a4YUTUbrp9VXMnfu3D9VhEtBYAewnzYNw6cXdp8eOHJN86GrurDfP8W3PXyicdff//ZQ+c7FjdtVwB7T13xzxV6D9g3u6ju3ai81/nJsHIN9/oNs489cXE50HmHRIpNFFUDG9UH/uHvbJlVz9TUwECe+5sdXxipqKiaQhOMUQNjKlFLNoTOtgvUZzVRtW3v2ezhkZHk2lQPqsaFROcSRVVho64anNqHx/dA+g5EVAUAAOgVnViqxuO/r2/TjSCaiPqXIqg5CxjRliKzSDNQFaKqQquTnCvitV7S/dAmlFdqdvhBFX2umpVHxU3tVL3t7gNT1KaMIf1adYNaO6cFr5Ve6lB1RmF0VYCKwXzYBwLZNEx3j82oe5dvrfqp/60KhNFAeLUtVVNKruLeZw+df/rguaBaf1cFvL7Gi6qBK9X/Z+KHotSoG7SKiltFl/+HfkUbfkhzEVVdtbXMfjeoPlVNQ9E0taWxVHUXMGrrwlI1RdsQVQEAAHpO/qJq/xC8BEAnCOJnSiRb1TT7SsFAD/5+0YGoWppOi6LkJWWmJNDnk4/O44efbtqZmdifNDK0hF+8RKRu6cH9NQL/Wb8iRecU71OZHu3B5vKN24EP04dffc9Pxq5AS924/8zmwwsTc1eLamQHTC5c96/LEEZVA9i1294x7Fgf2HtalVwNL7GBIOuynw2k3gJ12NnFm34L/VumZsaLqv7Gf3nnb0INS/WsaoSuGkZRtWWemUZU1SXLSJRMrK2RGuaoLRVSNDJ1WrkqtXXqU1WurVOfqs7aEjtHrtk1jAEAACCeEouqto8A6ITuxE+Xsq1bv5aSQR78faMzUdVPBdhTdU4uYl/6Id/x6YoSJVPZiXdaD/SlWyS32VYzwj+pwl8F5sNcCGRTNRVifDogTC5cf/bQ+cBS9fHX3zdsYNfvOal2lCGqPvzqe+reA2eX1L0vTV8Mqt176oq/y5A+u8ev8+6xGf8sfiPVyo3H5IF/+LuwhYFsqqb/dubZ+8ZfUwtIgteQLP8PFcCRkWRRteFLNAw81dhuiKSxtb32NVWCbPohDdsQdKwtYsa0LV6gjG5ZrOqqXOlrD+oNUN2/prDV1WtL1TmIqgAAAPlROlHV9AsAXRB0JjKHzOAN/gLIJKqqBUqlE+QlqvbaYBNRtZL0o1s0TVU6m1+gNh7nvIX5MD3zV1f2zS5umph/YO/pO79/zJBN7x6bWb/n5NMHz9nhpMDA77ow+pYhjPod6Hfjmq1ToqhqCLLG3uBYPz3++vv+bZpdvKnu9W9KvNK9+fBCqKX6hVVdVbRUjU9bTmz5vw6MSbKjqrhVPFBVuMsSjl3GuS0HqQ3clrxKbYoX1EhkVIxJ2508MuIKmeWobSSUaEPEBiddqdIAhzPW9LW5OiemzY2ccNwy2wMAAGSidKIqQJ9g8Huxomq4S/xX+koa/SKixKkzfiFpCkz1Vr6fGRbRzOwSC4gB1sZrUknDj68ew01rndX+iKiSyNTPKNvOUZxB28UaZ6/VRsOm6A1LbKfejeb12m2OejK595wljeB1ri4yDhE7VTd8bxaXWl4xUnSvdSv1seEpI2d01OrDOcNOtVYzq2tIqvX4MIPMh+m56+UTqqJXrlX81SC0VH1g7+n1e07G28AaN+jeV94Nd/m3Uj12+dbq//LKu//rT04urUR/4lRdtQNRlUQakBSOW2Z7AACATCCqAsgw+L08RVXbSaSyXj7aqaxBVpcjR2XTFBBlQbUCo6RbSVRt+xJ8DzsCwbXsAqOzKuHU5GKWBprYTkc3mtdrN7h9Mu1AR+85S4YbiX5Ag5KGb09nJ3fu67lkJHZvzK3UikXPgtmHepZSsO0WV/vfM2ppwnyoMrlw/aXpi9/56VxgLGmock++cdbP3zQxv3vm0omLy0U1Elz49yuwfg20V8MG9vHX31clV/UO+rf1y//9XduZQKirIqqSypvCcctsDwAAkAlEVQAZBr+X4/J/2/muZZXYVn8kaTJBWEwsEJ8p7VUdjSg2sW7RUDYdjY7V5CrHKYyV4Kb9q6ud6bvR0eCEA+NLyi1xddGoKrzKPdBWEIfFVUC67jVKJowNow8dWnVzOxqb2ig1TVWZD1UM3W3z4YWiWwQ9wXAFcODs0n1/e1J0DuDvCg1gw8zCZTISKX0Kxy2zPQAAQCYQVQFkGPxeaktVP33m/m/aKTqmlKKqIBEGMmDs2nbHxcqiqsvwUN0bHtw7UTWsJbH37JKZRFV9dbp0SHC13cXPKxfpulctmTA27D6MEVVrtREdW4dtMmzz4ezize1TFwLnm7Zsunvm0gN7T2+amO9FECQYZPxR8eQbZ41MfwwETgYQVUnlTeG4HbbZHgAAoEtyFlVvrn7UXXsABgVeK72Moqp386Kafv/RP1UOSlz+H7N430vQmLRtRaiLVjpnF1Xllfitxkr5RiXOi9WX/9vFFB0s9dr81N1oNLi9QxPpxN6zS3a8/N+0tzQPafRvrTY8mmra7lW2E8aG3Ydzeggq60mxSw2ZT9XlW6tGtKLNhxdUW9Tv/HRYhiMk8vTBc6rIHiqqXtUfExgSGMYAAACZ6ERUVb9pGMnfu3D9Vq8aC9BHeK30siz//8z931xZvvTpz389SLeuX3r0TzbrRaIVy1agqnid1EsSQD1TjmydppbSfLV1hDsAVGOX1Xzr6nRVa0Qv3j7cEajKXv4fRraK1LGkdiZ2o9ngZmgj/ZIcvWeVdN2RmD7S5Dx1c8SqekjcqTbJ1L16r0Vjw7zLRh+aK/vFm2RIr/re6s2H81dXNh9e2Lj/TBBX6vHX31f3Ti5c93f5BYzA8QA+D+w9vW920dMVVa+KjwkMIQxjAACATHQoqsYXRleFCsBrpZdkqar++5n7v7l09UqgqC4tLS4tXfn2X73S/wZDalxia/FYgh5kxuzDbP4UhNJlnw8v37hthICfmLuq/iRsiKoAMfjD6d5X3vWHkKqoeuV/TAA8hjEAAEBG8hdVu/5LLH7VV33JpfxqOLiSwdAj3ZoMdzYtRpRx3ZRPO6c4Vnit9DKKqheufPjpz3/9wpWlxr+XP9w69s/9b3C/qOueKAdfA7Qb3OsZstMuGiZ3qr1C6sNkn7dtREvhMs6H81dXNk3MP7D39J3fP+Y3/q6XT6h7l2+tPvnG2e1TFybmrhbVQigvs4s31+2cNpT6Mj4mAAYMYwAAgEz0RFQVYn9nIFZU7bYeGAT6cmv0KC0OJ5iqL8OqWWblQqbl/2d/ce1cI109d/Hapz//9T37j/WljdAZAzhDBuvSB61V5aJXfTj48+H81RVDHl2+tRq+k6zZOrV+z8mi2gZDwuA/JgCJMIwBAAAykaeoqhZAVAU3/bg1mqYqnc0vUBsfLh+CHZDeq/Jn7v/m7z/6p4/8yV9/+69e+d7YP+/Zf+y3//W/K6TNAJA7AzsfbpqYX7/n5Npt7wQtvHzjtrp38+GF3TOXTlxcLqp5MFQM7GMCkB6GMQAAQCY6F1XV2N/2v5ao2tTR6u3oGoIFoR6Xw1lSCuSSEBSlaZCoBN5uH6GvhmwWj+8NyIkUt3jcXK5vRcAJo7uMjlr3cc6wU22E3NGra0iq9WGOdp0SOgEAvMGYCk5cXN576oohm949NhO0be22d9bvOTl/daWo5gEMwmMCCh3+hK99PTD8odjOpPScuKVR2ncVvaDiL0f56qJhlpZrM87vyne3lGEMAACQkX6Kqmq45/iQ3DEltfDHse9KQUnDr6ZuvKgYJxIapY8k3mI1YLpxW7RiUUx08z7qWUrBtmte7X/PqKUJr5UenQAATQqcCp49dH79npNrtk4FbThwdkndu3vm0t5TV2YXbxbSNgAV+zH5RHPc3vHCUbXAx7YcCQt8avtRP8cvptfEWqtc6KgbozfDpiFG41d5VWENX0/Dd1EjR/QL3tirWQDoX0n03/wN/TRTbYiqAAAA/aZvy/+1P96K8uWwVHWWVCNWxaugrXeOqK7ITDU0eFRehnh97R/pbrFRMvrVXixm3EeHXt7c1l6YtfGhDQJeKz06AQCa9GcqmJi7un3qgrFa//HX3w/Ovm7n9MOvvmeEBgIYHIzH5BPtXwJUKwTXR/35QlTNhU660dJE5ffJVjE7Ry+mtaRu/JAfGRdoxU1DWYdLNLk2RFUAAIB+k4+lauBR0U7KQeay/XSiql0yk6iq/5IrHRK8AxFuur+ku8VqyejehfdKex207mOMqFoz11Q53oJ5rfToBABo0tOpYPvUhXtfeTeUljYfXlD3TsxdPXB2aflWF67aAfqC8ZgY78meYpRg5BtEbykN1++2gyPRh1KST6yyIV14jCcowcmXw9lUfCX2F4Lo5dBe3SSvdxK+VKh3Tvd5JXw3mdP9/TtEVbE2RFUAAIC+k6eo6t28qKbff/RPlYOUxS2aQKa80tjLuqP9HS//dy6wadF4dfFfpdBU+0nKW+xp79FxviPs+yi+kkrmAOIRTXit9OgEAGiSy1Rw+cbtA2eXnj103ljCv/nwQlD/XS+fePz19/eeutLliQB6zfKt1Y37zxgefm1R1dhuGFz/8Lif4kVVc5mO4OAo1qFWNRZfxXnokjxBCd8LlI5K6U5KsDLNLqrKldiurmw/VF54IYLjsjS1IaoCAAD0ndyW/3/m/m+uLF/69Oe/HqRb1y89+ieblf3h78D6b+jh78UN+8HoD79V0qW4xfwor0lp6uaIVXUlftQvEZlusX7nIuXUfB007qO5sl8cKIb0qu/ltdKjEwCgSZdTwd5TV9btnA5tUR9//X11byC2dt1GgP7x8KvvBd5+VV1VtFQ11vuHu8ICP5u/5qdD51W/FokOjiwpT/BwVXYkD10xnqAEk89u3EnZzUgvqormroZsm4OlqlAboioAAEDf6cpSVf33M/d/c+nqlUBRXVpaXFq68u2/ekU5yPnHu3DsFygoI+Z9zObTQSjNa6VXSCfINuiDO4FA+elwdLW/C8trbttf240FE8Z5yxcPesvOXb/27R+u/bM9v/ndfzKcn/rMX105cHZp08S8sYTfzwxquPeVd58+eA5bVCg13/np3LOHzvsbkwvXVV01zfL/IP3yc0c8SXVtoz2JkoMjdZVNOA9V7WXWvPB4T1ApRdUEd1Jxoqq6GedTNc5SNWxo7CKqND5VnbXpq7jM1WBiJRq8/QIAAGQiT1H1wpUPP/35r1+4stT49/KHW8f+WTmo15qI8WUz9Zsl7lSrgXQf03/FEK2Vea308oxl3CWIqtA7OhpdSlCSemicpLro02qsSDzoLTt3jfz5P4783h+N/MY9I7/zh3d+92Coq/obd37/WCgP3fXyCfXw5VurE3NXhXoBysbumUuqqbWqq7qW///96UVDVD32ixv+x9sfRTlLK6rX4HgHR3WHD6XK/ZlsXbi1okn2BCUu/7dE1eRK7FlR0U0NjVJULd0+VaPrUn8U095BjfuYKKqatRm+DJx/lBBVAQAAciLP5f9nf3HtXCNdPXfx2qc///U9+48p+wdQEwleQwatVZCVXt1HXiu9PGMZd8kATiBQGToZXZJKKi1WtXca5y1VPOhPPbWjoai2+eRvffHeV94NCizfWvULrN32zvo9JzdNzO+euSTUAlByJuau+iP8wvVbamaoq+b4h69lKSA7qhJ9KMkerkpO85LsK3R6gjLcgnXiTsqa2/W5u30G24+ZliPO9kqtimMyo+Eu77Hpa1PGgfbnwFjiYOe04O0XAAAgEx2Kqnb6zP3f/P1H//SRP/nrb//VK98b++c9+4/99r/+dz1rNkDP4bXSyy+WseO7TVJm+N1nfBxRFUQGJkK0pqk2vYTr1VUiHvTIf/7/Rn7ljvB7+P+4Zo36vM9fXRGOBCghL01ffPKNs+v3nPTTup3Tgc/f2cWb977yrjjO/QJ+yd69NljCHn8Qe0a3K9hKvwKOt18AAIBMdCKqAgwDDH6vR7GM04qqkWmOadMBECL7uwszorGkSvWWIVJXEaJbGq20fFOXOEsfD/p/+PN/aCz8b/O//Z/fWLdzWigNMDAEYdD8ZIihTx88d+8r74aWAYaf34dffU+1G3hp+qKfuX7PSdEE2z+Fv2ty4XqvXhvMCQFRtbd0459WdCdVLnj7BQAAyASiKoAMg9/rYSzjFKKqGVWX75AgIi26j6xMRfPnXkSIVrRUdWe9UvGg95+++Kt/uS8wVr3/oYfv/9sZQk5BgZy4uHzg7JI/CDdNzPtpckH9o+Nt3H/GFkZT7vXr3Hx4IVBjVcfB977yrjHmQ0XV68lrg+jgiD+I0EN4+wUAAMgEoiqADIPf61UsY0RVyJPBiBCt5Mqiaoylatisrn2qOmtTyncXD3rf7GIQkGrttndwnAq9JhRMnz54bv2ek/7wU/cawuj2qQv2Xn+4Bqv4jWMDQXb5lhoeKpnLN24//Op7fnvCj6Gi6vHaAJWAYQwAAJAJRFUAGQa/l2csYz0yuq0cRZks/4eMFBshul63tE5JGyUeNEDT8e7s4k01Z++pKw/sPR3onrYw+uQbZ1XZ9NlD59W9fuHgwEB4DTyf9gH/XA+/+p5/Iaqi6vGYQCVgGAMAAGQCURVAhsHv5dsJ4WLqRgwfa4V1lCmsvyZQFcRSaIRoJdKyEIZbMFlVm6GNauJBQ6mZmLsarJc3ZNOXpi+u3fZOKIyGZp4B/kdVNjX2+rUFgumzh87bNRfI3lNX1u2cNhwO8JhABWAYAwAAZAJRFUCGwe/RCQAuskV4Jh40lJvZxZsHzi49e+i8aBMaL4yqe9due8fwXho4RQ3U2KyL8QcNHhOoAAxjAACATAyYqGqvyxzkaktMhx4qTbd+qvlUZFQoB0CJCmk2V3pBxUwqWgGuY5aWa8stMEuKXqkydAKAi/QRookHDYNPaBMaLKg3luE/e+i8Kps+ffCcutcv7GcGBz6w97QRyml28eb81ZV+XEPR8JhABWAYAwAAZCKzqPqJrVN+zh0vHFULfGzLkbDAp7Yf9XP8Yrm3FfKjI1HVWO/aWK9tL211hEZRzjs6amix6lpvl99D53JXR22IqvlAJwCAx1RQNpZvraph6wP2nroS6J5BqLGN+8+oewNhNEzG3n2zi/6BTx88FwivhmwKATwmUAEYxgAAAJnIJqoGiqoa2jvmI3+SB5hORFVLJVV8BCqbUTGXD8G6GNW902jXcm2IqvlAJwCAx1QwSAQr8YNV84a4GS+MvjR9MWbv5ML1QDDdN7toC7KQBh4TqAAMYwAAgExkE1UN8dRTooEb+TZGZJBIEdPWdIsKly63WXFERhQbyVotiFdi7FOqFYKKNPeO16zV5QOK2Bti97Z7w7M6S+z8+Epsy9NINJ0zhM3wnI5o17p5anNTWEmrHh8XmEWoDVE1J+gEAPCYCvrI/NWVl6YvBvrm0wfPGfHuDWH04VffU/fuPXUl3HXvK+8ai/T9msVAUpAX9mOi5kwuXA/vThDhKtj++JYjn3x+Sj8w5S/fHbpyqiKuIHtavvKWacfuU1dcCQ5bzECCgl+XmNuB8ysAAIDKkllUNbb9f9f98LifEkXVNuof+PY7QrTU2+2K07SJ1JS0UFd02EhqJ42EQLUl0avUwLu+ky1Ew4zoolQh2TIyHbG7JLYS2+40SVSVDzFutCKqmnde1Vnjo13HbLhK2rtMeK306AQAaMJUkCOzizc3Tcw//vr7wWJ8I6zTvtlFVTb1C6h7D5xdWrdzOjjwyTfOGkGfoFjsd+bR/WdU44PLN257bXU1LHZr9aMrN24jqnaH2hWq5ih1UeDCqh59HG99rYhMNEYFMwJd2Gy8tdZqo+Krptw8nF8BAABUkk4sVY31/uGusMDP5q/56dD561pd0a+uwh94QSo1D26/65hmquGvz6Y5qvBSYtm8WictxRuq1RtebPcKRqCOS467Rx2IqqJxqyHS5mCpKtTGa2VO0AkA4DEVuJlcuH7g7FJgeKhmrt9z8t5X3nUJozGyqX/s46+/H1iq+smoGQYZ4zEJLILtB+eyLqGurH5klUFUzYreFdErpd1FrhCDmqhqyKXNnTW1quANVX/NTRBVcX4FAABQSXJY/h+kX37uiCepri2iV4TwDUT9cx7udv6NN19fEoTCdhFj+X9FRNWY3pC6N6WomnCP4kRVdVN5xYyxVA2b1fVrpbO2lK/XvFbGQScAgDeUU8HlG7eDxfK7Zy5tmpg3bEIThVF1710vn1D3BpaqfoVB/cimlUF8TMSc0DzZ375j+9HNhxf0Im3VLIWPpnCBlrBLcGxles6yM8qJ8S7n/lrh0lR1UXV8Tn2DDV4pjXdOe5VVkqiK8ysAAIAq0uHy/78/vWiIqsd+ccP/ePujKGdpZTWqSJPOrKXlcZpXm9ZCG1Vls5e0CwvIm1nqW4X6HmmftByiqtkbcve6FhN58iUnV2K/kClKqt2Zbp+q0VWob/t11RGBcX8TRVWztnpNrJjXymzQCQDgVXQqmL+6EhqEPrD3tOGB1BBG1+2cVvfOLt4MBdP1e04+/vr76t7lW6u4Lh1CEkXVwEb1KX2kBWX0zLrkIEvdm6iU1SXHVrFvg8rapxISI6rqLlWFV9OwBu091lp2Jb7fJgqgxi5rA+dXAAAAJSebqNoF7Z/CoyU1rfU1+u/jMW8khg8k3QOAsfzf/MneMNs0frkvoahqe4SSuld/r1J7RLzkhEqsFz/dELV9BtsSWD/EtibWtVPD2MJxYIra7CgE+glGQi3ZyGnBa6VHJwBAk7JMBYbV5+Ubt59842zggdRPLmFUlE3nr64ERz386nubJuYtW0IAk3hRNZDp95664jpW+aS93tRVT/UuH00xu2KMIgVXWiXFFlUdYmJaS1XNLsN4c1bfh5X60oiqYXU5WKoKtSGqAgAA9J2+iao2ZZEvoY3z5/0cSg8gvFZ6dAJUkA7/9NiGT9IPONaCWvMXP6MlxINOy+zizWCx/MTcVTU/kD7XbnvHJYzGyKaXb9wOLVX3nrpi1AyQlXhR1d9QRX/Vs6oRuspebNR4smN8NCW7b4oRVUuspCrYS5e68qnaNjVQXZfqVsAaSYvthBuqGTTg/AoAAKC8DKaoaryvVOOFrwqkf/3WlvKXE14rPakTPrF1quED7oWjaoGPbTkSFvjU9qN+jl+srw0FSEtHomr4RbUVJ1qrxzbKt3LEH5kaNZQuHvSWnbt+7ds/XPtne37zu/904uKyULQjAsE00DcNm1BDGL3z+8fUvcu3VmN8m/o8e+h8ULmf/MJ5NRjAxviL+dTBc+HINLxJBMVG959RCyg11QUHWZoKpz/CMbs8+UjhROXGuN7YBXDGL1CtWd0WVVsllQ96b4fHJ4WFkDTfEZxfAQAAVIPBFFUBiofXSs/qhEBRVb8Txnyk92Ag6eRPj6SJzin2S+ZOwTmhyx1KqeJBb9m5a+TP/3Hk9/5o5DfuGfmdP7zzuwfT66qBYPr46+8Ha+rF+l1Th5+zdts74Sp+Yy8WpjAgdPCHb3bx5rapC1Z2XXKQFeOjKd59kyk4uuzqy/xbuGqNYUx30g71qs1fxww7UHPiddu+Ot1JJbmr0g7F+RUAAEC5KFBUBRhoGPyeFKpOFU89fWGjXV6h+R3AikRsfb1rC0PtvPDLgfRdqMTf/6AzNKlRMRuyR1FTj4hisyj7tTEWPxTblbjsTM3624UE190xgft0s6huvewJteUnqn7qqR0NRbXNJ3/ri/e+8m5YJhQ9g8X4Yg0u2TQ48OmD5wLtVWgBwMDDawNUAIYxAABAJhBVAWQY/J4kqhrbDTeFPzzupxSiqh2JWN2ruCqzNpVDNMkIW/ehQ7H3tEw/tVGk6pv2clelYNxQVNTJpKB7cp5hIBZzLn1jUONBf+w/Hxj5lTtCUXXNmjXq8x46Ng3S/NUVtYbNhxc2Tcxvn7oQrMQXzgFQcnhtgArAMAYAAMgEoiqADIPfc1iqGuv9w11hgZ/NX/PTofOGhzjJzi6yD0xcsRha8Clgqzp0KCs0BStTaxQJJp+dDUW1EluoFaq2cmyhVD97GeJB//J/+IfGwv82X/k3/7ca+mli7mogmM4u3hSqAKg6vDZABWAYAwAAZAJRFUCGwe+lW/7fUlueO+LFrfB1KaQpAhbLh8CQEoyVSGKMH0UpRdXkoRhWIroC8OxyVk6MpWrY0K59qjprU8p3EQ96/+mLv/qX+wJj1fsfevj+v53Ze+qK3BcAwwevDVABGMYAAACZQFQFkGHwe+7l/39/etEQVY/94ob/8fZHUc7SihpoW1KyNAUpnaiqLcqGoaShENZqo9ZSeHkUicv/sw5FRZQUPAEoDTNOpea4faoqhUcGPx70vtnFO79/LIgctXvmktwVAEMJrw1QARjGAAAAmUBUBZBh8Ht5doKokGYKWGwHAWL5/3DSHAHRrY8fRZ4Vg6qDoRgpoob/ibYia4xHOyeVX1biQQOUGh4TqAAMYwAAgEwgqgLIMPg9OgEgIG7Rfz+OLxymAoBEeEygAjCMAQAAMjHIoqpzHWJanNFEho0OezL0vBcaL0lWTy0LKiPHcUolBLzYNsVMKlrsrWOWlmvLLTBL2s4qP5dv3N64/4z/r5o5bJ0A4KIbd77aUv5ywlQAkAiPCVQAhjEAAEAmMouqn9g65efc8cJRtcDHthwJC3xq+1E/xy/Wddu6FlULrn9w6OhKlfWu46bzwvh4LMbxZktGNWnCiL7t8oToXO7qqC1PUXXLzl2/9u0frv2zPb/53X86cXFZKFp+Lt+4vX7PyZemL/r/qroq79YA4DEVAKQg5jG5trL6wptzG8aO3/f8pJ/8Df/jNc3zOMBAwGwPAACQiWyiaqCoqqG9Yz52/ScZUTUvOrlSSRON8uo1O+SKVdzlQ7CuVt11tGu5ttxE1c//v98b+fN/HPm9Pxr5jXtGfucPf612UNVVNx9e2DQxHybDzHNi7uqBs0thWr41oF+fAkV1cuG6v+3/q+qqvFsDgMdUAJAC12Py1gcfPvTi0S/8dd1Ifqa/q//tBIiB2R4AACAT2URVQzz1lGjgRr5AtD48UMqaYtZ4zVzTHcYLaewT1a62lOY4UI8Wokhp2rmcEUAGDU1qVEJV641v7KjVwugtRl/LPRZbicvO1KzfDh4kxHbRamhk6eapzU1hba16fFxgFqG2/ETVX3pyW0NRbfOvfuuL977yblhm3c5p9VeE2cWbag3d7H389ffX7zkZpvmrK+reeDE32Lt96oIo5gZSbygNq4pqgKqr8m4NAB5TAUAKxMfkrQ8+vGfz26GQ+uCOqa/+YCr86O+SdNWUv4X32Tigb6dzRsyLdtthAaPy42qeX9BRJvwyInwRUAL91Y3aogKND+J3G5xfAQAADBGZRVVj2/933Q+P+ylJVNWEr0gYjF5pzC0zDrJWVXtPtEZcecXSMpWXE+FcZbBUVew9LdNP7QJVfVO/MKXHBN9+YiUpIlXLeUZk7Zhz6RuCAqvqrPHRrmM2XCVjL6tJS1T9ywMjv3JH+FK7Zs0adYQ/e+h8jLj58KvvxQijd37/WI8E2Ux77939c1VRDfBz7txxdOrCdd6tAcDjazZACuzH5NrKqmGj+rlawzuWYa9q+QEonaiab0uMN0n9vbXxulirma+MxiFumwzzBTVwJGXXpr43xy3cqkdfPcKvLxVxfgUAAABp6MRS1VjvH+4KC/xs/pqfDp1XlBrFjLT9e670AjQnLuU20PJbr0VzpkFnZKFpvkzEvGEMJsqbn2Blal2LYPLpeNeMqcTUQ50xv2Jf0+w3S/3s6jDowlJVqC2/18r/6dl9jYX/bb46+s11O6eF0nmj+g2wrU3jxdzAUnXj/jOimBvYwIbS6t+duuJqwJf/+7u8WwOAx9dsgBTYj8kLb84ZS/5tUdVPfjG9JkRVpTb9/TB4NbTeL7sSVU2NtrGzFvNlQdJN4ywgWpWUyvmVsAMAAAAkclj+H6Rffu6IJ6muLVIqfZlFVXX9TVVFVesNUvg9PLuoGl+J9koo/uru2eWsnBhL1bChXb9WOmsT38gzv1buP33xV/9yX2Csev9DD9//tzN7HSpkGTE8qIaEPgF4twYAj6/ZACmwH5Mndh1PI6puGDuu19RWzfR133XJa1PLYFLcZbvYspar2xkmklcu/XTRJ9kHVWaMFzP1dbD9dme+mXYlqo7P2S+9MV8WEjTVaji/EnYAAACARIfL///+9KIhqh77xQ3/4+2PopwlbTWTtrilnSMKnamW/1vyYl1f/m8oaOUWVdtrnayl8IKjAy23jXT5yZUYRqCOhhmnUnPcr5VK4RHN5YCmoqZaAOWqrV4TK+7ktXLf7GKwVH/ttnd2z1ySu6K02Lqq6mU15t2aWMYAwwNfswESsR8T/49jGlHVL6bXVJf8XKl7E5WyuuT2Kvb9UIg3ah2cqiWJdSbiFlU1+wJRPWxfu6Dqxoiqyqtuq2K9J7XatNfi1run6eG09M6vhB0AAAAgkU1U7QrVA4Br+b8Xvb3EB6pqxlPSX2OEUEkJb3utUw12oKomzWuzLzVasWS/RakvgOLlJ1QSvuYZnhvaiqzxumrniGqs+Q5nvqNb5g6uA1PUpjQ8KqW+HJvXMqJ/XRie10pVVzXiVrk6gVjGAEPF8MyHAB0TL6p++XuHP1ebur7S+FObQlTVXlyi34W1txXh5dnh0MlhFCn45tJxLSCLOV1incnYoqqgpFpL1LqxVI2qrsetdTOO1fNEuwT71PVyOL8SdgAAAIBEH0XV3CiPhWmpiVv034/jC2cgB3+vCHTV2cWbqqLq5RnLuANyetKdDoG7hIkIOiaPwdP1wM4UvXqo5kOAzrAfkw1jjeX/X3ru7cBA1cff8P9oplr+b4iHMV6bkh06xYiqsaqnKKpmdkKVFXsdUmRzqyM6iepIVA2uJXJUmlFU1XJjLFXD69FMHAbQ+ZWwAwAAACQGX1Q1XqH8lwO0jD7RzYuxtpS/nAzA4O8rkwvX1+2cVhVVL89YxilJ870oaz09OrAXJWFIiBkS8aMlv7GUMXr1sM2HAB0gBqr61k9+fmGpES7y0R8ds5d3uANVtR/18MHUVDhd74vZ5clHCieSqQvL/5NP1+U8ZdbmcODkWibfmaja+sKhfHCJqqqDrLqgflbF+RUAAACkYfBFVRsUCugHAzn4+01+sYxTgqgKw0DxomrW6NXMhwCJiD9Dbtw989iPp11yquNnyLrk5yrGa1O8QydTo9SqNX1zWdRtr1z26dqlzEBVHS//F9wyieqmJBrWHW6dkkTVRn22iahQmx451rpQwZJV0oNxfgUAAFAJyiiqAvQDBr+XZyxj+5uc/ZXP+FbRzLTCH8uLlbUYx1I91pcNczFhyhDGUhzk2Ct1flWCoaPbINquga09Kf6e8CD3U5M5ejXzIUAiaRzmGCk/hznQR+IcXOH8CgAAYLhAVAWQYfB7ecYyDhGX1LkylRgY0kq9SEI1YxynXPmYslXaudxxkNPUCUNL/OBJPwLFp2bE3kx6arJFr2Y+BEik/KEdbY9bIONykIXzKwAAgGEDURVAhsHv5RnLWP2yll5UtbaFsMKp6xG/A8W0yj6XKw5yhiuFYSWfINo5PjXZolczHwIkEvOYXFtZfeHNuSd2Hff/OPppw9hx/2OnzscBegizPQAAQCYQVQFkGPxejrGMU8YmTiUPxQTVzSiqZg1hnEZUTbhSGFbyCaKd41OTLXo18yFAIjwmUAEYxgAAAJlAVAWQYfB7OcYyFpbg6xEmUspDujVdbLEUy/+FPab/AetcScv/E+qEoUUaPJ2MwOyiqlBP5ujVzIcAifCYQAVgGAMAAGSic1E1WMq0YYylTFBNeK308oxlLAQLjhY+12pm3B7nSmc7rLBczF2P6isuewjjdgXuQFVJdcLQIgyezCNQGtiJoqpQT9bo1cyHAInwmEAFYBgDAABkokNRtTxO9wE6hNdKj1jGAFUlY/Rq5kOARHhMoAIwjAEAADLRiahqSCoP7pj66g+mkiSVYVsAO2zXm0geHRITvD19BQ3zq8g0yw4VH8JrpcfPKskQKxnKSqbo1cyHAIkEjwmJVIFU9MMEAABQGjKLqtdWVg0xJYhXk7T4N72mVg05ctiuN5GYy4zvgfz6J7K+ajsRFKLERPBa6RHLGACaMB8CJFK4EEYi5ZWKfpgAAABKQ2ZR9YU35wzbNFtUFcLUDJ3IOGzXm0jxoqq02jUm2DUiQgM6AQA8pgKASnD32Iwtn/3PL04X3a4e8vTBc2u3vXPg7FLRDQEAAIBqkllUfWLX8TSi6oax43pNVgCZaKWsuhZbWUvrWpao7W1WOx5G/5hzZ4rhONyRlO3DrTXjdkYUdMQZxMa4hITrLT1ShyT0gNarxl79HtVbJf094UHS7XbaompCKtGuJegEAPCYCgAqgfgUV/vR/s5P5/wL9P8tuiEAAABQTTKLqvc9P5lGVPWL6TXZ9obtHNNCMI1loiquqVG5lfjcUqYihsYETRYPt915KsfWa+0rUYXB+KsQAzdXjPgOSQpdHfWq4x5Zm/rttuuJxllLcTUHnvYZEcGjEwCgCVMBQAUYQlH1wNkl/wLvevlE0Q0BAACAatKVqPrl7x3+XG3q+sptL5OoGlkfNnNMvS1WZDSOjTE1NTL1kBxt/azDwxsodq+RtWTUcPdVxF1CtXB1SEwP2L2a/h6p23I9ljFwoyXhsaapKiKCRycAQBOmAoAKMISiqs+6ndMPv/re8i18vgMAAED+ZBZVN4w1lv9/6bm3AwNVH3/jwR1TaZf/O0IDBSKYJXTqCMcWK6paOYmiasIlVAuxQ+J7QAhH3bGoatcjeFiIcaqKiOBl74Sbqx/1rjEAUBTMhwAVYDhFVQAAAIDe0Umgqm/95OcXllb87Ud/dMzQUpMDVYUKmLWevq2xxdp4msemV9yM5f/RqvTIO2vc4eLyfyEnYfl/wiVUDKlDkm+i281CelFVqEeReOv1ul05PlUlxE6IDxe7cP1WES0FgB7CfAhQduavriCqAgAAAORLZlH12srqxt0zj/142iWn+umhF4/6xfSaNC2tufK7VgtFVD1UUytDMCu0js2kuEVLwnVnA62T11IIdnpD1TXmijfXkbhAVfYlxFxv+RE6JKkHrF5V9qYXVYV6ItVUCFkmWLIiInhuUTW+MLoqQMVgPgQoNbOLN9ftnEZUBQAAAMiXzKKqz1sffHjP5rddiqq/yy/QswYDdIplixq/DxHB60hUdewdJIts2+48NwbpMqEcSGOmB0NU9YkS/dqlLxYxlhOoMB8ClJdQUf34liP2EpO1294puoEAAAAAZaUTUdVr6qoPvXhUtFHNT1GNLENLa8lZgUuoFIKr1SaKb4gIRASvU1HVT1Y8iPKqjZlaXt7LhKLoy5hR3Z/I52v+tYqM+fmRCaAiTC5cX7vtHf/5vfeVdy/fuF10c4ph/urKS9MXt09dKLohAAAAUDU6FFW9ph+AF96ce2LX8fuen/TThrHj/kdr1T9AWUFE8DKKqmoBRFWAdPRjzGiaqiOGYm1ckVJxhwJQFbZPXfAf3gf2nl6+Nbyv6LOLN/1OuPP7x4puCAAAAFSNzkVVgGrD4PdiRdVwl/ivLKrW2w51Q1VH8G+rlfQzwyLSUaL1t3iuRmatNto8JJCxdMNlJZaeUrdibG76/HWfuh0qTTpEOGn8LYCq4xyukf/ocXO5vuSKPBjeo6PCqNbtVBsOxPXqGpJqXbNPJXAfQIXYPXNpmBXVgLtePuFPYhNzV4tuCAAAAFQKRFUAGQa/l7OoOqLojVFkNyXsmyJHWpv6UfFWd8pherWmYqWY41mWeUlR0ZynNuRa65C4k8IQ4hquljovuCnRikVPijnA9CylYHOrLaBqQqo5NpkPAaDUfOenc/4k5v9bdEMAAACgUiCqAsgw+L1eLf9XxBzdqK4tAEkipnZUvKdibT11bLWhcqRIpJERoCWqpjv1qBpjSDhEOikML/HD1anpO0epMMAcQn5zO5JSNVHVNFVlPgQoEbOLN4tuwsBx4OySP4nd9fKJohsCAAAAlQJRFUCGwe+ltlS1N3osqsbbd6pHhaXlagPpSNOVokX7oqiaeGp9AbZ0iHlSGGrih2v8IyCNUmGAxYiqNT2aomTv2oT5EKAs7D11Zc3WqU0T80U3ZOD4zk/nJheuF90KAAAAqBSIqgAyDH6v16KqufzfWt3vPipWjlQKJFbbUJ5qtVFrsb6wEDvlqVtL/FWTQvOQ1knRVMFLGq7SuE0YpfYAm9NDUEUHa7opPlUBys9L0xeDpxVRFQAAAKAPdC6qXltZfeHNuQ1jx+97ftJP/ob/0c/sQSMBCgARwev18n9PXR0fL6S6jnKuwW8G7VH3u6pt1hVV0q5a0aRaK63NqFPxngea5ZTNEas1uFOFJvHDVRy39ijVRVVrgJkr+8UBbEiv+l7mQ4DBB0UVAAAAoM90KKq+9cGHD7149At/XTeSn+nv6k1TAfoKIoKXZKnqSVarniyq9hNTYBpACFEFPcUcYNmcTQilmQ8BBp+N+8/4z+n2qQtFNwQAAABgWOhEVH3rgw/v2fx2KKQ+uGPqqz+YCj/6u3LQVaNVjW07sVZI7TTfC0sgqQwfedyUtAMgtoKG0hCZDtorw0MQEbxyiKp13Smkf0v7NgPYp04H7lShp0gDLNkhcBvRjJr5EKAUHDi7VHQTAAAAAIaIzKLqtZVVw0b1c7UpP9+wV83PD0AHy2TTSyrIr30jpqvj70J+9ygSGup1048nllky+S3/7yeD/FwHgv7ANg/KTq8GGPMhAFSAibmrd7184uFX3yu6IQAAAFARMouqL7w5Zyz5t0VVP/nFcmphB/oIouoAUryoKhlvOYJiN0FE8NyiamIqpLUA0CN4rgEGE0xTMzG7eNOfytZsnVq+RRAIAAAAyIHMouoTu46nEVU3jB1Xj9LWHVrBNtRF2M14HeEC3mh1rR7z2D5WCd0xPu6S4aLqGgcpS3fxbtgjpJuScBe0O2vs1YO31Fsl/T3hQUIwFrctqiakEu1agk4AAI+pAGAgCZyovjR9seiGlIm7x2b8Tts3u1h0QwAAAKAKZBZV73t+Mo2o6hfTKhIsAhWFtF5ra6aqI9WY2MfysYooF2/bKFYOuRN/U+JvsXpnxQEwYm8qJxTrsUK8a2K6aaqKiODRCQDQhKkAYKBYvrX68Kvv+U/l2m3vTC5cL7o5ZWLTxLzfb0++cbbohgAAAEAV6EpU/fL3Dn+uNnV95baXKKpGilVL4lIMCW07RC9BcbOP1cwM3VKpYfmKqNpTXDcl5i50MyrUbbkeyyBZlfEtU1VEBI9OAIAmTAUAg8PyrdUH9p5GUe2MibmrftfhVhUAAAByIbOoumGssfz/S8+9HRio+vgbD+6Yil/+77Ulq0i4EkIRZxJV9WPTiKpCVCJE1V4i3pT4u9DNqJDPotYjeHmIcaqKiODRCQDQhKkAYHAIRFUU1Y6Zv7pSdBMAAACgInQSqOpbP/n5haXG68ijPzpmaKlxgaoaGlqtNhrqVpqVYDsnpXwmHpu0/F/z5Yqo2gekm5JwF7oZFV7sCFEk3nq9bleOT1UJOgEAPKYCgAFj+dbqiYvLRbcCAAAAYNjJLKpeW1nduHvmsR9Pu+RUPz304lG/mFVZU1hTbQHVNdpZF3qbx0aLyt2BqsKoSbVaWz9rHUSgqh4h3JSku2DdWWVvelFVqEe3ktbGTutQfRggInh0AgA0YSoAAAAAAAAwyCyq+rz1wYf3bH7bpaj6u/wCPWswQKdYtqjx+xARvOI7QfXn0KVReZdm6Vi1QyF0OPA0DyjRmoHwY+TT2s4RT1n0VAAw7Fy+cfvA2aWiWwEAAAAAGp2Iql5TV33oxaOijerAKKpROCSMUSFAcLXaxNAcAhARPKkTPrF1ys+544WjaoGPbTkSFvjU9qN+jl9Mr6kzbShHKRNRFcpIRwPPMMuv1Wqawhou7ghFVCOHH5kABovZxZt3j82s2TqFrpoXy7dW9566MjF3teiGAAAAQLnpUFT1mn4AXnhz7oldx+97ftJPG8aO+x+lVf8ApQQRwbM6IVBUwxQWED/qvYeoCtABnQw8SxOVA/K1itk5Hu5QAAaI2cWb63ZO+w/g3WMzl2/cLro5FWH71AW/Sx9+9b2iGwIAAADlpnNRFaDaMPg9qxMM8TTYCHfZ5UNqmsl4Qyeq1UbDD6Y1eeh3N3LFq7vTHbfWLwuHGIj+dv1T6ubLddP374hpxAeQFnFoWQNeexyskdc8rB4ObyWin7MS2840kki1fc1sO8cq14D5EKAQTlxcRlHtBbOLN/1eXbN1avkW5iAAAADQOYiqADIMfk8SVY1t/991Pzzup3hR1YonZiuUqmyqyku2qKrGpjO3lENcDVBaUq8ZlnrtTasMoip0gGwhGmZEQ1rV+y0j0xHryYivxDpVB6KqVQnzIUAhXL5x++6xmQf2nkZRzR2/Y/1pbd/sYtENAQAAgBKDqAogw+D3HJaqxnr/cFdY4Gfz1/x06Px1pSZDVFWEo8jorh2TStN4JEtVox75EAM15pXhbFnxKWmaqWrWtYiqkBFraHnWgDdtqF2yqb4dU0k+oqppqsp8CFAUl2/cxpqyF2yamPentSffOFt0QwAAAKDEIKoCyDD4vXTL/4P0y88d8STVtY1DG4pUpLaI0w9R1YxKFlSgR/eJ0bYA0uIeWmFedlE1vpJYUTWtT1UsVQGg6kwuXN+4/wyWqgAAANANiKoAMgx+z738/+9PLxqi6rFf3PA/3v4oylnSwta5De4i49CUy//terIu/7dKNMSkWm1UjZBur8JGVIXsGENLHvDh0BKX/1sDPrkSp09VRZC1JVpd3sWnKkBB7JtdnFy4nlwOAAAAAIqmc1H12srqC2/ObRg7ft/zk37yN/yP11ZYoAQVARHBy7UTWuuVzaX0YYSpWk01kosPVOVeDZ0xUNWIsthZ91dplkFUhc4whpY94I2hZcSgEgd8QiWWIqqbnbbPoAXRsnN0a1fmQ4D+sG92cc3WqXU7p+evrhTdFgAAAABIoENR9a0PPnzoxaNf+Ou6kfxMf1dvmgrQVxARvDJ2grS6H2C4sG1Vuz6+fFMBQAl5afpi8Kxt3H+m6LYAAAAAQDKdiKpvffDhPZvfDoXUB3dMffUHU+FHf5ekq2LnNeTkMQDspbEdVNAQ3CIrRGvVawQiglfCTmiv24/M/QwLPIBhoJsfFyJvGgqlmwoASsfumUvBg7ZpYr7otgAAAABAKjKLqtdWVg0b1c/Vpvx8w17V8gOQXlMbEPl1QJpRGWL6M76r87sRkfVVvR6t+TbivUQgInil6QRhPT8A5EhJpgKAEjO7eHPdzmkU1T6ze+bS+j0nX5q+WHRDAAAAoJRkFlVfeHPOWPJvi6p+8ovpNSGqDjnFi6rSilg5KHYAIoJHJwBAE6YCgD5w+cbtopswdGyfuuBPbg+/+l7RDQEAAIBSkllUfWLX8TSi6oax43pNkTRmhOHQ12Iri3ZFgzNp3XatFsQBUbc12zU17nJUwGqfHpQGu7c8COOpKOGDErpau8XGXj1aUb1V0t8THqTFajHrjdNUiXYtQicAgMdUAAAVZXbxpj+5rdk6tXyLWLsAAACQmcyi6n3PT6YRVf1iek22vWE7x7QQTGfSWK+1D9bif6vbimYbKnGJRo9ikHHojOguNBVOxwBwx3Nv32J7b1NstTaVE4r1WBG4zYGnfUZE8OgEAGjCVADQCzZNzGOdWjh3j83489u+2cWiGwIAAADloytR9cvfO/y52tT1lcbrYAZRNbI+bOaYeptbzVQdJ5qmi/qBepCOtloWq5MarUJU7R7N9tM9AMwbl+YWO+57uC3XY1kdazK7aaqKiODRCQDQhKkAIHc27j/jP1b3vvJu0Q0ZdjZNzPs34js/5aUfAAAAMpNZVN0w1lj+/6Xn3g4MVH38jQd3TKVd/u8IDRSIYAnSpxDPOCdRVWgVomrXiKJqfFenvcVpRFW7Htntg8upKiKCRycAQBOmAoAcWb61+vjr7/vP1Npt72AgWTjzV1dOXFwuuhUAAABQSjoJVPWtn/z8wtKKv/3oj44ZWmpyoKpQAYtW5bdoa2zxy/+NfTHimrr831oSbldstgpRtXuk5f8JXZ3yFieJqkI9isRbr9ftyvGpKhHTCddWVv3HfMPY8fuen/STv+F/9DP73EIA6APMhwA5EiqqkwvXi24LAAAAAHROZlH12srqxt0zj/142iWn+umhF49a2oqmpTVXftdqoYiqx4RqZSQEqopd/q+VdBQQ6w1bFd8MSEn75iqBqpK62rzF6t70oqpQT6SaCkHMBEtWRATP3QlvffCh/5iLz76/q//tBICewnwIkCOTC9fX7ZxGUQUAAAAoO5lFVa+pp9yz+W2XourvQlWBQcSyRY3fh4jgpZsBHtwx9dUfTA3SDICZ+RCSx0231k90UkHjt5nod5vYVRLNH4xi4jRGvziqYfk0zNJybcb5Y+IxOruR+RAAAAAAAMCgE1HV65OdmvH9MUeT0d7VDAON4Gq1ieItIgIRwXPYqhvPfuBeOclWvXvSq2a9KAkDTrzfmJi7nN8YiH6aaXsYcfgQV089qs1JRkA/NYxeYjjHmNoQVQEAkplcuH75xu2iWwEAAABlokNR1Wt7VHxiFx4VoZogIngOr8rGTym2qCp5Ve4eRFWIoXhRVdJNYyLhtU9dlwL62T8AaRlOUdVRG6IqQMFcvnH76YPnlm/xkjy4BI5uX5q+WHRDAAAAoEx0LqoCVBsGvyd1whO7jqcRVTeMHbcqM9ZEN+SbWm00cnkr+laO3OnqluVW+chbb+TA1yShTigd0k3PMnKMvbraWG+V9PeEB0UDyxyBCZqqtL91Ot08tbkpGNWrx7tFVbE2RFWAQrl84/bdYzP+E7Rx/5mi2wJOtk9d8O/Rw6++V3RDAAAAoEwgqgLIMPg9qRPue34yjajqF9Nrst1VqsubNSHIKhYbnaxVPnLh0BS74m0PY0QlKBHxNz39yLH3NsVWa1M5oVhPJIO2FFfTw6mhk9otVERVc2CqOmucqBq7EdMzMTU3YD4E6IzZxZuBonrXyyf87aKbA078u+PfpjVbpzAoBgAAgPQgqgLIMPi9JFH1y987/Lna1PWVhgOyBFFVsLxT5JvI6E+x/IuMCC0ByC4/J656toipE0qH66ZnGjlOUVU0C1UtSe16LINn0y+qW8FsHZ2DpapQG6IqQEEs31q96+UT/rNz99gMzjoHn0D+3je7WHRDAAAAoDQgqgLIMPg9qRM2jDWW/3/pubcDA1Uff+PBHVMJy/+TRVV9rxDhJ6l8oqgaXyeUDvGmZx05nYuqdj2CF4lYp6pqzUGNXftUddamlI+qQlQF6Dn7ZhfvfeVdFNVS8Oyh8w+/+t6Bs0tFNwQAAABKA6IqgAyD33MEqvrWT35+YWnF3370R8cMLdUdqEpc/q9qVfpeTVwSdS7BmUDC8v+EOqF0SDe9k5GTXVQV6lGEy3pdUD/dPlWjClSvrdHF2adLFFXN2gxfG4rjYkRVAAAAAACADulcVL22svrCm3Mbxo7f9/ykn/wN/6Of2YNGAhQAIoIndYL/jG/cPfPYj6ddcqqfHnrxqDQV6AGEZA0o3B1GIKrVRhVhSAg3ZLoLcAeqSqoTSodw0zOPHGVvelFVqCdSTZVd0cgSLFlNBdP8PaDuCqWWQlQ1a1PapJn3RrQ1aSOnBfMhAAAAAACAQYei6lsffPjQi0dFMcXf1ZumAvQVRATP0Qn+M37P5rddiqq/i0kAhhHBFjXVvlLAfAiQkn2zi0++cbboVgAAAABAP+hEVDUklQd3TH31B1ODJKkMyZLePC7TXpPdQQWqXaEQG1ulaQZlRsSWLbOUyNsaZmm5NgKz5EOZf1Yxxg7GqNBzBFerTbSl/OWE+RAgDftmF9dsnfIflpemLxbdFgAAAADoOZlF1Wsrq4aYEsSrSbH4t0vSa4i9KDmAxDQ+/rryu+rI+qrtRFCIEmOeelSTHYyY3dpi1TQ+BB21IarmQ6IDkCd24QAEoPowHwIk8tL0xUBRxVK11OyeufT46+/PX10puiEAAABQAjKLqi+8OWfYptmiqhSmpnsQVQ2KF1Ul3TQ22HVw6roYqL3TaNdybYiq+UAnAIDHVACQxOzizeAx2TQxX3RboCse2HsaW2MAAABISWZR9Yldx9OIqhvGjluVGSvEG2JWrTYaxfjQV+nqQW2sgB1W+Sg8iTNMTVKdpUC6zCx9ZezV1cZ6q6S/Jzwo6kqzzxM01Zho17p5anNTWDerHh8XmEWoDVE1J+gEAPCYCgBS8NL0RRTVCuDfR3+6e2Dv6aIbAgAAACUgs6h63/OTaURVv5hek+28U13srcliVrHYcMyt8pHPOjOAskCMxDbgxF9m+r6y9zbFVmtTOaFYTySDthRX08OpoZPaLVREVfNWqDprfLTrmI2YnompuQEigkcnAEATpgIAgy07d/3at3+49s/2/OZ3/+nExeWimwO5MX91xZ/u1mydWr6FRyMAAABIoCtR9cvfO/y52tT1ldteoqgq2CEqYlZkAqnYQUYmlZYcZpefE9eAW8TUWQpcl5mpr5yiqmgWqlqS2vVYJr6mX1S3gtk6OgdLVaE2RNWcoBMAwGMqANDZsnPXyJ//48jv/dHIb9wz8jt/eOd3D6KrVon1e076M97eU1eKbggAAAAMOplF1Q1jjeX/X3ru7cBA1cffeHDHVMLy/2RRVd8rxDtKKp8oqsbXWQrEy8zaV52LqnY9gt+EWKeqas1BjV37VHXWppSPqkJUzQadAAAeUwGAzqee2tFQVNt88re+eO8r7xbdKMiNfbOLB84uFd0KAAAAKAGdBKr61k9+fmGpERPz0R8dM7RUd6Aqcfm/qtzpezWpTVT9BGcCCcv/E+osBdJldtJX2UVVoR5FuKzXBfXT7VM1qkD12hpdnH26RFHVrM3wLqG46kVUzUBMJ1xbWfUf8w1jx+97ftJP/ob/0c/scwsBoA8wHwKofPwvD4z8yh2hqLpmzRoeEAAAAIAhJLOoem1ldePumcd+PO2SU/300ItHJW1FD6ckK2Lh7jAeU602qshkQvAl012AO1BVUp2lQLjMzH2l7E0vqgr1RKqpsivqS8GS1VQwTQW87goelkJUNWtT2qSZ90a0NWkjpwUigufuhLc++NB/zMVn39/V/3YCQE9hPgRQ+VebXmss/G/z1dFvrts5XXSjAAAAAKDfZBZVvaaecs/mt12Kqr8LVWVYEGxRU+0rBYgIXroZ4MEdU1/9wVRvZoBcbMlLZ5AOlSePMWkv/+igAvUnTCEoYQTzIUBIIzr8d9/62H/4h8BY9f6HHr7/b2fwvwkAAAAwhHQiqnrlsFPTLBBLZYxaJgRXq020pfzlBBHBc9iqG89+4F45ha16B8RoT+llqV6UBOiGjgd2fkM0+tmr7b1FcM8dwXwIoPL0wXN/8bP5O79/zH8u1m57Z/fMpaJbBD1h/upK0U0AAACAgaZDUdVre1R8YhceFaGaICJ4Dq/Kxk8ptqgqeVXuDERVqCTFi6rSUoK4KIPVmw+DKyKRqp2Kfs7Kzb2vvOv3IboqAAAAxNC5qApQbRj8ntQJT+w6nkZU3TB2XK/JHR6t3vYJHEo8oZdgxT+y7pLZcr5rrmCWKzFIqBMgX7od2MZe+Tny94QH2c/UiNsWVRNSrf3Vmw8LV7tIpD6kop+zcrNx/xm/D1+avlh0QwAAAGBwQVQFkGHwe1In3Pf8ZBpR1S+m1+QSVdvCT+QgMnIdYcYxM4+VwqnVa2H8MXclBmKdAPmS18COfY6UTeWEYj3RTwctxVX7LcE0Va3efNi+ojMkUiVT9Z7Z/rN75pLfhw+/+l7RDQEAAIDBBVEVQIbB7yWJql/+3uHP1aaur9z2OhdVI2mppeJoJnKaGNQ20rOOjazwFFM9sRKDmDoB8iWXgZ38HEnbcj2WPXajJeGxpqlq9eZDRFVStVP1ntn+c/nG7TVbp/y0fAvnZgAAACCDqAogw+D3pE7YMNZY/v+l594ODFR9/I0Hd0x1vvw/EnHcoqoQQsfQnnSFKI2oGl8nQL7kMrA7F1XtegQnFzFOVas3HyKqkqqdqvfMFsL6PSfvHpuZXbxZdEMAAABgQEFUBZBh8HuOQFXf+snPLyw14jY8+qNjhpbqDlSl6DqRQZxiGhftl1ZJh0qR5iVAFY8MNTTF8v+EOgHyJa+BnV1UFepRJN56vW5XPjQ+VQtXvkikHqXqPbMAAAAAA0jnouq1ldUX3pzbMHb8vucn/eRv+B/9zB40EqAA+ELiSZ3gP+Mbd8889uNpl5zqp4dePCpMBeEy51pNFYNqtVEzOlS7pBLPJwzx4xfXI/yY8XwUN5JWUCCdpDoB8iWPga3sTS+qCvVEqqmyS3sG9aegevMhoiqp2ql6zywAAADAANKhqPrWBx8+9OJRUUzxd/WmqQB9hS8knqMT/Gf8ns1vuxRVf1fqSQDLUICCsGxR4/dVbz6sqqj6ia1HUkSEP/Pe4mzhTSX1NFXvmQUAAAAYQDoRVQ1J5cEdU1/9wVRHkkoiuWguCDeDQB53IVoh20UFLbedplGjXS9fSLye/6zSz2czigeEMSqAJ7pabRL5KVCo3nxYSVE1jaJazgt/rTbyyPhcUrG5HaNpig1Hqt4zCwAAADCAZBZVr62sGmJKEK8mefFvJ8RoLunlmF6UhKx0fCvzuymR9VXbiaAQJSaCLyReCgcgT+zqxgEITxxAOajefFhObTGVjjZkomo6vXX4UvWe2aJYvrW699SVTRPzRTcEAAAABpHMouoLb84Ztmm2qCqFqekMRNXKULyoKq12jQl2XUERoQPoBADwqjgVlFNbTNbR/njigpHszBJeOKJq5lS9Z7ZA1m57x+/M2cWbRTcEAAAABo7MouoTu46nEVU3jB3Xa3LHLK63A3WEglcYukOJMBOt3W0F6NBX8ZrrueVKDBLqhO7p9lYae+WR4+8JD7JH0YjbFlUTUocg2nUH0AkA4FVxKhgqUfWJfzkfK6qqumS4XVf+iDZ3NRbXBzxTb5es1R5pfzRSzOHtHK0GvTbpXEELlVeI15r5xsf2hThONz7+TPttoS63syqpes9sgWzc3+jP7VMXim4IAAAADByZRdX7np9MI6r6xfSaXKJqWwaL3GVG/tyaspghhCXFO67XmlvxlRiIdUL35HUrY0eOsqmcUKwnEstbiqumnpumqnwh8egEAGhSvalgqETVJEtVSVStP9OUKaUy9WeaimRD0GxLk0aqN1/p6vrhqroaVKXWYGzb5zLMUcMcURF2nq51Uf7VBXKteZnVSdV7Zgtk98wlvzMf2Hu66IYAAADAwNGVqPrl7x3+XG3q+sptr3NRNRLaWpqWZjCoSWNtmwPr2MgmUTFcFCsxiKkTuieXW5k8cqRtuR7LArleU6Re01SVLyQenQAATao3FVRVVO3Ip6qkSzYtPSNhVDH8FMxCjdQorJuv6jnNv8eO8yaeq/5Me4dbVE1/OuMyK5Sq98wWyOUbt9dsnfLT8q1cIkYAAABAdcgsqm4Yayz//9JzbwcGqj7+xoM7pjpf/h9JWm5RVQgoZChxul6WRlSNrxO6J5db2bmoatcjuHWIcarKFxKPTgCAJtWbCqoqqqbJTLf8v5Hmxh9prYu3ddLeiqqOc0W76uOjeYiqxmUWfQfzHQwVe2aL5dlD53fPXEJUBQAAAINOAlV96yc/v7C04m8/+qNjhpbqDlSlqFyReaBiKBjtl9aMh7qZ5iVAldIMNTTF8v+EOqF78rqV2UVVoR5F4q3X63bl+FSVoBMAwKviVDBUouqF5dnYYvXmG1hzu2EHqkmlc+OPOBb7x0SISlz+b3pKtbYd5/KbN7pjzjMW9Scu/48/nXqZxd/EHAdDxZ5ZAAAAgAEks6h6bWV14+6Zx3487ZJT/fTQi0f9YmZd4aLvWk2Vxmq10WiJtl5SiW4UBjzyi+vxjszoRopTTbMSg6Q6oXvyuJXK3vSiqlBPpJoqu7RRp993vpB4dAIANKneVFBJUfWXthwRxbXEnGhNfe2ZSL5s0Tb5VFflxy//b6QohJQVqMolpCq1Oc8VxjZ9pjaqh65yBqqKPZ19mVVJ1XtmAQAAAAaQzKKqz1sffHjP5rddiqq/yy+Q7uxYhkIfsWxR4/fxhcSTOkHNmVy4Hnro87fDvR/fcuSTz08Nde9FhtgqzHiVIfwRpqnnmCHvGnc58h3dRrn3xkjQQ/BJtYWn0n85VIqqPyOpP1fJtWmtU3+9spraonrzYSVFVS+dW9XCG0nqQ6reMwsAAAAwgHQiqnpNXfWhF4+KNqqpFVWvvxKD8Q0XY9RhRHC12iTyU6DAFxLP6gR/e3T/mTDH37h8oxGnLlBXw2K3Vj+6cuP2EPRe1hkMUbUyqKLq6Kg2r7gEU+Nwl6jqqE2dvObGx+ueJqrqIn69ltg2u1WmG5bKW+4jL+aXXtPfr6pm8lnSVL1nFgAAAGAA6VBU9Zp+AF54c+6JXcfve37STxvGjvsfhVX/cSAxwODCFxLP6oTZxZtBplHssi6hrqx+NBxdh6g6tGii6ng9JjRiZlFVrk2oJmxDzK9FrrbFi6pCldWbDxFVSdVO1XtmC2f+6sr6PSfvHpspuiEAAAAwQHQuqgJUGwa/5+gEMWfTxHy4fcf2o5sPL5h1hd50Iwe7bdGnbT0ermAOd7d1Hd1brsvc2DRDj1ZEqxZ9Wo7gYNcdG228pjRPMX4X2iO493X7d4bSoYuqc8Yq/e5EVbk2MYhf2120vPYivrZYUdWqtHrzIaIqqdqpes/sILB22zt+rwY/MAMAAAB4iKoALhj8XgpRNbBRfergObuMnhm5WGhqjIpjR2szKqsoV6Ojo2Gks1hhMtSGbLemdo7i+CHa6RJV1SB4mqAW2wzxwqHsmKKqW6/sRFR11NaS5xX134jBpwj4CbWp/nDEwYyoSiKVO1XvmR0ENjY9IAk/GwMAAMCwgqgKIMPg95JE1cCV6t5TV1zHRh/mEtcgS9vto+q1cBWzW1ONZCLLB2XYhtictkbltlSNy7Rbo12CdY1QamxRNczLRVR11dbSTbXfHMyBnaa2NJaqWoHqzYeIqqRqp+o9s4PA7plLfq+u33Oy6IYAAADAoICoCiDD4PeSRFV/Y3LhepivelY1Qld1KKq2DmtoqnPBsn+XphrpSu0SiKrQQyRRtTWe0oiq+jiOxmFibWpxsQ2eY3wateFTFVGVVPFUvWd2EPDfc9ZsnVq3c3r5VqYYEgAAAFBZEFUBZBj8ntUJTx08F+QEcmq4HRYb3X9GLaDU5Fr+Hy+qNsUnZeF/rVaTVUlh0X8Hy/+tsD+RH8tORVWW/1cTh6DZWn6fKKpqHlKVUeiurT6uyqNtr76qZ+BQA3WMT61t8aKq0qI21ZsPjemLRKpkKvo5qyA4VAUAAAAVRFUAGQa/11En+N83tk1dEHbUwyhP47Hmn/q2KoTaomhE6EyyVhvVtCErCJUrUJVSc1iqVotvaqtgfKAq4cKh7LisRG3p3KW8KyHS3LbMpgNibexGoqqn71dGXora7MBrUoOrNx9W74oAVBjhAAAAAH0glahKIg1t6s9zOLD0pBOcwcoBYECp3nxYvSsCUGGEAwAAAPQBRFUSKS715zkcWHrRCerC527qUChcoh209gDkTPXmw+pdEYAKIxwAAACgDySIqgAwzOT3rUxZ7IzmCFA2qifQVO+KAFQY4T1lcuH6vtnFolsBAAAAxYOoCgBO+FYGAF4Vp4LqXRGACiO8dxw4u+T37bqd00U3BAAAAIoHURUAnPCtDAC8Kk4F1bsiABVGeE9Zu+0dv3tPXFwuuiEAAABQMIiqAOCEb2UA4FVxKqjeFQGoMMJ7ysb9Z/zuffbQ+aIbAgDw/7P3vjFaZPedbyeTq4uliS6+I6/QKi94EUtzd+9KE9kvJhtbIvKVwki2xO7sVfDIu82LlYIiS7BSXpDZm4tWlkOkxwo4M4YBB5OJ8TI35HbHhEBaEQJpudMRfgw00NOd4U/TbvQ0atJAu9s0NDR963nqqVPnX/15nn6e+nPq89ER1HPq1KlTp06drvOt3/kdAMgZRFUAiIRRGQCsudgVmFckx1yZeyKWK/S2xd5XDlx99f0x5cDWMnXa2nu+D2nXvUd7V+5fYqsKlKv1YppVoi3hp1ZUO43xMzI3cSrJN7coQwvZd3f7iJjclNK1kigxtvUUY8umZmA5h6UGYsoWVTlaucyYNu49s4XixORDr3q3nLyZd0EAAAAgZxBVASASRmUAsOZiV6Bdkbc92DI9Ez8fPX2xFqirItnz1ZePn75AVG0hi6qDg4Py9UZpgtrhkbqhPbdmtQbRjaGh+poiqjb3hhnWa4llixcoTcUz6UqbR4jD1dJE10C6siGqFg6vf9h26s6hsQd5FwQAAAByBlEVACJhVAYAay52BdoVTS088yO1ZI9UCXVl9WWaeqigqDpUHxqUJc31iar23CzZiDLIgqtxFnvZkgRKS5YxuRmplYjoGkhVNkRVAAAAgIKCqAoAkTAqA4A1F7sC6xVZY/aOzort1w5d3395TkkhWarKs88rJ6o2NKPN9Ymq9twUW1ClDFGaakJu8QKlmWl0bpYCNCS5NK4GUpQNURUAAACgoCCqAkAkPXM7mB7fBZ19kFgktMmdbSLHt+AWlfMm6Z5Akyiq+jaquy7cM9MokUJU9atQqs2qiaopNEHt8Hjd0Jpbu6EHdSuJqkGS4FFIzE1u89qFhOeyiqqWDVlBtRweXwPpKxBRFQAAAKBYIKoCQCQ9czuYluYot0hKRKciKaJqRaicN0n3BJp4UdXv04ZvPY46NvwRiKqykFrF6f8NOa4nompUbu36rclPga5/psktjaVqdAItt3VYqqYoG6IqAAAAQEFBVAWASPrqdtBG0URJRFWwUq+aN0n3BJp4UVVY3/vIXZz2DQlR1bQkrdXTPAWqZBk2ucTc5OTWMqxFNHUtt46fgtjcuvWpGplbYuXE5NzEvWe2gIw2lrafuSs8hAAAAEAFQVQFgEh65nbQnLusW8YJUSJy9r+Rw5o851m22VNipGnRtpmY6gB7qCYVQJocalFHpEzC6aZDiKrVQJdyVJOz9dro2XKr5+tN0j2BRruiXRfuyc5MxLZI5hvpy95O2gSiqt8NCKvFqoqq4uoTnwKlTUuTFKJzqw/JEmTQS8s9vSlixpQt2V7buIOxV6ocoT2wKfoBNbdUlROZcxP3ntkCcn5m0avkzUfH8y4IAAAA5AaiKgBE0jO3gyHWsW6M1hOTg+nW1IyRRqPhzqhTS471Is2CrBcim6chqlYBU05KnLerHR5vVRdpZ5eXN0n3BJourmhq4dnBsQd6bCCqrqnVWl1R1dITRnWk0ievSFtvOTfzQ1dd8Sws7Y/4yBGRm/khLfLTXuyVRn6JS9MPaLlFVU5MmZXs3Htmi8nGg9e8ep6YX867IAAAAJAPiKoAEEnP3A6uyUO/bkVVLQfTQC8pJhh/J546TXmCXY2Yqd/gKjY5qe6yN0n3BBr3rghAhhaeDTtaNux4AAAAAKgsiKoAEEnP3A6Guo8QazoUMc0cEFUhN6w2ei57k3RPoHHvigBkaOHZcGLyoVfPW4dv510QAAAAyAdEVQCIpJduB/Up+5JsE3qPixYlI3LocPq/sbCP/dSdiKpM/68iEYKmu94k3RNo3LsiABlaeDY8evri/Mxi3qUAAACA3EBUBYBIeuZ2MHT2WKsNymKS73yulkLEtOUgeQSQHE2qMaFjOpvnO/upw+12wviFqoLcWKiqMlTOm6R7Ao17VwQgQwsHAAAAyABEVQCIhFEZAKy52BW4d0UAMrRwAAAAgAxAVAWASPIblRVtGe2ilQcgU9wTaNy7IgAZWjgAAABABiCqAkAkjMoAYM3FrsC9KwKQoYVnzNTCs9mllbxLAQAAAFmDqAoAkTAqA4A1F7sCbZ09AsHJkPdzVhX2Xbrv1fbuC/fyLggAAABkDaIqAETCqAwA1lzsCty7IgAZWniWnJ9Z9Gp789HxvAsCAAAAWYOoCgCRMCoDgDUXuwL3rghAhhaeMRsPXvMqfGJ+Oe+CAAAAQKYgqgJAJIzKAGDNxa7AvSsCkKGFZ8yOkWmvwvddup93QQAAACBTEFUBIJLc/cERCITihLw7pF7i3hUByNDCM+bE5MM3jk8eG5/PuyAAAACQKYiqABBJ7iIOgUAoTsi7Q+ol7l0RgAwtHAAAACADEFUBACABxufgGDRpcBtaOAAAAEAGIKoCAABAtUByArehhQMAAABkAKIqAAAAVAskp/JQrw0MDjU6PqwxNDhQq4d5hD/8n03CfNWYiFO2EknZ6AmDTOR8NPTU9ty080fFR5eUFg4AAACQCYiqAAAAUC1Myekz7415Ma99cF1O8EsHrooEnz103Yvxkqk5dSn5QWq6quHG0GD7oKa4OlCr1RSF1d+WxUotJjxeK8ngoKbOBsmaGqk4pHlSVT/tKDdE1bJydmphx8j0+ZnFvAsCAAAAGYGoCgAAANVCk5x8RVVekivmp6pVIar2m25q2NBE66GoKm22k5kxajKlJHU5a1mEVZPrhrJ2UTUiN0TVsrLnYsOr9p3nZvIuCAAAAGQEoioAAABUC01y0sRTf0PsMtMLwundtSFFVmuLXYFwpk39brRjBgzdzjFsdSJNim/va+6o1QaD31rt2OswNhPTzjSUSBuajFmrmzFGOuUCVPPU1qahqarHR4uq1twQVUvL+ZlFr9o3Hx3PuyAAAACQEYiqAACQAONzcAxTVNW2m8rIDz7xQryoqk8A160hW9JfaMtoSGP1muNmrnYLURERuh4N6kGbOL+m1KHmGjUyE9PKtHNR1Z6JdgclUVW/kbLOGieqxm5EpTR36dBp58XGg9e8mr8y9yTvggAAAEAWIKoCAEACjM/BMayWqtp8f7FLJPjH2V944dJ9WS6RVS3JNWc4h9zQ60JDzCrYqpp1IluZGlqhxeRTq2HZh2nU4lI9EVWt5q6abNsDS1VLboiqZWbHyLRX83tHZ/MuCAAAAGQBoioAACTA+BwcI830fz/8ynevrqX2qeoLaZKcJu8NhDeLAOcyep2Ely/iOhdV4zOJFVXT+lSNs1QVBV23T9XI3KT0YVaIqiVgtLF0YvLho6cv8i4IAAAAZAGiKgAAJMD4HBwjavr/j28vaKLqjX9+6v188TKMWVxZlXJSVa2mGlarKSaKA4aYqKwT7z7tOjGmwlv9Idin/xuianImkT5VLRqlVbWM9qkaXpfs5VVxTaDd4kRRVc9N82Ug+41FVAUAAAAoDoiqAACQAONzcIweNun2NHRJM9TWZmqtnqRO9Jc9ALhvtNq6WvPiQ/XZnO1uLFSlz6NPyMRQRFWz0+AMyo0yY/RboyuYrUKo2qn9rqYQVfXcpCai+CYI0Rb9GlCVejptAAAAgAxAVAUAAIBq0T/JyVDvKmSTWiAsdqaZHp87iKoAAAAAGYCoCgAAANWiX5KTrsUhqubGelzXqubGpQRRNXdml1aWn68mpwMAAIAyg6gKAAAA1aIPkpM/Xzuty0uAvoKomi87z8149X92aiHvggAAAEB/QVQFAACAaoHkBG5DC8+XfZfue/W/89xM3gUBAACA/oKoCgAAANUCyQnchhaeLxPzy179bz46nndBAAAAoL8gqgIAQAKMz8ExaNLgNrTw3Nl8dNy7BVfmnuRdEAAAAOgjiKoAAJAA43NwDJo0uA0tPHd2X7i3+eg4blUBAADcBlEVAAASYHwOjkGTBrehhQMAAABkAKIqAAAkwPgcHIMmDW5DCwcAAADIAERVAABIgPE5OAZNGtyGFg4AAACQAYiqAAAAUC1MyUmOuTL3xP8p1pnxt185cPXV98f6q1U1hgYHBocaWmy9ZonMF69ItXp7Y6C9Ge5qlra1Q0G6Bu2KxM/I3MSpWohTS0mbVaedKSY3pXStJEqMrbpjy6ZmYDmHpQZiyhZVOVq5IhsGoioAAABABiCqAgAAQLXQJCdve3BkWsR4G4+evlgL1FWR7Pnqy8dPX+ShVRVcVB0cHJTlwShNUDs8Uje059bUTIPoxtBQfU0RVVUxul5LLFu8QGkqnklX2jxCHK5J45E1kK5siKolxutD9l26v/x8Ne+CAAAAQF9AVAUAAIBqoUlOUwvP/Egt2SNVQl1ZfZmTUFV0UXWoPjQoS5rrE1XtuVmyEWWQBVfjLPayJQmUlixjcjNSKxHRNZCqbIiqJWbLyZvejTg7tZB3QQAAAKAvIKoCAABAtbBKTtaYvaOzYvu1Q9f3X55Tk2jmjaHEJk9TNyKaKWu1QdMYUskwOGpwaKjoompDM9pcn6hqz02xBVXKEKWpJuQWL1CamUbnZilAQ5JL42ogRdkQVUvMvkv3vRux89xM3gUBAACAvoCoCgAAcRw4+sN/8Qc/2PhfT/6r7/z9xPxy3sUB6AGJoqpvo7rrwj0zjRppE1VVV5/aJPEgRZRKqmiIoR1m4UXVFJqgdni8bmjNrS0zB7UriaqmEJ2Qm+zvVLuQ8FxWUdWyISuolsPjayB9BSKqlg/vj6Z3IzYfHc+7IAAAANAXEFUBACCSA0d/OPBHfzfwG78z8OtfHPg3v73pOxfQVcEB4kVV35Xq8K3HUcdKv2yiqiaCygsotRW8mOn8Vp2u8NP/G3JcT0TVqNza9RksLWW1VE2TWxpL1egEWm7rsFRNUTZE1XKz+ei4WPIOAAAAHANRFQAAIvnsrsNNRTXg1X/9m29+9GnehQJYL/GiqqaAyJ5VtaWrIqb/N/Gl1KZWFuWd0z1RtX2paURVVbIMqygxNzm5tQxrESqkllu3PlXtuXXrUzUyt8TKicm5CaJqcTg2Pu+F2aWVvAsCAAAAvQdRFQAAInnl2+cHfvU1Iapu2LCBgTo4gCY57bpwz4/x5VSxLZINjkzLCaScJPHMmNMfaGNWZ6BJomr5pv+3aJvlJoqqSqWElxqTW31IliA1Pwuh9aqSSUzZ4gVKqUT2BMaVKkdodzyFra6aW6rKicy5CaIqAAAAQAYgqgIAQCS/tu9sc+J/wNcGfw/fcOAAXUhOUwvPDo49sOwQzjlrtdCnqrpOleIBIOX0fynnUixUJTAk4KiLlSol2iZXyk3yghqKjJLyKe2XajBFbgP6bYuQsJOu1CxgXA3E5xZVOTFlVrJDVAUAAADIAERVAACIZOT2/Oe+fdY3Vv3KV7d95a8moxxNApQIJCdwG1o4AAAAQAYgqgIAQBxnpxY2Hbnhjc83Hrx2YvJh3sUB6AGFkZwUS0PLjHOArihMCwcAAABwGURVACgfmsdDAsH5kPcz5xrUKrgNLbxobD9zd+PBa8vPV/MuCAAAAPQSRFUAKB+5K1wEQsYh72fONahVcBtaeNHYcvKmd0fOTi3kXRAAAADoJYiqAFA+guHiNIHgfEAc6QfUKrgNLbxo7Lt037sjO0am8y4IAAAA9BJEVQAoH4iqhOoExJF+QK2C29DCi8bE/PJAyzV53gUBAACAXoKoCgDlA1GVUJ2AONIPqFVwG1p4Adl8dHzjwWsT88t5FwQAAAB6BqIqAJQPRFVCdQLiSD+gVsFtaOEFBDkVAADAPRBVAaB8IKoSqhMQR/oBtQpuQwsHAAAAyABEVQAoH4iqXYfPvHc1xULz03cWpnIvKsEPiCP9gFoFt6GFAwAAAGQAoioAlA9E1e5CGkWVui1aQBzpB2atyjFX5p6IZ8HbFntfOXD11ffHCn07GkODA4NDDS22XrNEVgqvBmr19sZAezPc1ayc1g4Fqcq0ChQ/I3MTp2ohTi0lbd4p7UwxuSmlayVRYsy7S78BAAAAkAGIqgBQPhD+1iPPIaqWKyCO9AOtVr3twZFpEeNtPHr6Yi1QV0Wy56svHz99UYDb0alIiqgqi6qDg4OydBklmGqHR4mqEbk1NdMgujE0VF9TRFVV+67XEstmlkqOMdVYRNXiMrXwbPjW47xLAQAAAL0BURUAygfCX9fy3H8efaAFM5K6LVRAHOkHWq1OLTzzI7Vkj1QJdWX1ZTHuBaJqpyii6lB9aFCWNNcnqtpzs2QjyiALrsZZ7GWLF1UtWdJvFBO/S9nw3pj/2QYAAADKDqIqAJQPRNWu5TmrqPr1/3E/VlQ9XRt4e6ihbdfF5NVavbWrcTiIeLcepKzV3m79NBITOrlriCM9x1qr1pi9o7Ni+7VD1/dfntPS6JO8mzSkBh8RI83+DtJotoeSmjZUk2Z5S/O+LcqclElwitbxiKqSqNrQZumvT1S159a8TWpGQRmiNNWE3GJFVSNT+o3CsuXkTe/WnJh8mHdBAAAAoAcgqgJA+UBU7Vqe68pS1Saq1t8dqJ22p6m/O9ic7Hq6pSnU/Rg1MaGzu4Y40nMSRVXfoGzXhXtmGjOyhRC5TLemZkxTcZPUVVM4s3ntDA+KsTxVDgwNIxFV9aqL0iu7EVUjcmur2pJoHoiqpu6dkJvsQdXaBhBVS8O+S/e9W7NjZDrvggAAAEAPQFQFgPKBqLoeea5zn6o2UbVll9rWTNdkM1V/1H9aOUpLTOj8ruX9zLlGvKjqu1KN8nuoHxjqXYYzTZ+kmEBsi7ZUjYvUkHx6Rs5wryCmqCrieiKqRuXW1k2D+2u1VE2TWxpLVSUB/UZhmZhf9m7NxoPX8i4IAAAA9ABEVQAoH4iqXctzaSLTTf9vhsbQ2+0Z/U3Z1J/1bz1KTZx3PZQrII70g3hR1du4MvdExMueVbWlqySBLFC1EFWLiE1Ubd+GNKKqKlmGty8xNzm5tQxrEbdVyw2fqk6x7dSdPRcby89X8y4IAAAArBdEVQAoH4iqXctz1sgHy1Oxyeqt8Xpru/7ugCGV6pP920EXVaXE+VdFiQLiSD/QanXXhXvCTNuXTVXD7bXBkWk5QZiRZdJ/F9P/jfWLQoec3YqqTP9XiBA029PvE0VVxUOqdPOic6sPyfJo4AxXdqgrNNCI26qULV5UlUoUQL8BAAAAkAGIqgBQPhBVuwu/fOCqVbNLjGlpqf68/ndDn6rKslSqBwBt+r+ZmJA6II70gy5qdWrh2cGxB0a08IpZqw0qIpexCFXUQlWSWCZS1WqxlqpBwviFqupieSsWqoqyEjUV5yjBWlpZLNoEWMrNXE8sFFXX1P0RS2ZF5GauV2YrMP0GAAAAQAYgqgJA+UBUXadC14lDVULOAXGkH1Cr4Da0cAAAAIAMQFQFgPKB9keoTkAc6Qeu1KpiwGi1XIVq4koLd5YDR3/4L/7gBxv/68l/9Z2/n5hfzrs4AAAA0CWIqgBQPhBVCdUJiCP9gFoFt6GFF5kDR3848Ed/N/AbvzPw618c+De/vek7F9BVAQAASgqiKgCUD0RVQnUC4kg/oFbBbWjhReazuw43FdWAV//1b7750ad5FwoAAAC6AVEVAMoHoiqhOgFxpB9Qq+A2tPAi88q3zw/86mtCVN2wYQM3CwAAoKQgqgJA+UBUJVQnII70A2oV3IYWXmR+bd/Z5sT/gK8N/t7mo+N5FwoAAAC6AVEVAMoHoiqhOgFxpB9Qq+A2tPAiM3J7/nPfPusbq/5Pb/wfX/mryeFbj/MuFAAAAHQDoioAlA9/uEggVCfk/cyVG7HQ9q/98Zl/d+rOGpITuA4tvOCcnVrYdOSGd4/+l4PXTkw+zLs4AAAA0CWIqgBQPhguQnWgta8TbaHtgf/2Dx9NPqRWwW3K0sJz/15FIFQ25P30AwA4AqIqAJQPXgehOtDa14m20Pb//L/95hf/+z9Rq+A2ZWnhuetKBEJlQ95PP3RA7q2FQKh4SHhCs+kIAAB6SJreDcANaO2dsvx8dWrhmfhpXWjbrFU55srcE5HG2xZ7Xzlw9dX3xzq5HfXawOBQY50X1JNMUtAYGrScKKuz9xfvKmr19sZAezPc1bzA1g4F6bK1ShA/I3MTp2ohTi0lbda2dqaY3JTStZIoMeYdKku/EZQzf+/VBEJ1Qln6BxDkrigRCBUPCU9oNh0BAEAPSdO7AbgBrT09o42lHSPTGw9e237mroi0LrSt1aq3PTgyLWK8jUdPX6wF6qpI9nz15eOnLzq5HTGKZHqxMl9Z0z1RdXBwUJYuowRT7fAoUTUit6ZmGkQ3hobqa4qoqurX9Vpi2cxSyTGmGluafiMoZ/4yE4FQnVCW/gEEdJUEQl4BURUA3ITXQagOtPY0TC08E1KpF7acvCl2yQttf+Wr2/yFtrVa9S1bzXp+pEqoK6svO7wXiKoFQRFVh+pDg7KkuT5R1Z6bJRtRBllwNc5iL1u8qGrJsiz9BkoBgZB9KEv/AAK6SgIhr4CoCgBuwusgVAdae0o2Hbmx+ej4nosNee6/j1hoe2Ow0La1Vq0xe0dnxfZrh67vvzynJmlqW7XaYNtQMJzTLUl44dRusUeaux3qbPLvMGZwaChC1tRsFf1tIyNbkcICR2WYfPZyoYqqDW2W/vpEVXtuzVusZhSUIUpTTcgtVlQ1Mi1Lv4FSQCBkH8rSP4CArpJAyCsgqgKAm/A6CNWB1m5yYvLh9jN3NfF0Yn45fQ6Joqpvo7rrwj0zjRopa2eKGhZhr2iVyawHynJralFV9dsZlXOESqoIgklnLxe6qBqtV3Yjqkbk1lamgxsiiaqmdp2Qm+xBVdfrRU6IqgQCIU0oS/8AArpKAiGvgKgKAG5i9m5yTAeLzLQGqtoA2h/lWu2Iyo19FZrY5KIWQo1F/LQoAbmUMwVWYSt6eZk1RcGwLBNjWcQmZnmZeC0mppBtGPwIvMd557kZ3+ZUtiHtgnhR1e9Dhm89jjpW+mWx7lQtUs1li4w2YB7YiJmfbju14spTSh1fpKgMU529XJiiqojriagalVv7FgRLS1ktVdPklsZSVUlQln4DpaAn4TPvXU2xyMb0nYWp3ItKKEIoS/8AArpKAiGvgKgKAG7Ss0VmKiWqJmB46Gv/8iWBWk1RWDV5Qh/PFwy7HhG5WI1iyadJvJGCS7rlZRBV18W+S/f92nj9w4lDYw9ml1a6zipeVBXfY3xkz6par2Joo1rPIWudwvTTKqqqB3Ytqor8/E4spkgWKiaqtmsnjaiqdnFhrSbmJie3lmEtolvQckvqMfCpWuGQRlEtXD03Dg8OvD3UyLsYVQ1l6R9AULhHmECoTEBUBQA30Xq33i4yg6i6ZlFJpUnFdWUJ63YyfdJxoYjQI+wLwhjihG6yG2HFlmp5GUTVDlh+viormx6zSys7z810NM0/Cq1Wd124J5u3G0rEmv/ZRrZ/D9CUTdONpuoGIFTpEw9MnIAvNU0jg+DZjC6ShUpN/2/RtuRNFFWVepQM96Nzqw8ZH2bCXjK0XlUyiSlbfI+hTSVoUpZ+A6WgV+O9zkXV07WsZc3sz0iwh7L0DyCgq8Qen5BXQFQFADeJtzKTYxIWmZEsVS3TZF1DHboPyVP46+qyOablqSIHKOKhZn5nOV38qdeMlXQs06Kl1XKsOXS6zk89ckEYi2WffG1xU4MtuSGqdsX5mcUdI9MbD17bdOTG8vPVfpyii1qdWnh2cOyBEW0Vwsy59qI51mrSl4iwweoHhg9l3FJR4sFt2pJrj7L+IHQw/T/l2ctElJWoqRpH1Y9Uj9FmvFJuWqcqlyH4peeXLjez07YVuCz9BkpBT8Z7/3n0gRbMSERVgghl6R9AUPGuMm97/KDvKruJfdnLn1NAVAUAN0kUVdMuMiNEVX98Gkh6FRBVZeHG1BpMu9MkUdV+iFVUNU6tHxpvLpdU+FTr/JjipnXi81pwxbKZbqSoGrsRldJaXQpVG/y8/uGEeDl+4/jkeub4x1C1WoWqUZYWXnGloFfjPauo+vX/cT9GVJVE/9O+ZFCrvT0w8G59bVr6NHO6lbglKAy9G0j49VZkXfqS2czQOEpLc9o8Y3ts3xznK1mlPCNhPW2mFP0DCCreVXZrj9+r0MMPQnzNKl9AVAUAN4kXVcUiM5uPjkf8xQ0IRFVZSHV3+r9V0YuK7FRUtRq3Jp5FGIfKgqJV30zOISR5nR/VIk8231uHpaolN0TVztkxMr3pyI3dF+71ZJp/FCWsVcVWsRddVM8zhAJRlhZecaWgV+O9dVuqnq6F2qWZoKWH+lJp/V1feG1uhOKp9ah6y/FFPfqMYeZtkTS0ourojISOQ1n6BxBUvKvstpfrVUBUrXRAVAUAN4kXVQcCp4eaioqo2hNRVd6U5Mb0lqp2gVKq9u5E1Y7W+ZFjtAVhuvWpGpmbNjfcPge5mqLq2amF7WfuHhuflyP7ZJqq4XCtAqyVp4VXXCno4Xivcxsuq8TZCvV3g28tQuI0UrbMSxXNVDuqmaAlhsafUU3WepNIfUbC+tpM3k8/dEDFu8ru7PHbvUf9cOANLOg9Qut4v/OxmsaHyQaHDtf0zjD9IVp5dIN9pggUPyCqAoCbaL1b4iIz5kabQFT1FT3Z6LHaomqcT1W7Mhg/a75eG0gSVaU8Eqf/270KqOdPOf1flHRAcWyoqKg2K1p7xVpyk4+XMq60qDq7tLLnYmPTkRv+pb350afZl8G9WgWQKUsLr7hS0KvxXprItKJqqHJ6Y+loUbWVSWPo7fZI2zyq56Kqdsa8q73UoSz9Awgq3lWuwx7fewk/3FjTDOGDLqX+bks6tJnGS0b0rW7HFFVTHjJtFIkpAiULiKoA4CYpXwfTi6rBpttTYRPMRevSsjmGRlq3LrESRpmGqlKycBUd66mlz6ymg9Tge+lQfOE7XOfHoufq2qm9JaQQVfXcota3CTGWnVGyc2/wI758vP7hxL5L97MxTdVwr1YBZMrSwiuuFPRqvGeNfLA8FZssQrj0htAxGoQxk7Qx9HZzAG85qruxvWQ4Fn/GvKu91KEs/QMIKt5V9sIeP/hmI1loWuw35e89fp+m5GNuJB4yHV0kpgiUIyCqAoCbdCSqxk3/hygslqc9S91leZwUulPgQKM9O7WgxewdnR1tLOVSGB8HahUghrK08IorBT0Jv3zgqnUQmBgTfEnVNIVgsufgu7UYS9VwJC8MVLWjpuW5rspM1chZqFatIeqMhO5DWfoHEFS8q+yFPX69NZDoRHbMUlRlikCBA6IqALhJp6KqbKbKe2RK0suYynT5/mBO768O5W2052cWd4xMbzx4bSBwc1wcylurAGkoSwuvuFLQ2yFfJwZchEqHsvQPIKj4U7wOe/zAylIxhO/MiD5i+n/KQ6aNIjFFoGQBURUA3ARL1WpgTumvIiVttNtO3RFP3OsfTuRrl2qSfioZgVDekPdzlkxQzvxHTQRCdUJZ+gcQVLyr7NYeX6wENaAYWsoeAKKm/6+F1vGRC1WlOkQPTBEoXUjTYSKqAkD5SPk6uPnouDnI9CIzKCFAryjp4OfY+PymIzd2X7g3Mb+cd1ks9ECx+k9/MvD7Rwb+4KOBd3+cu3ZGIFhD3s9ZMkE58x81EQjVCWXpH0BAV5nuT552VNQc/P4HyzR8QllDmg4TURUAygevg1Adit/az04tbD9zd+e5mbwLkh0Hjv5w4I/+buA3fmfg17848G9+e+C//cP7V+byLhRA+UApIBCyD8V/rwANusquQm6iastr2eGGZDRacWPPUgdEVQBwE14HoToUtrU/evpiz8XGpiM3/BJueG9s+flq3oXKiM/uOtxUVAN+5fU3v/Df/ynvQgGUD5QCAiH7UNj3CoiCrrKrkLGoWpe8lqGfuhMQVQHATXgdhOpQ2Na+/HzVX4Rq89HxfZfuTy08y7tE2fHKt88P/Opr4t15w4YNxbxHAAUHpYBAyD4U9r0CoqCrJBDyCoiqAOAmuTuqIxAyDnk/c02Gbz2eXVqRY05MPizaClTZ8Gv7zjYn/gd8bfD3cNYM0AVB/5b/qIlAqE4oznsFpISukkDIK6TpMBFVAaB88DoI1SH31j7aWNp5bsaf5r//Mp5Dm4zcnv/ct8/6xqpf+eq2r/zV5PCtx3kXCqB85P69ikCobMj76YcOCG5Z/gITgVC1kKbDRFQFgPLB6yBUh3xb+75L98UA7PUPJ05MPsyrJPmy/Hx1z8XGjpFpEXN2asEXmjcevFbZagFYJ/w1B8genrvSgahKIOQVEFUBwE14HYTqkG9rn5hf3nTkxu4L97yNvMqQO6ONpdc/nBhoLcZV5XoA6Dn8NQfIHp670iFE1dwNnAmESgVEVQBwljS9G4AbZNbaz88s7hiZxjeohrDVffOjT1FUAXoLf80BsofnrnQIfSfvggBUDURVAHAUXgehOmTQ2vddur/56Lj4KlvNtaeiODY+v+G9Ma+K8i4IgIPw1xwge3juSgeiKkBOIKoCgKPwOgjVIYPWvnX4tneKzUfH91xsTC086+u5ygh1AtAntP7tR9P7CARCn0LUcwfFB1EVICcQVQHAUXgdhOrQ89Z+YvKhZovq/Tw7tdDDU5QarzaWn6/mXQqASoCoSiBkFqKeOyg+iKoAOYGoCgCOUpjXwXptYHCosbbWGBr0N6x707D+HEpJlxfYrK1a3f/fp/lLyrRFM+eIE7SSyMdoCYMs2rkoEUp8Um7a+aPi46qiV639ytyTnedmNh685uW2dfj2+jN0j+Xnq3suNrz68Soq77IAVAJEVQIhsxD13EHxQVQFyAlEVQBwFLN3+8x7Y17Max9clxP80oGrIsFnD133YrxkPS1IvCa4fkkUUdVGY2iwfVC9Xg9iAlHTyDFMrZ13cFAWQqXjmhqpOERTu60FjsmtKKLq+ZlF4TL19Q8nDo09WGeG7jExv+zVjF9Fey66/NQBFAdTVPVjfA3oj699T3Rc3rbY+8sHrmx47yciWTOcfmtgYOBLh/9QlpC+d/gLXuQ7p/MXs5wN9W98aeALu+tp0zfvyLvfbP9s3rK3viX2tu6guInfele/m1mWM0X45jt6hl7MQHh1ZprgAuVr1JAuOSY37dRR8ZaYqOcOig+iKkBOIKoCgKNovZuvqIogElh/9vQ9ElF1nXRzgTaV1MvHlzTrNavmqZiRBuetyxmJkkgCrThfGBEpqkbkVhRR1ePNjz7deW6G9eutLD9f3XTkhq84s04XQGZo/Zu3/eWh00It9Ta+f+s7PwrUVaEN/eXUn3z/Vg1RtfBBFfXq3/jS29/4XnP7D3e/PTDw7lvvhKLqN4NtcYiXprcyaD8vLYj50ttye5PSNNunSN+8fFU/Na80JjdE1SqCqAqQE4iqAOAo5jBMFk/9DbHLTK8QzCAfHBqSBa9abdCf0R3O+xbCWsQhbUXMsleep27oe22ScnAEbcJ+IEeqE+qNOpfvSIKmOlCrSbP/g3PqR7RrWzVPFZ4ctFskHx8tqlpzy0NUHW0s+dP80U874tj4/J6LDbypAmSJ1r8dmDjwo5aWqmlY37/1HUVUvfsnZhozIKrmHRRRz7sdqur9zVBUPf2WsMoMk0mRxQsRCuZpIRzvUwVitR02LWdlQdkuqkbkhqhaRayiqnwfr8w9EbYj3rbY+8qBq6++P6bc7tZLtvbG6b+dR4xQoBfY/bzFJpctOrTpcKqDsl6OFTssZwqsQ57SOGFDVAUAZzFFVW3b+3fzDz7xQpKoGv6Zar1PhF23TbcL99oOid8b9PaRf6vic3AD8+KlNzvtjaG917wjit1pW6NVXjsC1wA1+yFGzuqGRYGVX2ziRNXYjaiU5i4dufUuP1/ddurOsfF5S7qWLCgmsHth/+U5azIAgIJg9alqCqZezL//+5Ni+9XvXfqP504oaSRLVV9LFSCq9jOoit5heQp/awK7T1MbNS1PQ1FV0VuFllqXJUXtdPGn3tc2hg0bgHRgU9D0U34jNocwZeimwHKsXjbJcUFwUkVC3RcUz7yQdLkhqlYSU1T1fg6OTMtGJI+evlgL1FWR7Pnqy8dPXyCqFh51FBAORlp3pmkvIg91hCGJmGNX5NGifchTFidsiKoA4CxWS1Vtvr/37+aj49ouL/zLIzfCjBoppmyHX8dM0S1ekrMbP1omo68l5eAGFiNQ+QK1P6hRX2Ft9Sf+ANdtbx2Wtw1Tce2Bpaolt16Lqvsvz+0YmfaC17ZNadXb66XcdOTG7gv3MFONZ7SxtHX4NnapAPmSKKr6Nqpb//ZvNDlPjxSiqu+5sqXK+T4rEVX7GWRFL/ABGjpL1TRQTVhMElXth1hFVePUupWrkthvEi3xPV3hT78lZGLjWOsp1A2LOizbrsaJqrEbUSmt1dUMUc8dFB9TVJ1aeLammpX4PFIl1JXVl2nuNaJq3iijAGPcIg1vpE1pjQn72LIYRAx5SuKEDVEVAJwlzfR/04mqxadqoqgaduVBUkTVrkkpqpp1niiqymKmRVSNsVQVxVr3n/PI3NQvz/rnZWsmCqLRLj9f3Xx0fHZpZa31Mv1/np763AfXZWnV2zV867ElC1DZd+n+hpYjZhakAsiXeFHVd6X6X0Z/8LnDH5ufSK0+VWUhlen//Q9WRS8qslNR1WrcmngWYRxq81taT5xQr+QQ4hXJfqytbO1L6IGlqiU3RNVKEuVT1byPXsze0Vmx/dqh6/q8JclSVXJONoCo2mfUMeOQPIVfmt3evAdWWxCbnYiIjnZ0lnTqNbtnNnWP7u9Oz8HIw36sXjbVJmW9pi2W3BBVAQBiiJr+/+PbC6aoumZTXQPi5/JrX85ipufHT96vq9P/rS8t8Tm4gXX6v/GX0l7nsmop7k7d0Dpt2mjCq4b4wy/bydocCpgHpsitXrNm3I2o6r0W775wT941tfDsd//u7psffWo5DGxMzC971eVX6Y6RaX+uHADkRbyo6m388bXv+RvWT6ShfoSomk/ojahq96nagaWqXaCUGkB3oqp69vSiatsQdd0+VSNzU5f/stgF23OOeu6g+KQRVX0b1V3qi6KfRokUoqov5QVCGqJqn1EGeqGJhcXYwmoLEiuqJpiPxJ5aPzR5SBtX+PaCwfGDWXPUZjUtWguuOE8nbIiqAOAsKV8HU4iq4ddB+6pT4Ye2Wm1Q1saiD7Hslb/gRXXZSTk4QvgxVv8cquqhap1HTIqxLv8lIi0mq3IxlIrV/+Rr34yjD0yRm1RK5T0oRP9MrbYSv9H6Zqr3Fp9p5zaVVohhauHZhvfGNh25cXZqIe+yAID+R3nr3/6NEEx9M9X4T6ShfhSIqr6O1lLl2l41EVX7GdKLqnE+Ve3KYPys+eYdTxBVfxRKtInT/+1eBYyVtdJM/xdXNBCmCb0KmDkniqp6bs0vB0HNNLdDbwmIqs6SKKr6rlSHbz22uj5TbncgqspCKtP/+49V0YuK7FRUjXV0Fn9qyxAoZupkZA4h+qLCsQpmvehO2BBVAcBZOhJV46b/y0TakELB6Mwhe8HdtyczEKw6ZYqnskMASMn5mUUMVAEKgtVS1QzpRdUfBa5UBYiq/QwJ5qLte9FS/ZQ5/u1kkino6bf0+6X7RVWSDbz7VtypRTKbg1R/h75QlSnLyh4AQo+r2rFmVbSDLryGRdLaZApRVc8tXIZrQDGeDdHXCmvFRD13UHwSRVVv48rck7U0Yx9E1Xzojagqb8pz91JbqtoFSqkBdCeqqmdPL6oW3gkboioAOEunoqrmE8CaWJvm3WcUs0ReYzolvQCuTOUvJ36jff3DiX2X7mu7MFNNA6IzQGHpSFSNm/5PKH6wWJ7GBNOytQ/l0d0LOB6injsoPqaouuvCPdET+maq8Xb9YV6BqOrraLKpYcnflwtOelE1zqeqXRmMnzUfDnEjRVUpj8Tp/3avAur5U07/FyUdKKwTNkRVAHCW3lmqyjMWeJeAIuI32qmFZztGpjcfHRcrU2GmmohXOVuHb3u1hGkqQDHpVFTVPpHmrlIROgpNc0vT+NQWpFnt/QryJPqKhKjnDopPlKVqdMpkUXUNE49MSTAXbd+L1j0wNFLVEDW4bQmLIIu7W6vFnVpzzJbgjy5CljXH03G+7MrkhA1RFQCcJeXroNWvkBeZQQkBeoXc2mVpFTPVeLwq2njwmld1m47c8OfEAUDRwFKVkG2QJs5XzEz1R4iqZaZTUTWt6zMoJkVzdFZpF3mIqgDgKLwfQHUwW7svrW48eA0z1Sj2XGz49eZVFGaqAIUlpaj6ucMfm59IvcjcVSoCoUQh6rmD4tOFqJrG9RkUlkI5OsvWRV7RQFQFAEfh/QCqA629CybmlzcfHT87tZB3QQAgDvo3gOzhuSsdWKpC5uAizwdRFQAchfcDqA60dgBwFfo3gOzhuSsd6UVVXJ8B9BREVQBwFF4HoTrQ2tNwbHx+tLGUdykAoDPo3wCyh+eudKQXVQGgpyCqAoCj8DoI1YHWHs/s0srW4dteFb3+4cTy89W8iwMAHWBaVBEIhGxC3k8/dEBwyxBVATIGURUAHIXXQagOtPYYzk4tbDx4zasf799j4/N5FwcAOoP+DSB7eO5KB6IqQE4gqgKAo/TzdbBe8xc4bLrnru5Kh2AjaBsdIlbwbK6e2SLMJYjyY6wnYPATw5sffepVjvfvxPxy3mUBgI6hfwPIHp670iFE1dwNnAmESgVEVQBwFrN3+8x7Y17Max9clxP80oGrIsFnD133YrxkSXl3KZxBBeiqbTSGBv2DGkNDdS0fb8NfT1PEiNQhaf6WO8zE/PLe0dntZ+76+umeiw1t775L9/MqGwCsk4r3bwC5wHNXOoS+k3dBAKoGoioAOIrWu/mKqvRNaS3mZ1K3iKgKUXTTNiwqqYgTmqqcTIr0qc7gZ7SxNHzrsRfkyGPj8/LDu+3UnbyKBwA9pzr9G0Bx4LkrHYiqADmBqAoAjqL1bpp46m+IXWZ6GTEjO1CyZCvCUOZS0zTncysRUHiCKfgtgntrvfu12mDwW7vRrcPq7TghlcZmYtNUA91U2Se0VOMI5wc/o42lzUfHhWy65eRNee+VuSe7L9zbf3nu/Mzio6cv8iokAPQD5/s3gALCc1c6EFUBcgJRFQAcxRRVtW3v380/+MQLiaJqgKmlmmaJkhSHmFo6pLtm3ED5pou7bnrVbcmnYUKtEVgzsbQV+1T/MKF+iAODn0dPX5yfWdx/eW73hXtbTt7cOnxb3jsxv+xf4xvHJ7eduuMly6ucAJAxDvRvAKWD5650IKoC5ASiKgA4itVSVZvv7/0rm7+J8C+P3FDyCu0Mo0VVLU3LfhEfAWVDcmBqsTI1bnpDsW0NUstHRjQPPZmciSLURoiquqlq6QY/s0sro40lOWZq4Zn8DG48eE075MrckwwLCABFoXT9G4AD8NyVDkRVgJxAVAUAR0kz/d90omrxqRoKZ0LJMkRVS5rgUKb/lwr//oV3Me7upxZV4zNRRFVjYr/Vp2ppLVW3n7m75eRNv7QbjBXhtg7f3nluZu/o7PmZxYn55VxKCABFw+zf5Jgrc0/EH27/04u//cqBq6++P9bfjtGcq9AEr+vQH+ztLTa5eFPQps4EH3qjZl2tlee9AgSIqgA5gagKAI4SNf3/x7cXTFF1zaa6tpFnYkdZqlrStLH6y4Ti0rxhtdqg5AUg8u6vRUz/N0TV5EyiPQGEoyJVzC2wT9Urc0+Gbz3eOzq77dSd5eer8q5NR274RfU2tpy8Obu0klchAaAsmH/NB0em5U+hvidlX10VyZ6vvnz89EUeHSOiKuSC2vDUj8MDtVpNUVi19wrLu2qh3isgDYiqADmBqAoAjpLydTBZVBUrETW1tqjp/0YaY2UiKAn+8KOu/LTffR/tTlun/ydkIkYz4aJX8jpXwRmURbTUZlWcwc/rH07Inyu0OftnpxbOzyxqSisAQAxa/za18GxN9ZPu80iVUFdWX+bUKyKqQi7Y3yukvRaf8WGyAr9XQEqsoip2/VBFsrXrR1QFAGfpSFSNm/4P0G86s2fO2aLk0NiDPRcbW07e9P0Ra65Rt52688bxya3Dt/eOzh4bn/ctyAAAusbav1ljvG5HbL926Lqxol3sR68ByWe1EtFMWasN2j6Rat5g/HHXEDIB9Af1i/6QPNQPv++22qn5nhDhlF1EF3sGDKTBFFWx6wew0WO7fkRVAHCWTkVVzSdA/wsIEGLxzhqB9gHVpx+NdnZp5fzM4r5L9zX3pttO3ZGfmrNTC709LwCATKKo6tuo7rpwz0yjRka4Z1F6VGWBQSFXRYz7ZZEr1KZYpRL6g9LewpG+6SPI4ksoSVQtra92EJiiKnb9ADZ6bNePqAoAzoKlKlSH3jbafZfub3hvTDwLh8YeyHvPTi34a0n5L+sAAH0lXlT1Ta6Gbz2OOlb6FbWQoDq6kp2wNAdOMcN+KRNFpkImgH5g+p6KiexUVNWFBV6GS0eUT1Xs+qF6ZGrXj6gKAM6S8nXQn8KsBS8ygxIC9IpOBz9TC89OTD70Xqm3n7m75eRN7WV636X7A8FaUjvPzZyfWex1eQEA0hIvqmq+m2ULLG2Ka4RM0MQf47eHVxY1ClEVikBvRFW77RWWquUnjaiKXT9Ug0zt+hFVAcBZeB2E6hDf2k2r0v2X5+SvCDvPzch7Z5dW+lVQAIAO0fo3b+Qvr7WifRP1Evg+BEUCKSdJMTXG/sHYyRQFUoiqyASQBelF1TjbK+k5UI0H8alachJFVez6oTJkatePqAoAzsLrIFQHs7V7r85iLSkvbD9zV957fmbRX0vqxORDbaUpAIBC0cVf86mFZwdVvyVtxLS/5koU2kRAWXLqUCaQcmZCK/SNeJkgaIOthhznJTBMKkUZwgJv0aUjUVTFrh8qQ6Z2/YiqAOAsvA5CdTBb+9mpBWGr9eZHn+42pnoBAJQC/poDdIx1hepOUvPclQ5TVMWuH6pKpnb9iKoA4Cy8DkJ1MFv78vNV1pICAAcozF9zaXUL1cgPoIBY7AgjCFUuicI8d5CWKEvVeLDrBxfJ1K4fURUAnIXXQagOtHYAcBX6N4Ds4bkrHd2JqgBVZ912/YiqAOAsvA5CdaC1A4Cr0L8BZA/PXekokqiKXT+UiXXa9SOqAoCzmL2bHCO7FvK9CPnbrxy4+ur7Y71/j2z21uY0BGsCGTy4lxb7DY1NLv5Ia3+xw3lSkQ2IwQ8AuAr9G0D28NyVjiKJqgCVAlEVABxF6928bd8du/j56OmLNWO9y+erLx9Lq2H2gY50UkRVV1HvbDiVpOWequm+SlZYNRfpLCgBABWC/g0ge3juSgeiKkBOIKoCgKNovZu/Yo/Z3z1SJdSV1Zd9folEVIU17c7GuUhXl6AM/aurc08Y/ACAq9C/AWQPz13pQFQFyAlEVQBwFGvvZo3ZOzortl87dH3/5Tk9r3B1S8lmsN6O9KLEfnl9QdWPkHUVQhkpPsiOZTHLjHrHh+Qp/JKrqWbzMC1PQ9FU2SeijSMY/ACAq9C/AWQPz13pQFQFyAlEVQBwlERR1bdR3XXhnplGjZTkznotFMWEYia0VIvzalNLTRRVw1xa4iqiaklRbmioxutz+dcsdqeJoqpxCIMfAHAV+jeA7OG5Kx2IqgA5gagKAI4SL6r6rlSHbz2OOjb8EZqpCtNCTRGzbYfGiB2KqrqKhqhaUqx3PCqyU1FVN1Vl8AMArkL/BpA9PHelwxRVfzS9j0Ag9ClIDx+iKgA4Sryo6m1cmXsi4mXPqtrSVeq67D5Jomp4iBC/EFWrRm9EVbtPVSxVAaAymP2bHOP/yfaD/2fd337lwNVX3x/rfcfY/PvO32V36fD+Km+I2nSles36aT2XcqZALyDvFaUDUZVAyDJIDx+iKgA4ita77bpwTx53iW2RbHBkWhuYBTTfi411hGJFVXmddqb/V5T0omqcT1VpxKZ63cWnKgBUA61/87b9v9fi56OnL9aMD6LPV18+VheiBFg36itc+Le49b5Wq9UUhVX7223+rS8UiKqlB1GVQMgySA8foioAOEoXr4NTC88Ojj2w7JA9AKSa/i+WmqrVOrVUXZOtG1ioqrzEi6rBTW6NuYyRlmqIGrSHMMqwbWXwAwCuovVv3l/qNduyk49UCXVl9SW9IvQa5RUu7m+3dZaJOS+lQCCqlh6rqOpH+hrQH1/7njAf8bbF3l8+cGXDez8RyXoW6t/40sAXdtfzF78IfQkd3t/vHf7CwLvfbP88/dbAwFvfEnubP5t86fAfej+/9W57I5dypgjffKeVofTwIaoCgKPwOgiloTP7FUtqWjsAuErispMiZu/orNh+7dD1/Zfn1CQt2agefPQMP2M2v3+G37jCL6iq95+26KROGpC/t0qJ1G0lUyg26gfRIXkKf+gsv3Uj42aZ2P2hW/56R89lUU69ZrQiSzuUvsRbc7C1RMuxbXivKB2mqOr9/PLQaaGWehvfv/WdHwXqqhCJ/nLqT75/q9Z7UZVQ6dBWHts/69/40tvf+F5z+w93vz0w8O5b74Si6jeDbXGIl6bIcjyiKgBUhmK/Dkqv5oyzwOq5NwLNaZtPsVs7AED3JIqqvo3qrgv3zDRqZOsvr8U5jyKwis22gqqbHlp89dhc/UjbhbZPBA3l/oYz+E0/PN0sMmk9xCqqGqfWD433GZVUeL95x/qb4r2idJii6oGJAz9qaamaKvT9W99RRNW7f4KiSuh1UETV7x3+gmp8+s1QVD39lrBgDZNJkcULiKoAUBl4HYTqQGsHAFeJF1V9V6rDtx5vPjqueUs3DlQmOBsiqerqJ/T2EwhS4RRubUXKiNyUlLjyKQu9WWQyQlS1GrcmnsXaiuJXN43MQWnesSuj8l5ROqJ8qpqCqRfz7//+pNh+9XuX/uO5ExbZ6PQ3viRNyvYj33n3C+2J2/X23tbPpvnhO6eDw0+/NdA0S5RktTCxSCaLbrKJopaMUNgg7lpr47A8hd+LCWhqo6blaSiqKnqr0FJDy1bzdPGn3me0Iks7/NLhb8TmoDVv+7HSw4eoCgCOwusgVAdaOwC4SryoKtaW1FTUJFFVaKKaqKrblPq6k6Q+dS6qiryZllICeiOq2n2qdmCpmtiKuhNV1bMjqrpFGlHVt1Hd+rd/owlkRmRLFPNVrdAlZTNSFljbQtXpt5qRkmnht97VxKzmgW2RVMnN0MgKbZ9I0IJyf9s3LnSWqt1fyYOqGmMXVe2HWEVV49R6K7K0w6aD15SF95u37Vjp4UNUBQBH4XUQqgOtHQBcRevfdl24JwRT30xVs0s1NwKkmf6hwKTJT4ZJaVN4qtUG5VXdrdP/w1nU4VRvNbOCr/4OLdKLqnE+Ve0NzNICrA0mUlSV8kic/m/3KmCsrMX0f3dIFFV9V6r/ZfQHnzv8sdWuP0LAMkVSxfI0sEaUPGO2bQyD9M3EoUBmyU1J2dNFigh9DKq5qNWGtHtR1WrcmngWayuS4kPr1+QclOZtO1Z6+BBVAcBReB2E6kBrBwBXSdm/pRNV/TWpZF/mqmglT5GWFFNzvSo1sTotu314LfSpquYIBSbBXLR9M4NVzQyNUrrFwX037Zn1E2oNJsozr9KKFAepQSscSrB1NZu35dg2vFeUjkRR1dv442vf8zesdv0RApaY2q+JqppM1lbHJI2sc1E1yIfp/2UIvRFV7T5VO7BUTWxF3Ymq6tkRVQGgmvA6CNWB1g4ArtKRqJp6+j/AuunM9rj/lsrpl7xMAe8VpcMUVbf+7d+IntA3U42361cFrMDWLxSYNPnJMCltCk9vvfO2vKq7dfq/n0Byw9qcdq2YJRrrGhEKGNKLqnE+Ve0NzOJT1dpgIkXVH4WtKHH6v92rgLGyFtP/AaB68DoI1YHWDgCu0qmoKmsEiKrQV9LLmJK3iH5h817RPbxXlI4oS1UzpBNV/TWp5DWjVNFKniIdTtkekNxZWt0FSDmcfis4/K3Qp6q2OhChuCHBXPRb74Ztw1DJVUPU4L4ra52Z3nXNBhPlmVdpRYqDVH+HvlCVKcuazds4Vnr4EFUBwFF4HYTqQGsHAFfBUhUgGovHip7Ae0Xp6FRUTT39n0BYd7BYnsYE07K1D+VZt3AvPXyIqgDgKLwOQnWgtQOAq6Ts3zYfHTfXXfEiMyghgHvwXlE6uhBVNbt+KQ2iKqHHoTlr3jQ+tYWmiWu6lF2H5ik6EHntQXr4EFUBwFF6+TroO/IfHGo0DQKwcwFBl3ZPYsKgWHlCXk5YMznRYqynZPADAK5C/waQPTx3pQNLVQIhNrTcU/TOv4T08CGqAoCjmL3bZ94b82Je++C6nOCXDlwVCT576LoX4yVTc+rUERYTDKtDV/daLFbRGBoylp82Fwc2YiyLXTD4AQBXoX8DyB6eu9KRXlT93OGPTbt+LzJvzYtAKFOQHj5EVQBwFK138xVV62wX8+f6vLAhqlaHbu61bQHgMK5e03eaMabOyuAHAFyF/g0ge3juSocpqgJAJiCqAoCjaL2bdaVLsctMLwjmZ/vimRDRmhu12mDLhjWcn12ri/ncVuvW1uFDNW3Gd3hM+5BWsno7V/kEobomn7NXVVYxlDV7gxtrvRfBjV4z6l25U/E3VGotpg4rVNIw/yCRGWPRZRn8AICr0L8BZA/PXelAVAXICURVAHAUU1TVtptLWPzgEy/Ei6qqNaIsqkZN2I6xXmypbX5ii1MBJXNzUzpEOoXFjhHSId04w/TTdqPXTJe62p2Ku6HhDTN0cFuLMeO0dqhkwuAHAFyF/g0ge3juSgeiKkBOIKoCgKNYLVW1+f5il0jwj7O/8MKl+0+knKJEVcWUUBLA4kVVMyvZstHI3LotLV2Ereo6ENKkpEzH3IuGYtsapO7ihsqZRK59Fquq6qaqDH4AwFXo3wCyh+eudCCqAuQEoioAOEqa6f9++JXvXl2zqa4BSaJqC1/nDKeEpxdVQ6lOKGVpRFWU1B7g13ioUMbfi5SiavINFZlYXQGsmemMGCxVAaAqmP2bHHNl7on4w+1ti72vHLj66vtjfe8Y7d/FcK0OfSDyI2x0cvGmoE2mqdeiPvwKeK8oHYiqADmBqAoAjhI1/f/Htxc0UfXGPz/1fr54GcYsrqxKOaUSVddChaxDUVXEha/LSaKqMp0c1kHzntVqg5JWGXcvrNP/O72hkpBq8QQgFUw7lRyDT1UAqAzmX/PBkWl5rsmjpy/WAnVVJHu++vLx0xfrW3ayaxBVIXvUVqd+Lh6o1WqKwqr5krJ84uW9onQgqgLkBKIqADhK714Hk0RV27JEcQtV6VkFk/mb6l5KUVX1AIDRavf4g4268jPyXqwZN7uLGxqOXTQvDvaFsiwxFjWWwQ8AuIrWv00tPFtT/aT7PFIl1JXVl0YaRFVwGPubhrTXMtclTMZ7RfmxiqrY9UMVydauH1EVAJyF10EoKHGT/rs8ntYOAK5i7d+sMXtHZ8X2a4eu7788JycQH6gGakOKM5f2IKn1Xz34KCarU3EfMC0fOweHhpAJoA+o3/WH5KF+XWreddt7QiiaKvtENDNgyo8pqmLXD2Cjx3b9iKoA4CwFeB2U3nExKAWJ9TjF1T6g+hSgtQMA9IVEUdW3Ud114Z6ZRo1Up5jodnutP9kxzlukFQ1teYZ9s756JUBvUBpbONLXx/xr8V7Z7aIqvtrLjymqYtcPYKPHdv2IqgDgLLwOQnWgtQOAq8SLqr7J1fCtx1HHSr+sqpPQSpVRVnu35qUlxquPrlQhE0DPsbr1j4rsVFTVhQXeK0pHlE9V7PqhemRq14+oCgDOwusgVAdaOwC4SryoKpwD+sgWWNoUV6txirp0oLIsYSCqxk8rQFSFzOiNqGq3vcJStfykEVWx64dqkKldP6IqADgLr4NQHWjtAOAqWv/mjfzltVbEtkjm+xCUF2MJMN2oieUE/b3B7lBLlSLtIBNAZqQXVeNsr9TmLVkO4lO15CSKqtj1Q2XI1K4fURUAnIXXQagOtHYAcJUu+rephWcHxx6Y8e1Zf5LVlTavtVYb1AUBWSmIkQnC3JnQCn0iXiZQmnecl8Awqdr81ebNe0XpSBRVseuHypCpXT+iKgA4C6+DUB1o7QDgKv3r3wydibE9uIJ1hepOUvNeUTpMURW7fqgqmdr1I6oCgLPwOgjVgdYOAK7Sr/5NHxelEVWlBS4iF2MBKATJhoMBqsl2G94rSkeUpWo82PWDi2Rq14+oCgDOwusgVAdaOwC4Sh/6N3/obxqnMLYHaMN7RenoTlRNCXb94CzrtutHVAUAZ+F1EKqDtbWPNpa2n7n76OmLXIoEANAT+GsOkD08d6Wjj6Iqdv3gNOu060dUBQBn6d3rIN9jIYou24b44y1eORWH/+oLqBZjPaXW2pefr+652Hjzo0/3js7uGOmLzQIAQDYg7gBkD89d6eiPqIpdP0AiiKoA4Chm7/aZ98a8mNc+uC4n+KUDV0WCzx667sV4ydSc0r868JJRNbq64+KDf2NoKPRVFXr5iV6EUjs+RG7to42lN45P7rt03/+5dfj22amFDosIAFAUEHcAsofnrnT0dfo/AESDqAoAjqL1br6iKi95GfNT7RYRVSGKbu64zRlPGFev6TvNGFNn9RvtyN2f+waqE/PLa63FB87PLI7N/eL1DydwAgAAJQVxByB7eO5KB6IqQE4gqgKAo2i9myae+htil5lewlgr0DYzu1aXnAdFLXk5JBa7DJchVA9pJau3c/XixAlCXU0+5/qrqcIo/nOCm2y9I60VTv3fWu0r9yv+tgaZWB2cC5U0zD9IZMZYdFm/9f7vfzmx52IYvfPcjPhI8Mp3r2r2qhPzy+dnFhFbAaDgIO4AZA/PXelAVAXICURVAHAUU1TVtr1/N//gEy+kF1X1GN1gMMZusaWz+YktPq7Fga1kxqZ0iHQKiwUjdIJ0+wzTT+WOyPqmWufa/Yq7reFtM9RwW7uJbnW2TPzWe+DynOxBdc/FxpaTNzcENtr/98dhdlfmnvy7U3eE5Lrx4LXzM4vyyZBcAaAgIO4AZA/PXelAVAXICURVAHAUq6WqNt9f7BIJ/nH2F164dP+JlJOiYw7IVoMtI0JJ+ooXVWVFLCLDqGRiW1q0CFvVdSOkSUmfjrkjlrUhu7utciamUGvJ2ojRTVVFq5Y9qI42lrafuesLo8du/PPn/2JCpN905IZ/yC8fuOpvaKKql0+M5Hpl7okXs/x81VKpAAA9BXEHIHt47koHoipATiCqAoCjpJn+74df+e7VNZvqGiALmmKOtj4dP5wMnl5UtWSYRlRFSe0Zfr2HtzP+jqQUVZNvq8jE6gpgzUxnxNgtVb2N2aWV1z+cuL+04jtX3Ts6+5/+flp2tOqz7dSdN45PitZ+9/FT2Sh194V7v/X/fConGG0sySXZcvKm2LXpyI0rc/JHCCRXAOgl5lhFjvE6HNEd+X1R2+fJgauvvj+GKgT9oROP6pEfTzs+kfYaomRc1x1MyVnou9TE1otBVC0diKoAOYGoCgCOEjX9/8e3FzRR9cY/P/V+vngZxiyuyHqQNNk/WLRdez8OtLEORVVLhkmiqjKRHNZN887VaoOSVhl3R6zT/zu9rZKQavEEIBVMO5UcE+FT1d/+v/6/xv966Nq+S/f9n1/561u/9w+Rb9ijjaXhW4/lmEdPX8hfFzYduTG18ExTSLefuSvrqrJc6/H6hxPy4dpe74ya3SsAQAzmX/PBkWl5ron/TchXV0Wy56svH7d6s4xLq8Lyla6S2Z2NmaOieYkynESttY8a0l9xzMSWT7yIqqUDURUgJxBVAcBRevc6qIhkrS/7tZoQUY0FieIWqtIVUiPDZFFV9QCA0ep6adVmWI3xd2TNuOVd3NZw7KL5crA3KUuMRY31W/vy81XfKPVPfzondvm2q+m9o3qZ7Lt0f8fItC+bvnF8Ut7r5ePltu3Unb2js2enFibml62Sq1cGoat6CeS9m4+Oi13etlc8ee9oY0mLAYCKo/0197sU8+/7I1VCXVl9WQBJCFHVVXIQVTXh0/tZG5LmwwRvBdFTYCQDADNxxHtF7y8I+oZVVMWuH/LGfbt+RFUAcBZeB6GgxE367/J4v7VvOXlzz0VLxsfG5+UFrDpCkzjPTi3Idqym5KpJqBPzy5rk6hVSllw1tVc4e93w3piXEskVAKx/za0xe0dnxfZrh67vvzynpbF9CR0cqrc/cHlx4luX7uJH/9ZlnUcyODQkj77Cs/EF1BHEN9PmnTY/dcu+fazfX5Pbm72JmsakTUm1LuKUfZGTYNo77IljZ8BAKTBFVez6oQC4b9ePqAoAzpLr66A0lGI4BQbrcY3bbFvGsX5rjxFPv/L/3hILWK2Tifnl4VuP947Obh2+LSQMHy9e6KE7z8145UnMSovxDpR9uWp7Nx68Jkuu2t7zM4vpDXIBoCwkiqq+jequC/fMNGZkC8Wjjrkp9bNSj5vgqKd1vH4QMoFLhPdVWqZUWaNSOFaP8BSU2N6shxjGqIaYmkZUtUsCYeJIX+1QFkxRFbt+KADu2/UjqgKAs/A6CNVBtPatw7et4unwrcevfzghfs4urRwae6AtMLV+Tkw+FLqnF3aem5H3eqc7Nj6f3qGqWTxZcvVOpO0V5/V2IbkCOEO8qOqbXGm+oc1kbcIvnulc7qhfwIKRVLSlalwklBxdjBQtRP2GHremZQoXT5FNNBzHK6trphJVFZ03IrEuL/AWXTqifKpi1w85UCW7fkRVAHAWXgehOojWbnpQFY5WZbPQY+PzwuRz6/DtE5MPe1gYrwznZxa993VNP/ViZG+q5ht8R2hWrt5Jt5y8KRy2bjpyQ94rr75lSq5eFXlF1dwUAEBBiBdVhXNAH9kCS5viKqldDclkBVEV0hEpqqqD8vWIqnFNVJ6FquLtj7O9MiLsibFULT1pRFXs+iETqmXXj6gKAM7C6yBUB7m1y04ARhtLbxyf3Hfpvpb+/MzitlN3hAS5W32Tnl1a0Vyj9oThW4+3n7krTE0PjT2Q93o/vb2+FLtOx6nemMG7cDnGl1xlSVfe612s2LXpyA2vGPJeJFeAfNH+mnsjf/HAyuuuiGS+D0GRIMxIHieltRzUZIJwkCgtT4moWhGiZALDLV+cTBDb3uKaqG2iqrLwZYQyZQ7/rYnxqVp+EkVV7PohIypm14+oCgDOwusgVAettW8dvu29NJsGqiazSyteSm2i/e6WZrHpyI1tp+7su3S/HwKrd0ZtMr53LlkZ6a3xrIx3OZrk6hVGlly11be8CkRyBciRLv6ae4/5QfWzTQsxHbFWS2mpuiaPA6VBlBjL1WrxI8B2Qia0ukFdTFi2TmiVZ6FGT2iNa29xTdSiqspRwTm1ibCajqG2S4sGJuAtunQkiqrY9UNGVMyuH1EVAJyF10GoDlprn11a2XTkhmmgmpKd52Zk16hRRg29xXuhPzT2YM/FxpaTN73Cazrv1uHbm4+Oe7v2js4eG5/vn3fUqYVn2qm9n29+9KmoDc11gGwo5xVbs/n1ypnehywAWOGvOUCT6EVVTCJdBabOmueudJiiKnb9kBPVsutHVAUAZ+F1EKpDP1r7xPzyobEHO0amNUtV33WpF9+Ppa6i2HTkhjwSMHXPeIPcXuGdJV5y3Xbqjrz3/Myi7HMAyRWgC/hrDuBjseuy05mmavFSyHNXQqIsVePBrh/6QpXs+hFVAcBZYnq3X6ysfvBx453jn3z5/Ste8Da8n15kxiUE6BVZDn40fbMfzgGseCc6O7Wwd3R226k72nR7YVf75kef7hiZ7p8dazwT88uatusVWJZcNdcBw7cex0ius0srmpsCgGqCuAOQPTx3paM7URXAQbK160dUBQBnierdfvKzn3/1z69/4U/rWvAivV3ZlxNg/WQ8+PGn6u8Ymdbcj3p4MV78sfH5bExH11r2nr7HAL8SNrw3pkmue0dnvdLm7vnUKrmKZbu8IJYX8/HqUOx6/cMJzZkDkitUB8QdgOzhuSsdiKoAgizt+hFVAcBZrL3bT3728y/u/6kQUt86PPa174+Jn96uJF01xuNPT5wB4VGoCPTiLphugrrIoPlnO5yMEuEBqElBBj+ax67NR8ezPLu/ZpS2wtXs0opcpNc/nMiySOkxPRgcG5+XJVfNjvXQ2AMkV6gIBenfACoFz13pQFQFyAlEVQBwFLN3+8XKqmaj+vnamBev2avG+gHoTlRNL9L1IyV0Ste3snc3JZxcUq9bvP4Xd0GJK3NP9l+e237m7uaj45qD0Yn55Z3nZrI0Yl1r2bHuu3R/x8i0Pw1fM631SuLFeOXcOzp7dmohM1cGneLVqlY2rxpf/3BC6Kpe+eW93i2QJVcvsbzXXIwLoMgUp38DqA48d6UDURUgJxBVAcBRzN7tg48b2pR/U1T1gpcsOldE1SqQv6hqc9gjzU8xpqqUYvAjG1duOnJjz8Ucmu/s0or88+zUgmzH+uZHn8p7Hz19kZd71o4YbSzFS677L8/Je/eOzopdbxyfRHKFglOK/g3AMXjuSgeiKkBOIKoCgKOYvdvXf/hJGlH1neOf6HmJBQbtKxga07KVXeGyhqGhobrwoT1/FXVxRCNPWD+2u5BQ7XE3Wl2/st5O6e0RB4V3Wm8SCZqqub8Ug5+phWd7R2e3Dt/215XSjCtHG0vDtx5romcGnJ9ZPDY+7xVmy8mbmvjoLyTlldbbtfvCPU18LAtexWq1uu/SfVlyPaQu++tdaYzkOjG/nK9rWqggpejfAByD5650IKoC5ASiKgA4itm7ffn9K2lEVS+ZmlPok7qlfUlKWaO9v7Wlimj2XVF7zfyjsJ0FekD8XbBWe8ob3RJbjU3phNZ8QrG8rbgq6rluqlq6wc/UwjNN6dt5bkZ4Yt1+5m4RXIIeG5/f8N5YlFfTK3NPTkw+LLtRp1Vy9W6BuGpNVN0xMi1sjbecvHl+ZjHb8kIVKV3/BuAAPHelA1EVICcQVQHAUeJF1d/6s8ufr409WWnO7U0QVRWrwED/Ck0LDcvEmF1rtr3W/E1CO0hE1T4QdRdiqj3+RifqsAkNxrBAbpZEHKubqjow+Dk2Pr/l5E0hYg7feizvzdFAcmrh2fmZxb2js5rOu+diQ/YbUFI71ni8C9ck190X7smSa3FuEziMA/0bQOnguSsdiKoAOYGoCgCOYvZu7xxvTv//t9/9qW+g6uFtvHV4LGH6f6SoqsleKXat2famEVUtixQhqvaUhLtsq/b4G92ZqGrmY3HrEONU1aXBz2hjaf/lOc2Z6RvHJ/3Z6DvPzZyYfFgEV6fDtx5vHb4t5tFrk+i9S9h94Z737/mZxSKUtucsP189O7VgvU1vfvSpd+1e/Th54ZA9Zv8mx1yZeyJUft9y3N9+5cDVV98fUw9M+XeTP6+QSCeNpPlXvusWpZxIe19QMg6+AZtnEl+HldecpK/0Lr1XVAREVYCcQFQFAEexLlT1+3/9Tw8Wm4ZX/+EvbmhaavRCVVHT/7V3UGW6d8SuqL1J0/9FBuEbNKO+3mK7CwnVnnij04mqlnwkibder5uZl9OnatcsP1/dcvKmvKJU9q5X4xltLGkColbgE5MP8ypbZpi3CVEVeoLWv3nbgy03FOKn39J8dVUke7768vHTF4iq0B8yayQxf/o1j0KGQ6G19lFDdS0rM7HFk7vb7xVOgqgKkBOIqgDgKGbv9ouV1R0nJn/3L8ej5FQvfPXPr3vJ9LzCT/rWhapi5/i3XlzbGeirG0lONc38FcQiSrXaYPgGbbjahHVguQtJ1R53o9OLqpZ8wvGNtCu81YYla0UGP6ONpX2X7u8YUQYMy89XN7w39sbxyd0X7p2YfDi18Cyv4sn4Rd15bsbXGTXXq76J67ZTd/aOzrpn0el7SzBvk1cVey42zk4t4CIAOkLr3/xn3OzxHqkS6srqSyMNoir0ihxEVU349H7WhqRZNNLSpxElC/ZYE1f1vcIlrKIqdv2QN+7b9SOqAoCzWHu3n/zs51/c/9MoRdXb5SXIpbQACtGjIixKNCbml2XryM1Hx/MuUTIbD16Ty+xdgrzXXDzKAc7PLMqXvP3M3bxLBKXB2r9ZY/aOzort1w5d3395Tk3SGg3Vg49l+vBKfLkKB032XUPmeCz8/NVOaESAC4gvrfZP7OJea1HqR9agBfpO9bW2FN0a1T/9TUk1dMqvezCyN7r2Dnviis2AcRJTVMWuHwqA+3b9iKoA4CxRvdtPfvbzr/75dauNamEU1fClmiFZZbG4Wm0R+imQYPBzfmZx36X7207d0QwkvZFD0YxYfUYbS16R9o7Obh2+re3yJdcN741tOXlz57kZN+xYfR+sey42fNNd707Je71b457FLvSKRFHVt1HddeGemUaNlIZVFnMY6/QCc5c8xSScsxDpCqZeQ3JwhShnUNq9jmkPUgvUxviRLtrNsf3amiGmphFV7ZJAmNhlX+0VwRRVseuHAuC+XT+iKgA4S0zv9ouV1Q8+bnz9h598+f0rXnjn+CfeT8usf4CSwOAniv2X58plIOkNdbacvClMWTe8N6Yl2Ds6e2x8frSxlEvxeoUmcIvb5CvgZb866C3xoqpvcjV863HUsdIvZWinqEnKhD9FJovcJbat60/yYdQ9Ihe0VO913CKWKdwBRTa5sMEqDoJSiaqKzhuRWJcXeK8oHVE+VbHrhxyokl0/oioAOAuvg1AdaO1RPHr64uzUgjd48JVKMYrwGb712IsxV7EvAl6Rzs8sHhp7IEdqvg68i8qreL3FuxHyIlfabYKKEy+qaj6LZQssbYqrKmMF0lcogTUkOxZNLTV2rVmTBURNNIBSEymqJt791KJqXJOTZ6GqePvjbK+MCHtiLFVLTxpRFbt+yIRq2fUjqgKAs/A6CNWB1t4duy/cE0Le6x9OHBufz7tECUzML+8dnd126s4bxydNUdX3dbD9zF0vzfmZxUK5O0iJv8iVZqm6Y2Ra+HBwz9ssJKL1b7ukx1Zed0Uk830IigRSTs3RWGjip5nFhIO7ICpm15r9SMuJwB2iZALDLV+cTBArqsY1OdtEVREXqrGGyGUO/62J8alafhJFVez6ISMqZtePqAoAzsLrIFQHWnt3jDaWfCPWDe+NmSMN7+f5mcW8ypYGTWE8MflQVpc0b62Pnr5Yfl5KJyebj47L11XwmwI9p4v+bWrh2UHVyrtFc8RVqw2qg3cxR9HbY8pYUbvM7agJrcgEDlEXc5mtE1oHTOXJMqE1TiaIa3IWVVWOCs6pTYTVdAxtqnbYNg1xgfeK0pEoqmLXDxlRMbt+RFUAcBZeB6E60NrXjzei0DRH3xrUC29+9OnuC/eKb/jpld/3GOCVdsvJm3suKsNvX3LdfHR86/Bt35Q1r3J2gW/B6pV848Fr2m3af3mORa7chv4NoEn0oiomka4CU2fNc1c6TFEVu37IiWrZ9SOqAoCz8DoI1YHW3g/2XGy8+dGnYryhiaqlW0zp2Pi8b5DrB01y9S7nxORDdUxVAnxDmwFpkau8SwS9h/4NwCe1VV9nmqrFSyHPXQmJslSNB7t+6AtVsutHVAUAZ+F1EKoDrb2vnJ9Z3Hfpvhyz/HzVFyjf/OjTPRcbUR7KCog3fPJX7tL0U9m9rHdRxXcv6/Po6QvfgYPQVeW93m3CB6sD0L8BZA/PXenoTlQFcJBs7foRVQHAWXgdhOpAa8+Yifll2Yh105EbeZdovZyYfLjl5E3vQvwr8n7Ke/ddur/nYuPY+HyRnQZ4ZdPUbS/GX4Js57kZXASUF/o3gOzhuSsdiKoAgizt+hFVAcBZzN5NjpFdC/kWW/72Kweuvvr+WEHfI03PM33J0HAxUz5UD+XKH7/21Rmuy+Vr1mpAnopiz02cSpogov6RlqeUyPNJ7LkppQumw1iL2obBTy74Pkz3js56QY73uxffq+nZqYVyaXleab2L0sosK8gxawcXjROTD2WPBztGGGqWEvo3gOzhuSsdiKoAOYGoCgCOovVu3rbvjl389FUDbb3L56svH0urYeZElB+Z7M9eUmRRdXBQ+VQZJZhqh0eJqhG5yd9DG0ND9TVFVFXF63otsWxmqQx3VKzSW2D2X56TJchtp+7kXaL1MtpY2nfp/s5zM/5E+4n5ZXnvG8cnX/9wwrvMvaOzBTQI9Qu/dfj2IdVt3InJh94Vef8WfwmyikP/BpA9PHelA1EVICcQVQHAUbTezR82m/3dI1VCXVl9WYCXSETVdaKIqkN12fvNekVVe26WbEQZoiagxJQtXlS1ZMngp2jMLq0M33rsu/vcf3lO3uXFbx2+7e06P7OoLWRfUmRrUOuKXkWTWX22nbojyrz56HhZzG8rCP0bQPbw3JUORFWAnEBUBQBHsfZu1hgxddfbfu3QdU0BSVhz0LJ4ZSjntdbNNPW0+GOlid61mrRd10W3IbGuYkPLWFpp0ThX1KVZji0vqqja0Gbpr09UtefWvGtqRkEZIp36xOcWK6oamTL4KRE7RqZlCfKQZdXd8nF+ZtG7kD0XG1uHb2u7fMl105EbW07e1Pwk5IuwYN148JrwAyPwrggL1oJA/waQPTx3pQNRFSAnEFUBwFESRVXfRnXXhXtmGjXSJqrqXq0VZSxIEaFNpjrWaqlqc+4ZeswOt1oCqbWcZlHCDPVjS4wuqkbrld2IqhG5tWXpoL4lUdUUrhNykz2oahcSngtRtaRMLTw7Mflwz8WGP5VeW/pp/+W5fZfuF3k9qI7wLta7TF+1NFf0Wn6+und01quN0cZSXiX00RRVD7/Mm4+O7xiZPjY+74ZNcUmJ6d9+sbL6wceNd45/8uX3r3jB2/B+epEZlxDAPXivKB2IqgA5gagKAI4SL6r6rlSj5nuqB9pkTU16lJch0q1KDTo7NkpUtRXJnEieIJHGHltiTFFVxPVEVI3KrV3hwdJSVkvVNLmlsVRVEjD4cYY3jk8KI9Y3P/rUFPtKyuzSyvmZxWPj83KkvGCgF0wr17x49PSFVxjh1sDbQFTNkaj+7Sc/+/lX//z6F/60rgUv0tuVfTkBXIL3itKBqAqQE4iqAOAo8aKqNtlT9qyqLV0V4+HUl0ObaphlineCNJn62PWJqtq5dKokqrYrOo2oqkqW4Q1KzE1Obi3DWsRN1HLDp2p1OTY+v/PcjJBWNW+k3l5nZFaPifnlvaOzW4dvbz46bq7o5e3dcvLm7gv39l+ey8v/rO8iYLc6oWFq4ZlvwXpo7IG2Zhf0A2v/9pOf/fyL+38qhNS3Do997ftj4qe3y6arpvzrlvEfQQf+5hacXtSwuuDkOkqivY2pZZOmqZjzVnSPT3G5pXnxsBVAgveK0hEvqmLXD9A3EFUBwFG03m3XhXvCHkozj/KTDUqODlXZQlKwjDn9gfxmdamZ8P6d7tjUomrsFH7dslE/kfPT/1u0jYITRVXlloRVE5NbfUiWRzXPC6H1qpJJTNnihz1SiQIY/LjHo6cvtEnx/rcf33CyaP5J18/y81VNoDw09iDGjnV2aSXbAoYM33osF8y7F3mVpCKY/dsvVlY1G9XP18a8eM1e1dALSieqorf2hK5ruOf138xwUPkoqs5ZUT+1qvqpfVZNRG6IqlUkRlTFrh+gnyCqAoCjdPE6OLXw7KB10RhhKtBcOUoIoer6T/Is/vjp/8nHBkn07XhRNcw5XGzKPJdelOhjS0yUlagpGUfdJumWRNvwSrnV1SXF5DIEv/T80uU2oN9Iq+TN4KcKzC6t7BiZfv3DiYFgwXp57/LzVZeMWNdaV3R+ZnH/5bmd52ZMEdmL9yth6/Btb1fGXlkn5pcPjT3YfubupiM3NDtWb9ex8XkWueohZv/2wccNTRowRVUveMnUnBBVq0mxRNWhunVukDEDRYmIdlVkzw1RtYpEiarY9UNqsOvvprdEVAUAZ6n062DkivPgJpVu7dXj0dMXw7cen5h8KEeen1n0jVh9kdExgdVk36X7srmoJrmONpa8CsnFmtUriVC9d4xMO7PmWI6Y/dvXf/hJGlH1neOfqDkFIpQ63DI+PoYDJ/uuoZoxYAu/w8kzFKK/aMoLFw5FnM74VpeYJ8ist4a1vepIO2hF3h5xkO50yXKn2pmoH7QDL0x6YnmKUbSoas0NUbWSWEVV7PqhE4r1Caosdv2IqgDgLIV5HdS+nGUxFlL+1uRaEsiGwrR2yI3hW483HbkhRMbtZ+7mXaIsGG0sHRuf3zs6e3ZqQY7feW7Gr4eNB69tOXkzS2XzxOTDbafueOf1C6CtzaU5yYU0mP3bl9+/kkZU9ZKpObX+CIZ2gVHjpZihlGTtEjpiMfNSxn4RvndiXO4kz0pBPEiiJzVs3Su1ImlTOmHMnTLPK4mq+k2VddY4UTV2I+Z6Y3JuwntF6bCKqtj1QycUS1Qti10/oioAOEv1XgcNJwJQGarX2sHO1MKzE5MPd1+4p9mx7r88t/no+LZTd/Zdul8F28lj4/NbTt4UKvPwrcfyXq8S9lxseGn66jTAdxGgWcv6pdp+5i6LXKUnXlT9rT+7/Pna2JOVplqdQlRVRlSSt3TZ1lAzh4nYFWNjKP81tv5BjlocMuZ0iXmCTG9qOEpUtRqQyu0h6k6pJZFPsQ5LVUtuiKqVxCqqYtdPX5kMdv2IqgAAVngdhOpAa4d4tp26I0+W3395Lu8SZcSjpy/OzywuP1cmNr5xfFKujSxV5s1Hx+VTO++loSeY/Zs3/v/Cn9b/7Xd/6qsDHt7GW4fHUskE0oTB5rAsHJ6JUZk5cjN2rVmTBSR64LFKfvGnw6tPR/SmhrsWVaPulNkC1217FZmbpmLZHc0jqrqEVVTFrh/71SSw60dUBQCIgNdBqA60dkjEX0Bp94V7b370qWahuXd0dvuZu/svz2W83FNenJ1a8C556/Btf9UvzZj0jeOTW07e3DEy7aUxBdn1Ixa58s6u7fJO6u1CadWwLlT1+3/9Tw8WmzfuP/zFDXNJ6+gJrcGQSAzBFFFLHUrF7FqzH2k5kR3bIDb5dMxuTU9PargrUTXuTqlj8raJlmxFK6uoctJEUVXPTT5eyhhR1WUSRVXs+sECdv2IqgAAUfA6CNWB1g7rQTOfrPi09A3vjcm1oXlBHW0s9Vxm9fGqXZx048FrFfGKmwazf/vFyuqOE5O/+5fjUXJqzNIrtdqgOnwT8x69PdpQKmaXua2OChP98dTFrNih6NMFqfTplsgEKehFDUt704uqMXdKH5PrdmF1fYpt1IEpcpMKoSgmIYHSrMW04b2idFhFVez6IQHs+tdt14+oCgDOwusgVAdaO6yHK3NPfNtJX13VRMPdF+4dG5+vlNJ6fmbRq5A9Fxtbh2/L8V7N+M/apiM3tpy8uXd0tocnffT0hVfPO0am/bvg5a+dulK3QMbav/3kZz//4v6fRimq3i4vQS6lBXAD3itKR9RCVdj1QyzY9a/Xrh9RFQCchddBqA60dugVmmGm91M2n9x26k5eBSsCE/PLb370qaiQzUfH5b3Lz1f3js6enVpYv/o5tfBMy2T41mNfzK3gIldR/dtPfvbzr/75dauNasEUVcUYECtTKAW8V5QOq6iKXT89bjLY9a/Prh9RFQCcJaZ3814dPvi48c7xT778/hUveBveT+N9AqA0MPiBPvHo6Yv9l+eEEesbxye1vcfG56cWnuVVvLyYmF8+O7XgXbsceWXuiew3oLfz9w+NPdh05IbIvLdGsgUn8a/513/IX3OAHsN7Remwiqpr2PUD9B1EVQBwlPLbtgCkhcEPZIBpPnl2akFMh9926o4mMlaNK3NP9o7Objl50xegNateb6+3a/eFe4fGHpyfWezuFGKRK3OpMe90+y/PObnIFf0bQPbw3JWOKFF1rUxjH+z6oYwgqgKAo6TxwvbW4bGvfX+sSF9rY9y1lJpeXJfpiKmLDAJP+/LLWkThWi92MVNRpBe/0DOQip7anlsP1p1k8AO5MNpY2jp8e+PBa34L3DGijOV8kfHs1ML5mcU+Le5UWEwXqIfGHvTPjvWN45Mi501HbmiSa9mhfwPIHp670hEjqq5h1w/QRxBVAcBRrOsFa99p/aUwk/wKrZ/0kmI/UhaBmNLGX0jvLjNc3bFeD704aUtb6qceVNaXlAqjeEXX5N5Ibz4RuSGqQumZmF8+Nj6vaXn7L8/JMuLuC/fkvVMLz7o22Cwj/vXuHZ3dMTK95eRNr3LkvX5dvXF8ctupO16aTlVRL3N5kSvNIcOJyYeltmClfwPIHp670hEvqgJA30BUBQBHMXu3Dz5uaNNeTFHVtgLm+kFUzV9UtemmXuaByCltKqeuy4cp/viV5EpEtIt0e26IquAm52cW91xsbDl501/cSZMRvV1Cb/XSVNx1gFwbXth36b68d7Sx5FWmtoZYFJqiuvx8dcN7Y16e3r9bh297OZfOapj+DSB7eO5KB6IqQE4gqgKAo5i929d/+EkaUfWd458YmWkTxsWamK1f+mxybWFLY3lCI324xGK46qJOQp7FxHZdnVSOtldVG+vtlN4ecVBYd3olJ2iqtv3t06nmqa1NQ1NVj49bd9KSG6IqVJJ9l+5vOXlTyIiHxh7Ie3eem/EiNx8d99LsGJmuiE3raGPp2Pj8nosNzVJ1+5m7Ymq/VyEd2bHOLq0IC1YvbDx4rdel7jv0bwDZw3NXOhBVAXICURUAHMXs3b78/pU0oqqXTM3J9OUpz/1WVDIjmamOmembuUmKYrxhZoziVjTiryt95Zh7W2KrsSmd0JpPKIO2FVfdw6mmk5ollERVve5lnTVOVI3diKmZmJybMPiBUnNl7sns0oocs3X4tmy5qdmx+oLs9jN3947Oetvase7hX69vcOqFs1ML8t79l+e8ehi+9Th+jr9XSycmH2o16R0iLFgL64mV/g0ge3juSgeiKkBOIKoCgKPEi6q/9WeXP18be7LSnE2ZIKpazBIlbSu0iFRXPtJXMIpO37BOCTeIybOY/P/svXuMHEee59da6e44hhaWVr6FYKwNGd4BhF2vocXoD+2uBXA9f6wG0ADE3QKj0T8twPadsIYhAbeA5VkPiPN5Tj7UeEgtZVHS6DFaESd5OW565BlpaUBLGieIY6rEZovPER8tiXQ30RyKbPHdZLOdVVmVGc/MrKqsjEd9PgiQ2ZGRkZGZEVER3/hFhO25Bno5VlHVaBYqWpLq8Wg2veq6qHYFs3d1DZaqhtgQVQEszC5d2XXq4qZ9S8qUdtHEVRcZn917JhVbk2u9FQqHY/HSir7rl7hLVeIGemRl3dsN75ysO8k1QP0G0DyUu+BAVAVwBKIqAESKXrs9vq0z/f+Pn/s4NVBNSA6+9dJcyfT/clFVPmvY/qgsfKmoWhynnxifa9CXM7yoqsdjWCihcFFVMeY0xpHXVLXGJoTPo0JUBTCTaotvHf1y457FJ98/pUiu6RKumVOWDkiuSnxiWk/gvfnl5D08suNEOsdfWXr1/jeOrN9+LHlLm/Yt6YLsmrzJlbLu7Y7jF5KYnb8rvX4TfWaXrmTfOrXVTY9v37z/zufn7BWj97+h4DWD5B99vtOwN1IaH1LE/RFrY/tDPSUHNj4M7YrgQFQFcASiKgBEinGjqr/46a/OXuxMFP3znxxUtFT7RlXG6f9SM1Y6KylvRhHQsJhAyfT/kjj9xPRcw7ycwUVVQzyCcNluG9RP+5qqeQRilyR/OP12paKqGpuynISwNi+iKsDApFLgk++fWr/92P1vHFEkV8WuU5kyv2fhUnD7OBWQPIv4sIlTnq7YrPWJnZ+Lm4m5MvtV6rfkeLqbsOzPVEdO1dUs2I3VWxeu3URUhfHQWP4paKgo6x9ZhmMXZmbUtYn0wIY2EO2K4EBUBXAEoioARIpeu11eWX3iraPf+ZtDNjk1cY++ciAJpkXWlnZXMgtk2else6ZWa1pQzQx7ManLBdg3qiqL008MzzXwyxHOVhdVDfHkPQbhVP7yDJasas9Elbzb8jZa9gsrxCakSbckyb11nx50fgAqsmnf0vrtx7IFBBS7zmxDp4fe/jQJE8FqralV77N7zzz5/qnH3v1MPHW+qzkm7v43jjyy48TGPYvKtcmFT+8+ncnQyjILilo9PpT6Lb2vXuOdlyXUldVbhbUioiqMggNRVRE+kz9bM8KcH2HrU0vK+meMgbVWEO2K4DCKqtj1g2vit+tHVAWAaDHWbh998dWDmz62KarJqSSAk9TC2LH3M4rPBQGdH4BaUFZrVew673rhkwe2HU3CPLHz8417FhVBNjiOnLsq2u3e/8YR8WzydOnc/8VLK8nxjuMXlOdNrl23ZS55G+NeIsBYvxl9Ml04Ob5n6wFlNYMO2bieOISZj2plPTDVSx5ZlTtr3T5WPY8KnjNk/pGHhNu9k+mi+koHXhnDtxqTdiTVfFF+db0l83B774Q5sNYOol0RHLqoil0/eED8dv2IqgAQLbba7aMvvnr0lQNGG1VvFFXJINFvY9SQMCy12kWayh8mdH4A6kVfdzWz68ycckkmtr5+6JzzdUgHIulgv3X0yyTZoud788vZk67bMpc8mnj26o3V+984Ir6N8Rmuloqq6ad5avdpPYzsaVxsR9pFMFuW29IF7AcuXJAbImXo/COtTaQfmloh+tQcMaOpYmoVUdUsCeSB1ctoVwSHLqpi1w8eEL9dP6IqAERLQe12eWX1xQ8Xvvvm4Yefn03c49sOJ3+aZv0DhAGdH4BmOHLu6q5TF7fOnVWsIBcvrYgK410vfCKevXpjdeOexdSiMxS9dXbpytO7T6/ffix5luSJlKUD9ixcemTHiX/x/5xO3Hd+Mb/hnZPi2aTHXqMFa7Gomppc7Th+wXZt/od1+0R5ENM4/paPdWrWK6gNE8Lw+WeQxYsMOU1VAqTljCqJqpLOawmsygu0K4LDtqYqdv3ggEmy60dUBYBooTkIkwO5HcAtV2+s7jp18fVD55Ke6tO7TysS5JFzV0XJ9b5XD+nXutoGqgrnr91UDFGTHrj4RE++f0o8u+P4BfGsYuU6KMWi6pS825hogaVMcbWLYnKnqshHlbOCXzsGqjN0/qkuqhpymnEWqkxyvsj2SvMwB8ZSNXiqiKrY9UMjTJZdP6IqAEQLzUGYHMjtAD4zv3w9FVvXbz+WrsoqnhU3D9En2id9YA8Xbz1y7up788vJQ2145+T9bxxRrJw2friQPMvv/Pjgb23tWLn++c/nlWsHsmBV6rek55+9LvHVZcHSNQSzAEJMtm6etqya0s0TO1jSkm35joswAQybf6qLqoacVriQX+aXq7HaTFu9+28MzJqq4VMqqmLXDw0xYXb9iKoAEC00B2FyILcDhMuehUvrtx976O1P04L8yI4T4tldpy6m/qkaa5ik6R+PvfuZKHR+/8NF8ezTfVU0eZxnPliQdc+1f/LPnvqNJ1+47V/823/0P/z0Fyc7nf8h6rf55esvzJ01nMi38TVOSBRnEYoe2TxGSUWNYD1uGIwh8091mUDPadZVAlWv/j2VibCKjiFYe0lTcHVxgXZFcJSKqtj1Q0NMmF0/oioARAvNQZgcyO0A0aBMtN916uK6LXOZQKmsXrrj+IVUbM32yGo2sVaS7nqS8k37lp7efVqRTR/8t0dFyfVpYc7pP/lnT019/xdTf/hnU7/74NQf/Olv/Mv/+xcnL3hbvzGVFRplEFFqwMxpiNrbcgc2dFEVu35wxGTZ9SOqAkC00ByEyYHcDhA9exYu7Tp18b35ZdFTWdtUWTogCfzYu59t3LO4de5scu2Rc1ebTbKZZz5YyMxyE/f20S+zU7f9N3/dUVT73PafPHDn//aJp/UbZlfQOMbJ1iYG01SNNteeljuwY7NULQa7fhgLk2TXj6gKANFCcxAmB3I7wMSSdImzPbKUtUqf3XtGlFyV7aRml65s2rfkcI+sJAE7jl8QV4yd+p//fuo378n7NHf8Q9GoyhvSnheSKsSMf+UOShhOVG0G7PqhUZq160dUBYBooTkIkwO5HQB05pevb507u3HP4mPvfrZ++zFlcYDEX5Rckz+VawfaTqoWbv/ejs7E/4yHv3PH5v3UbwDNQ7kLDn9FVez6oXGatOtHVAWAaIm5OagvQWPzbOC++pI0NTNk/P1f03wyh/gjmM9KWbDdoBtE+uGUAwqrn+drBWnroVeITbm/zb/oVcSc2wFgPOw4fuGZDxayPbIUyTU5lemtSZi3hEn64+Nff/DZb/zVz1Jj1d/6j/7T33p+X5aMBu4OABmUu+DwUlTFrh8mAURVAIgUvXb7Wnevj3tePCAGuG3z/izA3VsPJD5JsEYTOhLjFjR9SMNQ8eej4u12u++jLp5jCK3cd1oa5hSukxZbV8RmY4ILYkNUBQDveHbvmQe25TtKKaLq0939Tx56+9P12489+f4pZSuqUfhXv1z8ja516m2bZv+7v++sV0D9BtA8lLvg8FJUBZgEEFUBIFKU2u1rwu7JqX/Bn+G0IxFVzZhU0mx+R7tl1DzV2Rzd+7Zn5HX21Z0j8/vlHlZR1RIboioA+Mv5azd3nboornyasOGdk+Iv5o7jF8SzqQHsk++f2rhn8a2jXy5eWql+u82vvvnbf/naXX+1/fd++HfpzlrUbwDNQ7kLDkRVAEcgqgJApCi1myKepgfZKT28jDaFXNggsK+l9VWzvmcWRDBurBBA3dywezDTMoUUppt3EiFcrqbXPAW+j/2+BZ7Zpoviro71oKRWem/azo3S3o2t1nT/1RZpqlOtlvJCTVf0HlY2T822h1RepLKppHWRBENsiKoAECazS1d2nbq4ad/S/PJ10V80cU3ce/PL4tmNexYTl+6RpZi4bn71zanv/2LqD/+ss7LqH/zpvT/cfeTcVeo3gOah3AUHoiqAIxBVASBSdFFVOU7+ve+1w4krE1X1lUSFVarzk12VTzsUwlYJYNQxxQiUkGXSZ2qUWbIG9xCiap6UrgJao6hqftvabfXEixPypQfuabSiIanw7o2X2J+6L6qqTyzqrEWiauGBLaR+SoXODwD4w56FS7tOXUz3yHry/VOK5Hr/G0dEyVXcDuvup17qKKp97vz9P0rXe7XVb5dXVl/8cOHxbYcffn42cclB8mfiOd7HA5gAaFcEB6IqgCMQVQEgUoyWqsp8/+xUFuCXi5cTt/eMYDujmyXKPn01zqhCrpXJlKUBSsVN7axgRSvaxNqFz8Hvu2Ccxl4HBiNQy3vLTVWNCdZU5ExLFU/mx7pQqiuuNViqGmJDVAWASeKto19u3LP4xM7P128/dt+rh0TJ9fYf7Ep3qUq57R/8o4I1eT764qtHXznwjR+1FZd4JqcafCCACKFdERyIqgCOQFQFgEipMv0/dXc8t3/NpLr2CFJUNRimplprPdP/nYuqebAsKWWiqihmGkTVAkvVLFmZz7BrqlpjE8LnUSGqAsBk8TvPvteZ+J/x8GP/8SuHjPXbR1989eCmjzMh9VsvzX37x3PZn8mpMl211l8ugNqoI2fqc34Gh3ZFcBSLqtj1A4wNRFUAiBTb9P+fnVhWRNWDv76W/HnzVu5zUWpklE7/L5i8v1YmU4rH8v70Q4uq0kR4CeMm95b7Fiem4en/2jNK70x/FcKDttua1ml64fY1VYV0yavaGhcU0C+sEJuycoG4SiyiKgBMDjtPnPvHP3gvNVb95qMbvvm3R3ccv6DXb5dXVhUb1a+35hJ/xV61UC9oWFStfjvU3gmnIAMU542acw7tiuAoEFWx6wcYJ4iqABAptTYH2+quSPkU+2KddM2k5dmPs/t0dlKqZL7au8K6UVX3lJZ86/Pl9y1LTP/sGDaqUpJrFaC7t2+1DJaqgkZq2FJM8DSYrIrJkJ5LlY/zZCqXVhBV1diEVEomwDl9LVnx6UHnBwDi4L355XtfPphUaHe98MlbR79cM9VvL364oEgDuqiauCSY/T6IquAniKowJDZRFbt+iBRf7PoRVQEgWmgOTjQWo9xaQnsIuR0AYkWv37775uEqourj2w6rcWXjceJwYD6qlQ2QqV7yWJ+2BpDhB0SMQR2C0wY6O1G0WtJy6IXbS0J0mHKmnE+0gVwpkypn5TH4di9kf419eVzWkP870K4IDqOoil0/xIsvQ1CIqgAQLTQHLUjWjhH32yxLyxqQpvKHCbkdAGJFr98efn62iqiaBJNjMi5cI83AyBbttvS3hCVo+r8ahWt4axcaY1PXgEEmmDSKl1Qqm/DUy7fW9aD0Q+GGejw9aFcEh1FUxa4f4gVRFQBgzNAchMmB3A4AsVIsqv7JX+/7emvuysrNtVJR1bjForhaTm7Lp8mk+XBkJlD1NSnbEuYFa20bYjOuDgSTgW3zz4J8oufb4RaeMsTTg3ZFcBhFVez6ITb8s+tHVAWAaKE5CJMDuR0AYkWv35L+/zd+1P7j5z5O1YGE5OBbL82VyARWUVXuHRX5SOt1J0fFa8ek/S91cXBDbIiqk01JzjTlE4P0P7SoalakaFcEh1FUxa4f4sJHu35EVQCIFpqDMDmQ2wEgVowbVf3FT3919uJKcvznPzmob2ltmdBqkwmUbpkmE0hbJAqqVr5TopW+HiabH6qxIapOOKacWZ5PlIwylKhqiKcH7YrgKBVVseuH4PHSrh9RFQCiheYgTA7kdgCIFb1+u7yy+sRbR7/zN4dscqp165V+v8syoVWcYSp6ZLMNJRW1aD1u05zV/l96bJI0IISEicGQMw25TsobWr4VzlYXVY35vwPtiuAwiqrY9UNUeGnXj6gKANFCcxAmB3I7AMSKsX776IuvHtz0sU1RTU4lAcadMPNUVoAooF0RHLaNqrDrh4jw0a4fURUAoiWt3XC4yXGuyxwAQP3Y6rePvvjq0VcOGG1UG1BUNXsZ67RAgBChXREc/U8miarY9UNs+GfXj6gKANHiXOHC4Rp2rsscAED9FNRvl1dWX/xw4btvHn74+dnEPb7tcPKnQR2ombRfhYUUxAztiuDof7LPFX/s+gHGDKIqAECtbH71zd/+y9f+vWf+dup7P/tv//6U6+RACc/uPfMPnvg3dz79yl1/tf33fvh3R85ddZ0iAADIQdwBaB7KXXDYRNU17PoBxguiKgBAfWx+9c2p7/9i6g//bOp3H5z6gz/99/+Xv0ek85z/6t/8WPxk9/5wN58MAMAfEHcAmodyFxwFouoadv0AYwRRFQCgPu5+6qWOPNfnzt//o4fe/tR1oqAIPhkAgM8g7gA0D+UuOIpFVQAYG4iqAAD1cfsPdk395j2ZQrdu3TqapJ7DJwMA8BnEHYDmodwFB6IqgCMQVQEA6uN3nn2vM4u8z7en//l9rx4a6x0fe/ezjXsWz1+7Oda7REzznwwAAKqDuAPQPJS74EBUBXAEoioAQH3sPHHuH//gvdTy8ZuPbvjm3x7dcfzC+G43u3QlqcHveuGTqzfGvShStDT8yQAAYCAQdwCaRy9356/dfGLn54ziewuiKoAjEFUBAGrlvfnle18+mGqdbx39cqz3enr36eRGyb9jvUv0NPnJAABgIBBVAZpHKXfnr91cv/3Y64fOJf+iq/oJoiqAIxBVAQDqoPkm5tUbq+u2zCU1OLvVAwBArCCqwmi0W0NtPt7ZtrzVTq9PyWJJdzTv0g2h+Vhu2Y2pd4Upbdmd+vcSPNQ0FMam3N/mX/RyxHKXKqqzS1fWunOk0FX9BFEVwBGIqgAAI7N4aeWuFz555oOFJqfhvze/nFTfSdO2sTtOCHsWLrlOAgAA9ND7Kl/rDije8+IBMcBtm/dnAe7eeiDxSYI1mlDwlKFE1YWZ6fSihZmZthpPciSJmQaf7Ho1JdPTYkghbR2NVJJtZf10oNjqFFVFRTUFXdVPEFUBHIGoCgAwMknjMqlJN7xzsuH7Ll5awUy1Rq7eWL3v1UPrtswlL9Z1WgAAoIPSV0kV1cxlAYx/YuIKw4mqJk0092u31JO6j0F5TVPSFqPO0pbZxQp3yz2soqolttpE1Z9+ev6uFz7569mzytnZpSv/2d8c+e8/WNi4Z1FZiT5pQe06dTFzNFMbA1EVRga7/mFqS0RVAIBR2bRvKalG7335IEpcBGx45yTL1AIA+IPSV1HE0/QgO6WHF+iLUP3OXNa1y/tJeW8v7X4NdImmocHISFJjv0ubd5575zonWq3p/t/KV5Q+YvbhCiOx2Zmq8fcD6T5GXbb3ALJ5avdQ01Tl6+2iqjG2+kTV+39y+JEdJwyn19Z2nbp470sdk/Andkoq3uuHzomjGgOdfW9+ef32Y5l7du8Z8ezs0pWNexYzN+Fi7uZX3/ztv3ztrr/a/ns//Lv0YY2iKnb9MAjY9SOqAgA0TtKOSRc2TRqCrtMCNZA02ZOvibEqAIAn6KKqcpz8e99rhxNXQVSVbFryPp8oofb7bLl8V3KJaH4zjI0PFCH0v7WuuNj7lfRN+TMoH1Hv4OuR2KxMdWPUgl63UUxQuuuCqKrGLuqsRaJq4YEtZOFjdUnL0b/85eL9Pzmsz/RP1wRIztYrqjZw9qG3P9Xl2kzMfSYQ29vNr7459f1fTP3hn0397oNTf/Cn9/5wd5IqXVTFrh8GBLt+RFUAABckLTMMG2MiaYhjrAoA4AlGS1VFF8hOZQF+uXg5cXvPXBFiUgQv7ViwOTVNTLRdIllSYqxaN9lLFXriuZWp1vs1mHxaPmJBJOqXtOrlhd1uXWqQ7y5msBEsVQ2x1Seqzi9f//GBX/8X//unoq6aKqpv/+q80WK02NrUuaja8Nkx2d7e/dRLHUW1z52//0cPvf2pLqpi1z9RYNcvBasYG6IqAMBkkrS63jr6petUREvSin1kxwlxTwYAAHCFUVTVDxJ3x3P714psrwZTSIe4BFF1HKTd5bzTnL/zzG9wUbU4EulLGiWDNT2c5lNgqZoldGTbK2tsQvg8qoFF1fRY3JlK37eqRoptQoslyIkSc2//wa6p37wnHwG64x8KNZ4kqirHU9j1Rwx2/babj9muH1EVACA87n/jSFJxK61JAACA+NBF1fTgZyeWFVH14K+vJX/evJX7XFxZFWIqU0iljuIAlwgyAZrqGOh0oVutaa3LnAsCqrxY/hHLIylQDISEKbcSfey2V0LgKUmakFRUMWipqKrGpmgeon3ZEKLqWl9XnV++Pj5FtRmMcm0m5hrl2uTPArl269zZ5kXV33n2vc7E/4yHH7vz+Tmbpao4wmS0VMWuPxaw6zfepzA2RFUAgAnkvflON/Lelw9evbFaHhoAACBkqvRVqlGqkMpKQRWZQLoEw6sx0X3FeSe6/8Y7SqutV6xNaFU/XEkkws4rknaUW+RJU5h1n0r2W93IZe1Uj8d0YYXYhITnoYQbaM+i5GC93M0uXbnv1UNBK6rNMybb250nzv3m//Ruz1j1P//m1P/a/i9/eqzi9H/s+iMGu34ndv2IqgAAw7DhnZNP7z7tRNZMt6dP2l7N3xoAAKBh6hNVASpTJA40cb1zKHee89788r0vH0y+0V0vfJKuCVYw/R+7/kkBu34Xdv2IqgAAA5PO9EkaMfPL1xu+9eKllXXdrTzZm74ZZpeu+LDNKwDAxIK4A04YRfZp66sRhgblLjh0UXUEsOsPFOz6Hdj1I6oCAAzGkXNXU1nT1VZRexYubdq35OTWk0byiZMPveGdk64TAgAwuSDuADQP5S44ahVVASoz8Xb9iKoAAANw9cbqA9uO6mvJQ5QknzudWsWeYAAArkDcAWgeyl1wIKqCKybcrh9RFQBgMJ7de+aBbUfZJGpC2LRvKfmNTL6464QAAEwoiDsAzUO5Cw5EVQBHIKoCAABYwFgVAMAtiDsAzUO5Cw5EVQBHIKoCAITA4qUVdkxywuuHzrGILQCAKxB3AJqHchcciKoAjkBUBQAIgY17FpPK+tm9Z1wnBAAAoDkQdwCah3IXHIiqAI5AVAUAKOP1Q+ee+cDlroTZJPTZpSsOkwEAANAwBX2VyyurL3648Pi2ww8/P5u45CD5M/FsOIUA8YGoGhyIqgCOQFQFAChkfvn6ui1zblfVTG7NdkkAADCB2PoqH33x1aOvHPjGj9qKSzyTU82nEyAmEFWDA1EVwBGIqgAAhTz09qdJLbnhnZMO0/DIjhNJGrbOnXWYBjh/7eaze89cvYENFABAcxj7Kh998dWDmz7OhNRvvTT37R/PZX8mp8auqy7MTE9Nz9Q2iaXdqjM2CJc6ckIdmRNRNTiKRVXs+gHGBqIqAICddCXTe18+eP7aTYfJeP3QuQe2HUXOc8v67ceSzMCmVQAATaL3VS6vrCo2ql9vzSX+ir3qGPSC8UmfBTGjt04UQ+eEmvMJompwFIiq2PUDjBNEVQAAO8/uPbNuy9yuUxddJwTcky7CcO/LB1G3AQAaQ++rvPjhgiIN6KJq4pJgdacFURXGDaIqDIlNVMWuHyLFF7t+RFUAgBLml6+7TgL4wgPbjmKsCgDQJHpf5btvHq4iqj6+7bAWWaf/lNJqr6VdslZruveXcrJ7WvDI/+r/2e+J5Rf2r0zPzvSusPbY+hd2g/ZCFd7UkEiIgVFzgi1zdg/avZDJmeyiPE9achSianAYRVXs+iFefBmCQlQFAACoyp6FS8lP5n2vHnKdEACASUHvqzz8/GwVUTUJJsekW6R0pKi+j9DLare0YIJEtaB79uWo/A5dkSv1Fc7L5Ce6upbSxyu+qZ5ICJdacoI1c+qHwg2tOQpRNTiMoip2/RAviKoAAFABt2u5gs6mfUuLl1ZcpwIAYFIoFlX/5K/3fb01d2Wl81tZIqp29CpF3DRbm05Jeqho2GfSreRoE9/MBtagfynpyb0lbct6U2MiIXTqyQk2UdWYD8Xca85RiKrBYRRVseunrowN/+z6EVUBAFQWL61s3LPow7qZexYurdsy98wHDLkCAMCEovdVkv7/N37U/uPnPk7VgYTk4FsvzZXIBOWiqnw298lEr/GLqsU3NTwChE89OWFoUdWcoxBVg8MoqmLXb0okhIuPdv2IqgAAKo/sOJFUi0++f8p1Qtae2Nmpo5/efdp1QgAAANxg3KjqL376q7MXO5MG/vwnB/UtrS0TWo0ygdizks9mJ6XOf6lMoPW+rDMNTZ3D8psyuzU+askJQ4mq9hyFqBocpaIqdv0QPF7a9SOqAgBIbNq3lO7w7nyK9/lrN9dtmUsSc+TcVbcpAQAAcIXeV7m8svrEW0e/8zeHbHKqfesVeY6g0oEXu0yd09kkw1ar343rXW+d0FosYFmTI0xjLL6pnkiIgjpygilzloqq1hyFqBocRlEVu36ICi/t+hFVAQByZpeupDrmjuMXXKelJ++u337MdULATJJJkm/kOhUAAJFj7Kt89MVXD2762KaoJqeSAE5SCxAHiKrBYduoCrt+iAgf7foRVQEAcl4/dG7dlrkndn5eHnT8bNq3dNcLn7x19EvXCQED88vXk6ySuOTAdVoAAGLG1lf56IuvHn3lgNFG1UtFNTeSxcoU/AdRNTiMoip2/dS4seGfXT+iKgCAxJFzV33YoiolSYk/iQGFp3efTn4+N7xz0nVCAABipqCvcnll9cUPF7775uGHn59N3OPbDid/mtQBABgMRNXgMIqqa9j1A4wdRFUAAIDBWby0ki4WMbt0xXVaAACiBXEHoHkod8FhE1XXsOsHGC+IqgAAAEORGqs+8wELNgEAjAvEHYDmodwFR4GouoZdP8AYQVQFgInn9UPnXCcBgmTx0squUxddpwIAIGYQdwCah3IXHMWiKgCMDURVAJhsts6dTSrBR3accJ2QnPXbj23at8RqqgAAAIg7AM1DuQsORFUARyCqAsAEc+Tc1XRZzLeOfuk6LT3em19O0nP/G0dcJwQAAMA9iDsAzUO5Cw5EVQBHIKoCwKRy9cbqQ29/mtSAT+z0qP2x4Z2TSZI27VtynRAAAAD3IO4ANA/lLjgQVQEcgagKAJPKrlMXk+rvvlcP+TPRPt1QPnHJgeu0wADMLl3Z8M7JHccvuE4IAEBsIO4ANA/lLjgQVQEcgagKABPMnoVLs0tXXKci562jXyY18mPvfuY6ITAYm/YtJR/ugW1HXScEACA29L6K6JP8iKd/Ji79QU+Pb9+8/87n5+QL262p6ZmFtbWFmen0wEw/WFUGDT8s5mQ3dfcJoSRvmIK32r0/kk+R/5H+2SGNrubvNGA6K6AmEFE1OBBVARyBqAoA4BNHzl1NnOtUwGBcvbF6/xtHkl9TjFUBAOpF6askx9M7P898koPz126u9dXVLNiN1VsXrt00i6ol+Cqq+nj3SUN+2wsz072/OhrnVKvVkhTW9Di7JA/tJYiqwYOoCuAIRFUAAICR2XH8AsaqAAC1o/RV5pevp55KsPOyhLqyeksLg6gKIyK9bU0lbeeiqnCYBxM8/QNRNXiMoip2/Q7uPiFg15+DqAoAE0bSjPBnEVWIiQe2Hb335YNphx8AAGrB2Fcx+mzcs5gd37P1gLblY9YRkg9mpO6cfLbf7+taInYRpLLeVTOWDqDY7xLNFeWIVI9OyFZresogvwkRlt8dhqMgb/T7/b1vpVue5qKpdC7zNtiqGjOJMVsqGaU4MxhjGCwbI6oGhy6qYtfv090njQmy60dUBYDJYvHSyl0vfPLQ25+mrQqAGplfvo5eDwBQL6Wiamqj+tTu03oY2dMoqgpiptSvE61qhB5Uu5Xpa4LcWllUVW0VzTFbepNSssvuDsNRJW9kIRXhu0xUNV9iFFW1W1tzjjEzlCW+QjZGVA0OXVTFrt+nu08aE2TXj6gKAJPF+u3HkipvwzsnXSdE5fVD53aduug6FQAAAH5RLKqmJle29awttlf6geo5PS13B6cEkp6eqplVFlUV7UqPuajbL0RSfncYjvK8MYKoajRuLb2LKeeUZAZrDNWzMaJqcNjWVMWuH7v+8YBdfwaiKgBMDM/uPZPUd/e+fHDx0orrtEhcvbF61wufJGnbs3DJdVoAAAA8olhUzRYHTBEtsJQproOIql1VNeunS0vB9X2GE1Wz+LKeZpHpoiVCRNUxUo+oara9GsBStSznDCmqDpCNEVWDo4qoil0/tWV9YNefgagKAJNBOvE/qe/em192nRaV1w+dY48jAAAAHaWvkvT8xb1WsuMsWLqGoLgZS58BLFWTA6lTpXahqnTUBaFBi6DfjTTGXCaqIhOMkeqiapHtlfDxZSMp9VsZM4lVVF2Tck6xTGAZLaicjRFVg6NUVMWunyGoWqlnCCoCu35EVQCYIPYsXHp27xnXqTDw0NufJhWxNvUGQmXjnsX73zjC+qoAAKMzhLgzv3z9hbmzmvdgoqrUMxO7WLlJS9mU0n6Y7qYcmYhqnlE4gExQ8e4wDCXmor0X3/16RasE5kEFL11YWDNlEpvVnjbx2Z4ZLLLsINkYUTU4SkVV7PqpLWulHlFVGY0S6rVg7PoRVQEAHJO2Y9ZtmUODi4YN75wU16sCAIChQdwBTxlsh+rx72dtUJ2Gh3IXHLqoil0/dv3jBLv+DERVAACnXL2x+vqhc5ipxkQmlPu2ei8AQHAEIu7kloSKeaI3EUL9VJcx8x752NBlgFEIpNxBjs1StRjs+mFYsOvPQFQFgKhZvLSCBSg0T2qs+rS2FQAAAAwE4g6AHb3rXw+Uu+AYTlQFaIKo7foRVQEgctZvP/bQ258eOXfVdUJgskiNVZ98/5TrhAAAhA3iDkDzUO6CIxxRFbv+SSRiu35EVQCImWf3nkkquLte+GR++brrtMDEwdx/AIDRQdwBaB7KXXCEI6oCOGFcdv2IqgAQLUfOXV23ZS6p4HYcv+A6LWYWL62guwEAABSAuAPQPJS74EBUBXAEoioARMoD244mtdsTO/1tWzz5/qkkhW8d/dJ1QgAAADwFcQegeSh3wYGoCuAIRFUAiJQ9C5c2vHPS212qkoSlhrQYq04C56/ddJ0EAIAgQdwBaB7KXXAgqgI4AlEVAMAFm/YtJZXvhndOuk4IjJfZpSsPbDvKhwYAGA7EHYDmodwFB6IqgCMQVQEAXJCuTuDteq9QF4uXVlKT5NmlK67TAgAQHog7AM1DuQsORFUARyCqAgA0ztUbq898sPDAtqOuEwJN8PTu08kP7SM7TrhOCABAeOh9FdFndulK+mc2dpUe3755/53Pz8kXtltT0zML6Q7A3QMz/WBVGTR8I5Q849AxePmwE8KA37QTPNvgOvlu4m7XnT87pNEZPyqianAgqgI4AlEVAOJi457FxLlOBUBOZqyKYTIAwKAofZXkeHrn55lPcpAuWp2qq1mwG6u3Lly7aRZVS6hLVG1ef2zgjoiq3iJ/moWZ6d5fHXF1qtVqSQprepxdkofOQFQNDkRVAEcgqgJARJzv9qDWbZlznRAAiad3n16//diehUuuEwIAEBhKX2V++XrqqQQ7L0uoK6u3tDCIqkHcAoZD+jSaStrORVXhMA8meKYgqgaHUVTFrr8c7Prjo1m7fkRVAIiKI+euJjXa/W8ccZ0QAAAAqAFjX8Xok81TSY7v2Xpg074lOUjWG5IPZqQuk3y237fqWvt1EeSo3lUzpk5Wvx/Wu6ITZ6s1nf0hR2ZMhnpL7SoljOGOWkyirqbfUX8ENQbLw0IzFORb5evrlqe5aCqdy7y1KxBVg0MXVbHrHzwlYd0ChqNmu35EVQCIivfml5Mabf32Y64TAgAAADVQKqqmNqpP7T6th5E9jaKqqFmKfSfRckXogLVbmYYlyK2lMkEnvBaoMBma5aB2lW6Ko9wxjzyX04oe3HajKg8LDVAl32YhlW9aJqpqlyCqBocuqmLXP3hKwroFDEfNdv2IqgAQFVvnziY12hM7/V1OaMfxC/e9eihJp+uEAAAABECxqJqaXNlWrLbYXukHquf0tNzlmhJIelOqLlVFVBXC5GaF9mTo+qVylTRf0X5HOVi/M2hPmx5bpYeFBijPtyOIqqqwgKgaHLY1VbHr18Jg1x89jdr1I6oCQFTsOnUxaSUk/7pOiJVHdpxI6lyt7QITxPzy9as3Vl2nAgAgDIpF1WxxwBTRAkuZ4jqIqNpVVbPeuC5fjiKq5rFlsVglzrR73uv3KVchqk4c9YiqZtsrLFXDp4qoil2/5Y7Y9UdGo3b9iKoAAM0xv3w93Udr8dKK67SAG575YAFVHQCgOkpfJen5i3utZMdZsHQNQXEzlj4DWKomB5I2oHaOh5AJNNMuqdNulTh7nTrDVcPJBMYuZXH6kQk8obqoWmR7Zc4GrKkaPqWiKnb9JXdkCCoeGrXrR1QFAGiOVFB77N3PXCcEnLFp31KSB+59+SDGqgAAVRhC3Jlfvv6CYZmdwURVqacuKgXy/NKCOZ69IMr00nx2aKtVYKmqzl/Vr1rTA5nvmCfeKA1UkDkqPCyMn+J8K379wlUC86AGASkDUTU4SkVV7PpL7oioGg/1iKrKaJTNrh9RFQCgOZ7u2tf4vDoBNMAD245irAoAUBHEHYCBMe5QPUhoyl1w6KIqdv3Y9U8qjdr1I6oCADQKE/9hx/ELGKsCAFQkEHEnNxpVTAADIfT0g4rBOM9C27RQZCDlDnJslqrFYNePXX+MNGrXj6gKAFGxcc8iBoDgP4/sOJFkVERVAIBSEHcAmodyFxzDiaoAk87Idv2IqgAQD+k2UPe/ccR1QgAAAKAeEHcAmodyFxzhiKqh28WHnn5QGdGuH1EVAOJh16mLSXW2fvsx1wkBAACAekDcAWgeyl1whCOqAkQGoioAxMLrh84l1dkTO71rTFy9sfrYu5+9dfRL1wkBAAAIDMQdgOah3AUHoiqAIxBVASAWnt17JqnOnvnAuyXBU7UXE1rQuXpjddepi65TAQDgL4g7AM1DuQsORFUARyCqAkAsHDl3deOeRQ8lqofe/jSpZ7FUBYXz127e+/LBdVvmFi+tuE4LAICnIO4ANA/lLjgQVQEcgagKADBOZpeuJJXsvS8fZKt30Nnwzskkezy9+7TrhAAAeAriDkDzUO6CA1EVwBGIqgAA48TbRQnAB1LNfd2WuSPnrrpOCwCAjyDuADQP5S44EFUBHIGoCgAwZvYsXGJ+N9hIjVWTf10nBADAR/S+iuiTDk2lLjnOzt6+ef+dz895pAotzExPTc+MNMDabqUxlETVDzZYSsqumhAG/Eyd4K1274/kFeZ/pH92SKOr+f3WkJ0U1AQiqgYHoiqAIxBVAQAA3DG7dOWJnZ/PL193nRAAAB9R+irJ8fTOzzOf5OD8tZtrfXU1C3Zj9daFazflTk7zumG9d6wY23A3RVStgvyWFmame391NM6pVqslKazpcXZJHtpLEFWDB1EVwBGIqgAQBYuXVp7Y+fmmfUuuEwIAAAC1ofRV0iEovfdyXpZQV1ZvaWEQVWu/atKQ3pKmkrZzUVU4zIMJnv6BqBo8RlEVu37s+scFdv05iKoAEAW7Tl1M6rL124+5TggAAADUhrGvYvTZuGcxO75n6wFlnLXXaZtKu3KdTlGrNZ39IZxa63WZZqRuXs8aUQilXaWEaet31GISRTj9jgpZDPKBepV4dsqk4hlS0o0FmWCt8N0qH1S3PM1FU+lc5m2wVRU758WfVcl+xR/Rkp3ULFyUARBVg0MXVbHrH89NEVWrMEF2/YiqABAJbx39MqnLHnv3M9cJydk6d5bdhwAAAEahVFRNbVSf2n1aDyN7KgKW3i02yZGZQY3VzFDsBypx2iQzQXsruKP1RoXp7J2VrIIKHjOT+6xa7mRR5d1mIZUXXCaqmi8x55Cy7Ff8EcsS325lMrEtAyCqBocuqmLXP56bIqpWYYLs+hFVASASNu1bSuqyZz7w5Sdu8dLKui2dqTRsUQXV2XXq4p6FS65TAQDgEcWiampyteP4Bdu1wl9GAav/15Rt9qE4jVTuSClXGWRMWzx5sH7P0Z42Q2z6geo5XTTdUUiJpPwhE6xVebcjiKpG49bSuxizX/FHtMaQkySpMAMgqgaHbU1V7Pqx6x8P2PVnIKoCQBQ888FCUpf5s6bqs3vPsKU7DEQ6MPDAtqOuEwIA4BHFomq2OGCKaIGlTHG1Cpe5ypl146wSZ9qr6nUSlas8ElW7qqrVzAdRtYB6RFWz7dUAlqpl2W9IUVW+O6JqXFQRVbHrl69qY9c/AlXebRYyZrt+RFUAiIQj565unTsr9qzccu/LBwtsZwB0Fi+t3PXCJ2QbAAARpa+S9PzFvVay4yxYuoaguBlLH4tWZejmF0mcvR6g4arhZAJj/3NUS1UxgYXxIBMoVBdVi2yvzF/WYHslqDm5clUh+5XLBBa1Xc2fTP+Ph1JRFbt+Y4nGrn9Y6hmCisCuH1EVAKB+kvZKUrHe9+oh1wmBwMBYFQBAYQhxZ375+gtzZ3X/Xr9emV6aT+prtQosVXNRQJChpKvW9EDmO+YdNqM0UI+oaldKZUGZCa0Sxe9W/KCFqwTmQQ2akHrDXrhW0a0NOavgI1qyk6gUyLOy2agqAkpFVez6zSMN2PUPST2iqjIaJdRrwdj1I6oCANRP0kzZOnf29UPnXCcEAuPqjdXUxvm9+WXXaQEA8ALEHfCUwXaoHv9+1gWTmAeHchccuqiKXX9F4c+ukhabhE841UXVyO36EVUBAAA84q2jXzL9HwAgY1LFndw0UbF3dBQPGKguYwri0LjQZYBRmNRyFzA2S9VisOvHrn9YsOvPQFQFAAAAAAAvQdwBsKN3/euBchccw4mqAE0QtV0/oioAxMDs0pX1249tNQ20AgAAQLgg7gA0D+UuOCZYVMWuPwAitutHVAWAGHjr6JdJRbbhnZOuE9KZRHP+2k3XqQAAAIgExB2A5qHcBccEi6oAVRiXXT+iKgDEQLpn+pPvn3KdkLVHdpxYt2Vu16mLrhMCwbN4aSXJ0ldvrLpOCACASxB3AJqHchcciKoAjkBUBYDwebq7u+Wze8+4Tcb88vUkGXe98AlCGIzOQ29/mmSnTfuWXCcEAMAliDsAzUO5Cw5EVQBHIKoCQPg89u5nSUX2+qFzbpORarvJv26TAXGw4/iFJDvd+/JBNHoAmGQQdwCah3IXHIiqAI5AVAWA8JldurLj+IX55esO03D1xuq9Lx9M6tMkMQ6TATHxwLajGKsCwISDuAPQPJS74EBUBXAEoioAQB2cv3bzyfdPPbLjhOuEQDykxqr3v3HEdUIAAJyBuAPQPJS74EBUBXAEoioAAICvbJ07e/7aTdepAABwRn3iTrs1NT2zkO4A3D0oDjZotAA1MGR26mTq7nbWwv7WwvbWSazCn52/uqR3Mt4SUTU4EFUBHIGoCgAAAAAAXqL3Vb62ZS7xuefFA2KA2zbvzwLcvfVA4pMEk2OqKFchqoJDhspOCzPT/YuS6wUxda2nsrZauffCzExbuZdwfR9E1eBAVAVwBKIqAAAAAAB4idJXSRXVzGUBjH/KnRxEVfCfYbKTqIm2W8bLNa1VuU47j6gaHLWKqtj1g//4YtePqAoAwbNn4dL67cee3XvGdUIAAACgZpS+iiKepgfZKT28QNYbkg9mWmKXST7b71vlfa/c3G+6d9WMpV8ndr5Ek0A5ItWjE7LV6tgWjvLSwAn9rnqX/jfP+uT9c/knNuWt7mXtLHflGcgeiaip5rHJmdIoqrZF81XFVhVRNTiMoip2/RAvvtj1I6oCQPBsnTub1GJP7z7tKgGb9i3d/8aRHccvuEoATAJJPmfkAAAmEF1UVY6Tf+977XDihhJVBTFTkDVnFhYEgUzoufXsAPPQ3U5YZVFV7cOZY0Z1CBXh+2rddSnX9T+xbgfYzZN5QEUJNUZiE0zFiA1h5BBqAETV4NBFVez6IWp8setHVAWA4Nm4ZzGpxRzqTfe/cSRJAKIqjI/ZpStJHlu3ZW7x0orrtAAANIrRUlXRBbJTWYBfLl5O3N4zV4SYLJaqqjFp52BalLqEKYI9U0HJVMXWrzNFrkiwesyIDmGT9baF3npuZarlugXJtrUfWs+ThZGYJYBizVQXc1XzK0TV4NBFVez6wVtisutHVAWA4HliZ6cie/3QOSd333XqYnL3e18+ePXGqpMEwISQ5nOHFtkAAE6oMv0/dXc8t3+tku1VqajaVVWzXpWufA0tqmbxpd29Ek0NwiPNGnkGyT9x5je4qFociV1UlZcJFDO0nsewVA0eo6iqHGPXD74QkV0/oioABM/67ceSWmzXqYtO7v7Yu58ld3/mA37RYbwsXlpZ153GNbt0pTw0AEAs2Kb//+zEsiKqHvz1teTPm7dyn4sr4njnAJaqyYFiJaj35cpkAkFo0CLoy1rGmFEJQqbzaVutaU1iygUB8RMbZQKTulQSiZZn1IiLBAxjHIiqwWGzVMWuH7wkHrt+RFUACJ6ZY+cfmTn+2fJ1J3ff8M7JpA6dd3R3mCie3n3a7UoXAADNU5+4M5ioKvXpxf58bqtVPKFV6Np1Nr4wT27UYkYmCJ10q5O29Gcno7RaBiPTNS1PFM6DtkQir/an5LAsKm0KtTjvVZMaEFWDo+L0f+z6wROisetHVAWAsNl16uID245u2rf0yI4Tribgs8wlNEOS0zBTBYBJA3EHoARjx3+06yl3wVEw/R+7fvCRWOz6EVUBIGA27Vtav/3Y+Ws317p7oz/5/inXKQIYOxveOZlk9R3HL7CMLwBMAoGIO7mFoMFMEGDMGKy4KmNYjTCYcgc5uqg6Atj1QwNEYtePqAoAQXL1xupj736mbNqT/Llp35KrJAE0wOzSlfvfOLJ17uyGd06u2zL3yI4TSZ4/cu6q63QBAIwLxB2A5qHcBUetoipApIzBrh9RFQCCZP32Y1vnzur+j+w48d78cgMJ2Pzqm7/9l6/d9Vfbf++Hf4ekBY2xcc9i4rI/k9z+9O7T979x5IFtRx2mCgBgfCDuADQP5S44whFVsesHl9Ru14+oCgBB8vqhc0/sNDQazl+7+dDbn45b5dz86ptT3//F1B/+2dTvPjj1B3967w93o6tCM6zffmzXqYuK5+zSFURVAIgVxB2A5qHcBUc4oipAZCCqAkCY2IxS3zr65bgFprufeqmjqPa58/f/6KG3Px3rHQHWumMGd73wie6vmK8CAMQE4g5A81DuggNRFcARiKoAECaLl1buf+NIuktVytUbq898sNCApertP9g19Zv3ZKLqunXraHdCA7x19MvH3v1M9zearwIAxAHiDkDzUO6CA1EVwBGIqgAQLK8fOvfo/3kiPd6zcOmBbUef3Xumgfve869+0Zn43+fb0//8vlcPNXBfmHCe2Pl5kucVT5v5KgBAHCDuADQP5S44EFUBHIGoCgAhc8+LB7Yd+bIZA9WMR/+PX039j/9Xaqz6zUc3fPNvj+44fqGZW8Mkc/8bRx5797Mks129sZp52sxXAQDiAHEHoHkod8GBqArgCERVAAiZX3159T948cC//n+bMFAVeebf/X+//dLBpPa864VP3jr6ZcN3h8lkfvn61rmzG945uW7L3CM7Tmzat3Tk3FWj+SoAQDQg7gA0D+UuOBBVARyBqAoxkmZrHA7n1rmuCWLmvfnlp3efvv+NI3e98MnipRXXyQEAGBfx/qC0W1PTMwtrawsz0+mB8WwVRo9hshjyzXRec6ud/p/S+UuItEsnZssNukHEa5SA/Sh6sUgekn9ZbMr9bf5FryLechct/U+GqArQMIiqECPOtSQcDjflui3u/PFxuMlxbgs7xI2ex762ZS7xuefFA2KA2zbvzwLcvfVA4pMEazShA1Ms7Y0uiSKq2hjqzSzMTPcuarfbfZ++qKnFmIdW7js9LQqhwnUdjTS7RJHJjQkuiA1RdRLpfzJEVYCGQVSFGBF+VHA4nAPnQ1vcucyEw02Oc1vYIW6UPJYqqmLeK/jT78yJqOqKYd6MSSVN4kklzXbLqHlKZqT9+7bFiLKUCAJtdr/cwyqqWmJDVJ1E+p/sc9cJGQfY9bsCu/4qrwJRFWJE+FHB4XAOnA9tceoBHK4B50Nhh7hR8pginqYH2Sk9vIDYI5LELKnLp3p0QrZa01OaQiYGnp6ZEXtiWfi8m5ddbbmklzDDWTFJxkRUiGHSUT5qX46UO97axxI/ZYmmOtVqCSpB/57qFb3PJJunZlKR8m3F6+2iqjE2RNWJxCiqYtdfR/yTDHb9pgSoIKpCjCCm4HBunQ9tceoBHK4B50Nhh7jRRVXlOPn3vtcOJ24YUVU1J5S6bf0Qto5U51R6dVe0y81lTPJbftZ0SfFZUfA1pqU4hglHf2td+VR7u8JZ/VNKGaWn0YqGpP2Acr+/IGb5wKAqiDprkahaeGALqZ9SoW4PDl1Uxa6/pvgnGez69VM6iKoQI4gpOJxb50PjjHoAh2vA+VDYIW6MlqqKLpCdygL8cvFy4vaeuSLEZBJVFelRsAntq2b2ftRChR5abv2oa2fFyprZhtHQ91wri2HCMRiBGm2WtY+lBtNefKaliifzY11Y0BXXGixVDbEhqk4kuqiKXX/Jo2HXbwC7fkRVgC6IKTicW+dDW5x6AIdrwPlQ2CFuqkz/T90dz+1fK7K9skhp/U5kf/23AgFOplRUzWPrB0VUbZ6Koqr+sUpFVVHMNIiqBZaqWbJGtr2yxiaEz6NCVI0Zo6iqHGPXj11/Idj1I6oC9EFMGdF9bct+pU+iuyTYyeV550nF+el8aItTD+BwDTgfCjvEjW36/89OLCui6sFfX0v+vHkr97m4sirEJC/qJveO+t00vZNf0I8q7vMrBl51yQRG6ytkggKMMoFJMDJ8LJMlVX+RQFP3W/hCdtsrIV1TkhBhFB70CyvEpigc1sUMEVUjwmapil2/DENQdrDrR1QFyEBMGcVVUVR5w7hi50NbnFw6tGNYBVfd+VDYIW7qzGNZP7Az/TATUeWpoqJSUCwTCBGaZ6fmk0tbrWm1L2q+xHBWTFKBvFsYw6SjfGajTKB/LOnT57124/zizNOgF4jJUKV8fYdq08zlCqKqGpuQSkk5ylEKgJK9qNuDo+L0f+z6EVWtYNc/lF1/xcYwoioEBmLK6D3kwEXVn7em/unMwvjC40qcD21x73Oppy74YZWFl6Ypzg06Hwo7xE0YecxqQwqxYNyhuqbQHhJGuQMBo6iaHmDXb0okdv062PUPY9dfsTGMqAqB4XWH33uXvLr/es9Zxemefr9hRFXHzoe2OPXAKN8uBFFVLLYUYWfOh8IOceNNHpNs+hRTQl1dcJUSGB/VlXOpyx8m3pQ7qIouqo4Edv0TCnb92g3K7PorNoYRVSEw/Ojwh+psoup3/92ZQlHVKHC0s0qq1e6e6hiRpXyv3Q/Zav3T/p+KK7i875Pea+Z7/Qqu3fXJAv08CSP8OPzcFLMSXrspbqhc5LwtTj0w9LcLZFgFUdUL50Nhh7jxOI+pigJANHhc7sBMzaLq+MCuP3omzK6/YmMYURUCAzFlxB7yUJKKSeBof0/QMeUw7e9lAmj3QE9JuzujoC1fLqqraVRdSTS9S3I7QavVFBZJ6tVizhMmpxk3jPOhLU49MPS382NYpfhacSzke/K4SHZ3fcRFimd65iVrOnGDZBjnhR3ihjwG0DyUu+DwSVTFrn/SmSi7/oqNYURVCAzElNF7yINP/jVJKl3xQtcyTPKH5jqBZZ1F9ulOFLDcV4m2/b3+LbNUKQqOEF5JM24o50NbnHpg6G/nxbBKpWuNlqpiPWAccekppwsz/3TKnE7cAM6Hwg5xQx4DaB7KXXD4JKrqYNcPEYOoCjGCmDJiD7mKZzU7tY7rKhddFaNYzVRcXaJqflV7ZrqCqKqk2fXnCNT50BanHhjl2/kxrFL92tLBFSFJ0y8trBWmEzd4hnFb2CFuyGMAzUO5Cw6/RVWAiEFUhRhBTBmxh2z0PHt1vjBYu2vm3z3uGIWpGqXFKq1gJcTS6f/6TH+TmJIkJtVQ8hUDCqf/q2l2/0VCdD60xakHhv52VTzHPqwy2LWjiarKvVx/grCcD4Ud4oY8BtA8lLvgQFQFcASiKsQIYsoo7jc27zd2m0t98ln2nSUO+5NqpfUTZXOzYju1jvu5sP+gcnmxmNLfnErceGr6e61pMaQUcx5eTzNucOdDW5x6YOhvZ/RsfFhloGsri6rG6f/qvdx/hYCcD4Ud4oY8BtA8lLvgQFQFcASiKsQIYkotneRBZv7icJLzoS1ORh3O+TKsUn6tOHYiHheLqnnM+UZVDKWM4Hwo7BA35DGA5qHcBQeiKoAjEFUhRhBTAnQ/lzdnRNoI2/nQFqceGPHzxT+sYlhSADew86GwQ9yQxwCah3IXHIiqAI5AVIUYiafPj8OF6Xxoi1MPBOUcDKt0jFvz9VVxQzofCjvETX15LCn00zML6TbU3YPiYING6zvFjz/IU4weg2OGTOpCd5kbcR9zcRfz3oSJbsyWG3SDSDufywHb+S9h6tuWfxoz/7LYlPvb/IteBXV7cCCqAjgCURViBDEFh3PrfGiLUw/gTK49ky8igJlqDc6Hwg5xo+exr22ZS3zuefGAGOC2ztIlPe7eeiDxSYLJMVWU0mIXVYc5O3r8XjFUUhdmpnsXtdvtvk9f1NRizEMr952eFoVQ4bruQF//EkW3Nia4IDZE1UkEURXAEYiqECOIKTicW+dDW5x6AIdrwPlQ2CFulDyWKqrCUiRrBX/KmRNRFVE1ZZikmlTSJJ5U0my3jJqnZEbav29bjChLiSDQZvfLPayiqiU2RNVJpFZRFbt+7PpTsOuv8ioQVSFGEFNwOLfOh7Y49QAO14DzobBD3Ch5TBFP04PslB5eQO8sdQ9mWnIHTDzb74bpHcO+T/d6Y0dL7IBJ2pkUkerRCdlqTU9pgpzlplL4vFeZXW25pJcw41PkSTImokIM3qG85b4cKXe8tbcnvtsSTXWq1VKykemK3nuTzVMz7UZ52eL1dlHVGBui6kRiFFWx6x8KhqAysOs3JUAFURViBDEFh3PrfGiLUw/gcA04Hwo7xI0uqirHyb/3vXY4cUOJqoKYKciaMwuiyiX15bpHeeiuXFdZVFWtF80xW/ptxpsaw0sPaLqk+Kwo+BY/WpX34Bz9MbrfXXtc4az+bqUv19NoRUPSfkC5318Qs3xgUBUsObBKbIiqE4kuqmLXPyyIqhnY9eundBBVIUaUXwgcDufE+VAPOJeccLi4nQ+FHeJGyWP6D82UyVL1l4uXE7f3zBUhpmLtSfKcFmU4wXKzJ6UtGPtmCqbIFelRj7mg22a+qW1GpC7VFQt5ZpNJQ1d3rSwG3zAYgRq/u/b21GDam8i0VPFkfqwLC7riWoOlqiE2RNWJRGj3Kj7Y9eePgF1/Gdj1I6oCdKEdAOAWH8qgc00Zh5sc57awQ9woeSz7UzlI3B3P7V+rZHtVKqrKEwX1LtzQomoW31S23FyB3idTKqrmsfWDIqquVRZV9bdXKqqKYqZBVC2wVM2SNbLtlTU2IXweFaJqzPQ/mSSqKsdT2PUb1L78LHb92PUjqgL0oB0A4BYfyqAPaQCIHgoajBtdVE0PfnZiWRFVD/76WvLnzVu5z8WVVSGm6qKqbtJi6GeWdY/lNeTkMP1eoTFmW7etuM+vGHjVJRMYra8ikAlMCo7h7ZksqfqLBJoykvDK7LZXQrpkmz+j8KBfWCE2ReGwLmaIqBoRRlFVGWGaMlmqYtfPEFQP7PoRVQEyaAcAuMWHMuhDGgCih4IG46a+PDaYqCr16cX+fG6rVTaRM+t2dmY7ZiKqeWJsuUxgvqlqrtg93WpNq11f8yXGp8iTVCDvFsbgHcp7N353/e1J3yLvtRsn/GaeBr1ATIaqres7VKsxmy6sEJuQSknKyVFypPK9qduDwyaq6gfY9WPXbwa7/qHs+hFVIU5oBwC4xYcy6EMaAKKHggbjhjxmwGpDCmPDtE5gXaE9hHIXHAXT/7HrN4wn5QJdLhBj149d/xB2/YiqECe0AwDc4kMZ9CENANFDQYNxE0gekyz+rHuW1BShri6Mk9ofLVSqS9lSlz9MAil3kKOLqiOAXT92/dj15xTb9SOqQpzQDgBwiw9l0Ic0AEQPBQ3GDXmsj65VAIwLyl1w1CqqRgR2/c0zYXb9iKoQJ7QDANziQxn0IQ0A0UNBg3FDHgNoHspdcIQjqmLXHz8TZdePqApxomdr0Wd26Uq2fExynJ29ffP+O5+fky7sVoxKPZwvmA0NoC/tUhpcWmJF+FD5nAttlkLj6ayAcSUXvZ1gngeRL94jo4Y2x6bc2uZv9OnhQ1vchzQARA8FDcYNeQygeSh3wRGOqNoA2PVDkyCqQowo2To5nt75eeaTHJy/dnOtr65mwW6s3rpw7SaialBoy06LK7h0FuXRF2uxbPbnHWYFc3pa0YmN68IrEq91cRlLbNGKqgyueA0jKJIPIygAPchjAM1DuQsORFUARyCqQowo2Xp++fqasAFixnlZQl1ZvVWl9YCY4hOWVbHzs/0PJRzmwQyrYvuDRdRoiw9p2j8xRRWcLCt2m2OLRGdhcCUuGEFhBAUmFPIYQPNQ7oIDURXAEYiqECPGbG302bhnMTu+Z+uBTfuWpBCCmCLOIkBMaRC5kz8jGqAp2/7pukkumi4o4mHqbVBa7FtbSrdeE3OEujditiOisnekGoMWh/laNW2yuNI9NKxbIz5b0TaIhthi0VkYXIkLRlAYQYEJhTwG0DyUu+BAVAVwBKIqxEipqJrKKE/tPq2HkTwzUTWV7/riGWJKg4id/Knc/ky1RFszqSZloqr5EqOoqt1avVQKnGm2UxUT325lMrF2rfEW8oFBHRaFliJRtfDAFtL4uiR8aIszuBIajKCoaWMEBWCNPAbgAspdcCCqAjgCURVipFhMSWf77jh+4b5XD2WLKoouv6YvpohCKhZqzWLs5Ns8BxVVjdJM6V0yacM061a9U0kMkj5nvtaUtt4j1KCzGGKLRWdhcCU0GEEx3oIRFJh0yGMAzUO5Cw5EVQBHIKpCjBSLKcq+NKI/oqp/1COqioeCKFFdZzELlEJmGE5Ule9eXVTtXZz5DDsj2BqbED6PKjCdhcGV0GAExZQ2RlBg4qkvj4nlyJyfpWCDRus/9e+zVyV+D9/PkEnqV8D61INepNkUBcsNhFE3Y0ra+awMYZhOQg3NJoTQB1EVwBGIqhAjSrZ+avfpTCgRt/zOgukHPfpiStp6EjvHiClNUV1nKZoRbFYGi22+2q2polvnF/TtzoqN18w2cfL9KxqvZSkVWtf5pXrMpaKqGpt4vRBxYG1xBldCgxEUY9oYQYFJR89jX9sy11mt5cUDYoDbNu/PAty99UDikwSTY6oopcUrquY0mWYP389QSRJW6W5no3XWFpJxg8ROKDYhhDGBqArgCERViJGK7YDqomr/ULI0gkYoETt636X7PYr2rsmDCl66zCIE6+4nbr91niEM03v71gQzxYmX7Nfy+cLKtfqr6GGwnzPnzwqiqhqbkDJJ+lFsJXSfHj60xRlcCQ1GUPRXkaWUERSYXJQ8liqqeu1t/FPOnIiqGYiqAyfJpJJmPz29hV3MJ5X7sgkhjIdaRVVxVLigsMRbW2LX32PIJE2UXT+iKsTJQKJqkYUahIXRLKCm0EOmZ1JlNx+KEoMrocEIiv4qejCCApOMkseMlXZ2Sg8voFcy3QN1ZzlpOESaniCWuaK95jK0y4QCJy2F3O75p6uDGNJTGsA4EGV+NLEGmZFaKuY+Y+lAl8mz0vtpDNN+g+0shfljyN+mE6zVmtYXbVnLLsjq887viBydfYNE+Vckk67YhBBGwiiqYtc/MgxBDZ6kCbPrR1SFOBlUVFVMG8afQBgX1WVMydhrPOjGaZODD0WJwZWYYQTFGygvMG50UVU5Tv6977XDiRtKVLXtLGfZAq7SXnMpuiWS0PTIT6oDd8I4kjACUxLAqG8WbJon904Nq6cY35slBsuLLXs/jWH+EFpKxbP5OcNr0qerCAHNb9YQs3zAJoQwMrqoil1/HSCqDpykSbPrR1SFOEFMAXfoBmmTiA9FicGVuGEExRMoLzBujJaqSr2dncoC/HLxcuL2nrkixFSsPUme06IMN/Bec9lV2mLKBgN6YxpKE1npKQpFT/Gsva873E2rvJ/GMPxaWF5pbqpa8JbkaKb6GrvYo6+yQWKbTQihZnRRFbt+7PoHB7t+RFWALhXbAcZdvxPPBlIIEDc+tMUZXIExwwhKB8oLjBujqKofJO6O5/avmVTXPtVFVXmi4MB7zdmv8lFU7T2N3aR/MkTVPFiW+jJRVRQzDaKqfokYIZsQQs0YRVXlGLt+W52PXf9aPwn6h9BSKp4Vfjf11zQZdv2IqhAntAMA3OJDGWRwBaABfCjsEDe6qJoe/OzEsiKqHvz1teTPm7dyn4srq0JM1UVV3aTF2uEfQSYo6OSXJlI8rr7tnqW72OmjtlrWZVKM8Rff1H+ZQHs50uvU35LQj+8vEmh6n8JrsdteCemSDePYhBBGwGapil1/fUNQbez6hWoFu/4MRFWIEdoBAG7xoQz6kAaA6KGgwbipL48NJqpKeuBge82Jd7RNaC3u+Zcmcs3cvy3edk/wbLfEZJkskIzPkcdfdtNK76cxlA9h1aa7Kc70ZakLnffaDbOSBU+DXiAmQ3oVbEIINVJx+j92/SOIqtj1K7Imdv0piKoQI7QDANziQxn0IQ0A0UNBg3FDHmsAcycYRHzbIHHMUO6Co2D6P3b92PVXA7v+Yez6EVUhTvTJvDgcrnnnQz3gNg0A0UNBg3ETSB6TLP4CW2dZNZUK9kHGjFcbJI6bQMod5PQ/2eflQcvBrh+7fuz6q9r1I6pCnNAOAHCLD2XQuaaMw02Oc1vYIW7IY+Mk7Uw678aDd1DugqP/yWoRVcEKdv3lTJhdP6IqxAntAAC3+FAGfUgDQPRQ0GDckMcAmodyFxzhiKohm8Nj11+NibLrR1SFOKEdAOAWH8qgD2kAiB4KGowb8hhA81DugiMcUTVQsOsHG4iqECO0AwDc4kMZ9CENANFDQYNxQx4DaB7KXXAgqgI4AlEVYoR2AIBbfCiDPqQBIHooaDBuyGMAzUO5Cw5EVQBHIKpCjNAOAHCLD2XQhzQARA8FDcYNeQygeSh3wYGoCuAIRFWIEdoBAG7xoQwWpOHyyuqLHy48vu3ww8/PJi45SP5MPBtOIUAE+FDYIW7IYwDNQ7kLDkRVAEcgqkKM0A6A+mi3hlqSXNr0UNnXsL9XpL57ZOpjuWU3kLQ9ohxQ2IIyi0dBDW2OTbm/zd+eUj/KoC0NH33x1aOvHPjGj9qKSzyTU82nEyBofCjsEDfkMYDmodwFB6IqgCMQVSFG9Gz9tS1zic89Lx4QA9y2eX8W4O6tBxKfJJgc05CCGkTEUHlgYWa6d1F3p8hWqyUprOmxKFYqPvn1SkqmpxV1th+so5Fml3RuKuunA8UWs6j60RdfPbjp40xI/dZLc9/+8Vz2Z3KqTFctyA+1VBfUORNOHRlAqQCGi6BTNaQb3U5l4y/GxPlQ2CFuyGMDMHLxHyr+4H65RhwvV+vGLNJs/JrRcWgeRFUARyCqQowo2TpVVDOXBTD+KZeH4JqJUDvD5AFNE23noqpw2Aum+8jBpJS0xahFEVYOrhrKWrpA5tgiaYvrabi8sqrYqH691RlHUexVC9cBGE5UrZ6LxhESAmLoXFRffhCqoXa779OrTwzjPT4Udoib+kbKJ4omfyOC+z0acbxcrxv1GBkdh6ZBVAVwBKIqxIiSrRXxND3ITunhM/Lh4daMJFr1WiB9WUoZOjYPYIMDTF9NGPYXWsKt1vRUrhqI581fuTASvSWdS6QLiozZaus+WjjpAeQGePdQ01Tl6+2iqjG2WNriehpe/HBBmfKvi6qJS4LZY0VUhbHiXlQ1KQHmYaEUHwo7xE19I+UTBaJqAbWMl69JM42M7SxGx6FBEFUHA7v+SmDXX+VVIKpCjOiiqnKc/Hvfa4cTVyyqqgPIaqeyWz7ztpBWAk1NLGiUIilArDSzb6b/AApfud3ShHJjJHo7enBR1RyJkscEUVXNamJjvEhULTywhdRPqfjQFtfT8N03D1cRVR/fdliNayFT1WdaUmaxzI2WTgm/8kbd3ha/jKzja3FC0JgyQMkXL8pjcpntjwmlAz5qQ1PNjSWaqn7eh8IOcVPXSLn8myWJWVJtaqrbhZFXhYLL5V/hopJYLYCa8u7BTMsUsl1mFlDlzZR5Vvjl8oZxjJdLmmp3oSc5OkbHoVmMoip2/RVgCKqAoRI8YXb9iKoQJ8b2t2LFkJ3KAvxy8XLi9p65IsSkNCiV4WipaPVOC41p9A4PMBkR5K1mYw/BJmWuabW5JZJ6RFWjuasi29bQFjfEFktbXE/Dw8/PVhFVk2ByTLma3i3ftuET04tST9nO6vHbKPgcECjFGaBY4CjOY8qYkKjXaiMBeTx5ZdL7QVPH9qW/fSjsEDdjGSnPjtUcba6iLbWteSBWUFerl8TKRVUp4HkE+nLtyq+8clj2Zko8B/rlckv94+Vq3SgENL93Q8zyAaPjMDK6qIpdfzUQVQsYJsGTZtePqApxUsWoIXV3PLd/regXRSo8aQUhVBPiWdHIHSXVI9SvZlgccHBRtTiSQlFVPCxaU7WoLZ4ldORfF2tsQvg8qsDa4sWi6p/89b6vt+aurNxcKxVVVdk7ywPK8EmFU2ums8b4dYp0fAgZWwYoGf6x57FSHbYkr2o/Ye1WgfGVD4Ud4mZsI+V5KZCaekWFS0ZvM8g+/eJUVhKHDFAqeurNEtsUqsHjr/jL5QPjGi8X6kbxZJvRcXCDLqpi1y/lfOz6K4FdP6IqQBebUcPPTiwrourBX19L/rx5K/e5KO1RIxeeToFNqgupPtGkurbdogFc0Ptq2mC/ccUGszmDVk2XR6LXwuJEb1mjNKqW9l+X/LmUhoHRZEK/sEJs7ZYx4sDa4noaHt/Wmf7/x899nBqoJiQH33pprmT6v1VUtXTSivtvxk54ade0RMeHkCnJYCMM/1QSVe0jQGZfNYAPhR3iZjwj5VIVmv4GWobGIxBVdbMABUTVIcbLBV+zqKpfojY4GR2HGjGKqsoxdv2mkLLUhl2/9pm05xDP5ucML3Ey7PoRVSFOamwHtFvq8JkygNUdk5HqCsnMAaNV93S/h/55cn1cr0y1ATr1Z7IkEq22l38q+neQspLuY5wHIcSq/jC3W5Z8V0FUVWMTMrHUa8rJGk9TekA/2uJ6Gl78cOEvfvqrsxdXkuM//8lBRUu1b1RlbAzpDUdjw0I5ZTtb1tiSsh6iamSYMkDJFy/NY9WVGiUe0Vy+bejPa7WbD4Ud4qa+kXKh36Xl/X7WLi5cCqUyQUEnf22QompM+QCiqmYWYHgQLf7im4YuE5gEo6Jat7huNH0pRsehWWyWqtj1D1JbtrHrx64fURWgw/jaAZo25nG1CA6xW4M0c71zfGiL62m4vLL6xFtHv/M3h2xyauIefeXAZakT3qXfdLBsVFU4x7/fSMzVbn3cxRi/hK7jq0M+EDCGDFD2xYvyWPW+hyGevPYxzMszNJV9KOwQN3Xmsawf2Jl+qAwOihNKqskEUoz6hNay0jdQUdVTXhaV8hshSXZV3kzpTct/ufxB+UxW5VqudaVPX1I3Zp4GvUBMhirlMzoOdVFx+j92/cVDUNj1Y9c/qF0/oirEybjaAWr96ne1CE4x/CpVpqTnEwI+tMWNafjoi68e3PSxTVFNTiUBnKQWwBeKxnQM53wo7BA35LFaMHdzoTqDjXczOg5NUzD9H7t+7PqrgV3/MHb9iKoQJ2NoB6SFr3rRAphofGiL29Lw0RdfPfrKAaONqjeKqmQ5ErzEDqFhGxMyjvf4UNghbrzJYyHXzKqpVLAP4pTq4+WMjkPz6KLqSGDXX/3NlN4Uu/6o7foRVSFOaAcAuMWHMliQhssrqy9+uPDdNw8//Pxs4h7fdjj50zDrHwDK8KGwQ9yQx0bDaBYAUALlLjhqFlUnGOz6R2XC7PoRVSFOaAcAuMWHMuhDGgCih4IG44Y8BtA8lLvg8ElUDdkcHrv+Opgou35EVYgT2gEAbvGhDPqQBoDooaDBuCGPATQP5S44fBJVAwW7fhgORFWIEdoBAG7xoQz6kAaA6KGgwbghjwE0D+UuOBBVARyBqAoxQjsAwC0+lEEf0gAQPRQ0GDfkMYDmodwFB6IqgCMQVSFGaAcAuMWHMuhDGgCih4IG44Y8BtA8lLvgQFQFcASiKsQI7QAAt/hQBn1IA0D0UNBg3JDHAJqHchcciKoAjkBUhRjRs7XoM7t0Jf0zcclxdvb2zfvvfH5uvA2IzvrX+urX7RZLYtswv7HC4NkGgspugv39G9Poan7pA6azAnoCuw8gbY8ohxE2qMyeUUENbY5NubXN3+jTw4e2uA9pAIgeChqMG/IYQPNQ7oIDURXAEYiqECNKtk6Op3d+nvkkB+ev3Vzrq6tZsBurty5cu+miAYGoOjTyq1uYme791d29sdVqSQprepxdkof2ErOCOT2t6MT9MB2NNAuvSLzGDFYQW7Siqi+DKyNBdTEOTG+1eKRk2PGebKgjvzjw8R4fCjvETYOVufXnMoBaN7xhe7FhZh7lLRsbtrVV7CPQeYzZrYWg6dbf0p2KR6Bz5ApeSap4LaPjMC4QVQEcgagKMaJk6/nl66mnEuy8LKGurN5y1HrwucnrOdKr01RSoa0sHObB5La0Z1gavm3xIUWBWH4U1WTX0tEyxxZJWzy0wZWKUF2Mg9rfqmW8Z2Fmpq0ECH68x4fCDnHTYGXuv6g6aGK8SryCVPtZx4wNfxaHsccmNo16tbHcOpRGu0rTVtwo0hXPsidldBxGA1EVwBGIqhAjxmxt9Nm4ZzE7vmfrgU37luQgSvMoF7DEYW7NoxOy1ZrWG1NShP2rpmdmPG7yOkduCM6IJl3C+H3nTetKRN5WXlDEw9TboF0Yv7h+6zXtqxd/WWMMhqxUmCtyww2hAa71E/Ko9QepFlssbfHQBlcq4nMPOVzGK6qaVNK+X/jjPT4UdoibBitzRNUmkYeUzKO8xj+Lw9hjM0QjtgiN9W71EWjNxxAlo+MwRoyiKnb9BrDrx66/1toSURXipFRUTVveT+0+rYeRPU0Sm9rdlWqfTOyzlDmpcsnbcf5W4s4x1fv5y1M+kN54LRRVzZcYRVXt1tZsYPyyZYkXco49V+i1vCCqqjlIbIwXt3sKDmwhja9Lwoe2eM2DK+1M7xatUApGV6Q/2y3T50iCCN9b1tflsRnGYMaL8RNXGCkZcrxnLatBIhjv8aGwQ9zUV5lbcnJ1TxntV2CtqPAYfiuMP9PV6xY9OQMk3gPaip2+aZR3zfSn0VNtq5hi09vn/TTYNNWS2IobRXqk9tgYHYeR0UVV7PqjHILCrl+uy93b9SOqQpwUt7/TH5Idxy/YrhX+MjVzFblLHKjp1QgFRc6ogvlciTvHWLXZPAcVVY3GraV3MWWDki9rjUHKOSW5Qv4tEXPaCG1xQ2yxtMVrHVzpf2zD4Hb/JSgZ0PZnu5X8qmeRKWK6EL/YXmgzBjNmjJ9Y6oebRkryswOO9+SnIxjv8aGwQ9zUW5kbS0E1TxtigVaC6j62Cr9aAa/SwgzmJ6PdUh+qtB2iXF7cVjHG1mt7qYtDCXVxrkiXxNZuya1/LUlWUdVwwOg4jIwuqmLXH6Woil2/b3b9iKoQJ8Xt72zKQ4r4u6IM3FmauR3SJlfP0Kio96uAqDoo9Yiq4qHw7qsrF2XZoOTLmmLQc051UbV38ci/LtbYjL9zgbXFxzO4IgtfU4IJkWm4Rfqz10rJftT7XvLX68cv3JTqYuwYP3HFQj1o1SSJLBGM9/hQ2CFuaqvMjTm5uqeO4VdA+1kv9DFU+APULXpqwmph6qJq5leLqGqLrVfLScNQ6peqEltpo6iwJm8zOg41Y1tTFbt+U3IGSLwHqLWlXPhHrS1NsbWx60dUhUlHydZP7T4triCTHWfB0pkR4hIzfYRSq9UtopWZVumUNXm7V4VgR+Cc6r0LY+NV/JnW2u7FdgH5h7WKqmtSNij4srbE6zmnyvT/LKVTJltGPeYKv69ybOL1QsSBtcXHM7jSzyF5TpGykaCzK3+mwVLDv4XOtP/sOkRV95g+8VhEVa3SaQc/3uNDYYe4qa0yr1dU1X8FEFUHwySqqqO8WUj9KaoMABtjE4Mb07BmeeFKbGWNohKrC0bHoWaqiKrY9esXhtAf12uqUk1Quby4frPWeNj121+jCKIqxMgQ7YD55esvzJ01nMgqgVarV5Da2libaNdjHBKXohPFKv9HxpxTIh/03qJayWfBhPq5/8L13ox6Q+WLG2+tZoPiL2vRPtScU5wr1HxlsEgzD8pW+X1VYhNSJvXNcpS3MCW3RHxoi9c3uCKIzJrgpjcClXwoaqfixP8kf4k5Rmg16q2NUNp84WL6xCVt7urCR6FYGv54jw+FHeKm3sq8NpnA8CswhEygzaYsKeBxywRdlDFjPYDgK7W8jAPAYmztGbGR068hRZM4XcQsSFtxl1tIkTkAo+NQM6WiKnb9QmSDJN49ptqyjV2/8fKyN1CSNkRVgD60AyYUgxJRW+gh02OeHxE/PpTB+gZXOj+i3T2jTGMpnTMmnd08+iLq6XpfSOxGyr/cjMGMF+MnrjhSMsB4jziMIvd9Ax7v8aGwQ9yMY6RcysnVPSW0XwHxMqkmkX0MFX7lAi7XLdqzVU+8D1hEVYMWbOvK2gaAbbHl30IQGQ2j71OSIFkhNsNIszHBZU+qJ7DoDRTHFsPoOAxEqaiKXb8QWfiiKnb9WhLtb6A4ttKXUxBzCqIqxIg37QCppWJsAkO9VJcx2yYTgnpptyyN6gnAhzJYXxp8bmZBsww3UhL1eI8PhR3iZix5bIJHPQGqQN0eHLqoil1/iahaJfFeYBE0setXH872Bopiq/RyrDGnIKpCjNAOAHfoJl6TiA9lEFEVamfokZKIx3t8KOwQN+PIY4OXAt+GyX1LD8QGdXtw2CxVi8GuvyzxPoBdv9d2/YiqECe0AwDc4kMZRFSFmohjpGRcT+FDYYe4qS+PxVGWAZqAuj04hhNVy8GuH6AERFWIEdoBAG7xoQz6kAaA6KGgwbghjwE0D+UuOMYkqmLXD1AGoirECO0AALf4UAZ9SANA9FDQYNyQxwCah3IXHLWKqtj1A1QHURVihHYAgFt8KIM+pAEgeihoMG7IYwDNQ7kLjnFN/weAEhBVIUZoBwC4xYcy6EMaAKKHggbjhjwG0DyUu+BAVAVwBKIqxAjtAAC3+FAGfUgDQPRQ0GDcpHkMh8M171yXfhiA/idDVAVoGERViBHaAQBu8aEM+pAGgOihoMG4ca4r4XAT61yXfhiA/idDVAVoGERViBG/2gGdlb7TTRPbrQF3TwQPGPKrdT57d2H3bMvJLBZh7ffe0u+Kj+WW3ZikxeLlgMLmllmGU1BDm2NT7m/zL3o5PpRBH9IAED0UNAAAAOcgqgI4AlEVYkTP1l/bMpf43PPiATHAbZv3ZwHu3nog8UmCjTNdiKohMtRXW5iZTi9amJlpq/EkR8o+mppPdr2akulpMaSQto5GKsm2sn46UGzRiqqiz+zSlcwQIznOzt6+ef+dz885T7wdz6oRJa/FyoCPmY2pdOiUTbmcySMfjKAAAADAiCCqAjgCURViRMnWqaIqzmQp+HOcnUPP1BCoxDBfzaSJ5n7tlnpS9zEor2lK2mLUWdokDWdN9bCKqpbYItFZlDQkx9M7P898koPz126u9dXVLNiN1VsXrt10nng7PlQj9abBhycaEfkR8rLetUFvtVpSYUyPxcLLCAoAAACMBKIqgCMQVSFGdDFFFE/Tg+yUHl4in5gt9ITbPc/EKzufdTdzi6FeF7agmwrjRZIa+6/f+IFaren+38onl7548VfuR2JTSdT4+4F0H6PS0nsAWVzpHmqaqny9XVQ1xhaLzqKkYX75+ppQ9jPOyxLqyuot5ykvxIdqBFFVQXoErewKIyTCoTjMwggKAAAAjMIEiaoTMk3KAaOueteLwz5DS/eJYM4WoirEiS6qKsfJv/e9djhxZaKqpDjlipxQdvNesWFKt1ImI9AOQsOsZmQe+YcU9U1NEBG/eMFXFtVJo0aiG6MWVNbGRQIsOcqgwIq/bkWiaoWMGqrOYkyD0WfjnsXs+J6tBzbtW5KDVBTWFTle+lPOiUJ2U5V2KViu9S9kd5+xViPGEaAZrSljGjbo3kg2ZhRVd+nZhUaLsgKw5SlMaRDfbXbNjGkUxPzytYcdN3IpkJ5IeSF6acw//oIibGZfnxEUAAAAGAGjqDq2FfCa79WO9Y7FkU9OF36oJx1shpbuE/ycLURViBOjpaoy3z/5975XDymnEvcfvnwwj0jQCAwKgu0472IjqjpHqLgNYpj2XQyCxaBfWbzpWhap8cMX1tZGaUaRbWvQWQyxxaKzlIqqqY3qU7tP62FkT0FYN3zM/ktQPrvtzyQnTmcr7k5nqpwgzBpletHOuSw3iSNAWbtFiEAfNsgHh9RBCOOzGwuF9Sm0NBSlfOAEGNbOGAfSY2pPVDocUiiqMoICAAAAo6GLquNcAQ9RNUqGedLBZmjpPmumhnBmVCG1m/P+gFdzthBVIU6qTP/Xf0IMvyjVJTaDvJVVFIiqLkk/gzyEZvtAlb94cSTSL4Nx8G1ND6f5FOgsWUJH/nWxxiaEz6MKTGcpFlXTpVR3HL9gu1b4S3pMSQoThXVF79T/7Cmd2Y9632tBNdDM150wCOyWd15xBKg8hyuDEMZnL4+5KKTK4AkwPOy4MVbjNs9BRVVGUAAAAGAkdFF16BXw8gF4849/W5+0lE2uaqsTudraFJ814+wqrVEnhjHcUYup+jSp4siVxKhnG58sVRVvVr0ravdGOWcLURXixDb9/2cnlguG6fQL0zpEG3spFFUlmQtR1QM61WxS7WuGXGazO6Md30BfeU2q2Q0jb0LClFuJPvZfFyHwlMmWcU3Lt6Wiqhpb22gkGZrOUiyqJgezS1cyf3FlVWXrKpMAbRTW+6eFLyH8mQZLtcLutP/sutpE1YHGA4zBtEEI47OPUVStlgDDU4ybekRV8bCwmmAEBQAAAAbAKKoqx4OsgNdqG9onYgBJc9OaCGIbSZviY43Y0MWy3DGPfJhpUmoCiptPltZsQ5OlKmNub2Ye+csRBWntJY++6t3gompRS1g78G/OFqIqxEnFPl4FUVU2iao0/T9b+7DVwlLVC9LlXbRhT8MHSlFG4wb9yr17yOGmhMFSbbTP4GNsbaj5R50J3lZHUm0XVohNSLj002d9lim5OeWDzqKk4andp7OhlFQ2VQZXpnd+LgYQYhKaDrquqDVIlN96MTOIE/9brawpprQIjTPKxQFlmzRZpfVZ3EjNBiFMDWVr2ozt2oKQesqHSEDDlWl1UbVoxN78ZhhBAQAAgNGwWaoqhkTZqSzALxcvJ27vmStSdIIyacLewMs7B/aGk96cVa4aylZggBF9Qyeq2iM4mCxVnbY236v0WapNyS35pqOLqmHP2UJUhTgZSFQtmv4PMBxFk/6buN45PhSlIdIwv3z9hbmzmnfnR7Q7yUVsPmnCuq7GT+lXWMaG8yZaSQu12kZVpSNASkK1Zq08fUh79n4U1hlYxSNPhvcrxl4lAdrDjptiUVV6BK30ys3N/utnBAUAAADqouL0/9Td8dz+NZPqmjOcqGqYyGVtCubTufSrxi2qKgmo/ggOJksNgDrfa+BnKX7Jtm86yAwt3ccaidRS9XnOFqIqxMmgoqryMzP+BEL8jPKbK4tKQeJDUaovDUUNsvjQJMCmn915AkZlsDERRlAAAABgVAqm/+sr4B389bXkz5u3cp+LK6tCZO0Bp/8L4lgufJWIqmui0KZeNdz0/+rTpOQEDPYIHjdMF5yuepdHYp+hFeOcLURViBMsVQHc4kNRilpUlcwG69Tg1WZN7c9elvKxJ6AJqo+pMIICAAAAo6OLqkNTIG1mmCctlayQJuh0UjtQv2pND1TnNCltPpkQuSEx0pyqpidLDYTLVe+EOMtmaOk+Ic/ZQlSFOKnYx7vv1UPKrIfO6t2vHmoghQBx44POErWoOg7SJkX1Udn4EgDD4ENhBwAAmHBqFFUBBmDiV71DVIU4oY8H4BYfyqAPaQCIHgoaAACAc8Ypqo5tglRDhJ5+35nwVe8QVSFO6OMBuMWHMuhDGgCih4IGAADgHCxVARyBqAoxQh8PwC0+lEEf0gAQPRQ0AAAA5yCqAjgCURVihD4egFt8KIM+pAEgeihoAAAAzkFUBXAEoirECH08ALf4UAZ9SANA9FDQAAAAnIOoCuAIRFWIEfp4AG7xoQwWpOHyyuqLHy48vu3ww8/PJi45SP5MPBtOIUAE+FDYAQAAJhxEVQBHIKpCjOjZWvSZXbqS/pm45Dg7e/vm/Xc+P1d/57CzH970zMJad3e79KCuCPubGSZ/iZ5Dx9YcNb2K8WJKZPHrGvBlZlslZntS5hf3vWrNOkOmswJqAn3QWWxp+OiLrx595cA3ftRWXOKZnGo+nQBB40NhBwAAmHAEURWHwzXqEFUhQpRsnRxP7/w880kOzl+7udZXV7NgN1ZvXbh2c5ydw9qVxI7w1hXlnKckuARUYRzfS4hwYWY6/WthZqatBEgO0g+b+WSh/SQYUfWjL756cNPHmZD6rZfmvv3juezP5JRrXTWIohEWdbzSkcch+iMonf9TlBIu0x1UkSp3OWA2DiOMuyiooc2xKfe3+dtT6kdhBwAAmHAymyEcDufElZTQZioCgLpQsvX88vXUUwl2XpZQV1ZvlRaG0RizSOcyJcEloArj/V4mlbTvl2mqYjDB0z/CEFUvr6wqNqpfb80l/oq96hjWAaiel8YRcsIpeFHF77C+NywU43a779Mrz8bxks6tp6fFEi8kpqORZpcocq8xzQWxIaoCAADEgHNFCYebcFdSQpupCADqwpitjT4b9yxmx/dsPbBp35Ial9GuqN3zTLyy81l3M7cY6nVhC7qpa2LfWgprum+rNd39Mw2U36evw0ndbOVi4W/BpKn3Z//C/LosSd2zM9JUdBPqHU1R5Z7dGPWb+iYZSt9a0DPUlAuPI39r6b0pr92mpGjnMi3VcIX40Qtuvaa95QpPoX90/UsZP2iXKj8t40ZPw4sfLihT/nVRNXFJsLrTgqjqEPeiqqm0C4MkhvGSfuUjVQT5b4MUXPKwiqqW2BBVAQAAAADGC6IqBEapqJraqD61+7QeRvaUjINyaUyYb5lbEardYr13ap/oqXauzffVdD2jplYwT7X4QuEZpHVgRWnWqHvqd7RGlcmDhsVCe0/qD8IHNiyMW/w4xvemvHajjqJN9c8D6pdYv6N6a/XS0qcoTLyQJ7Vre/igs+hp+O6bh6uIqo9vO6xFZlCl+4McBrm5cBhjMHk6oyROUDC90kG+i23wqXxcTfu+JZpqwXiJbJ7aPdQ0Vfl6u6hqjA1RFQAAAABgzCCqQmAUi6rpUqo7jl+479VDJZbbgrml1rVesx4rJqSlomreve7LilXva/I0dLkLkmS90CDv2tKv39EYlaoUZjdVntQfpOdVX4jxccpla5uoKgnTFlFVl14GyhXix6v4FGoM0pcyX9vDB51FT8PDz89WEVWTYHJM5mEDTZ/SBwaK80MleVqjtD6BtbJXWv27WAYtisbVjPFo9vrqIEflMTmDAitWuEWiallNVeBvi7mDD4UdAAAAAMBbEFUhMIpF1eRgdunKmrD0jHiVJqpWsQ1ck3q8qnVSuQiSBs07y1XvW01ULUqS9cIGRVW/lFSB/7+9u1mR41jTON6DZzPgzeAbOBtfwfHKRhcg0NkZjLUpr73RJfgCEo5sT2PLHM1gbIE3ps0stdNKHkYltZq2Gxs8CAlRHloD+jAtpLZaPVmVVZnx8UZkZHVV5xvZ/x+FnZWZFRVdmVEinojMMv/euqLrCFW9mGQs3VM1lry0vvXib9jo9Fcct5xXOYeq731+5+1i5/nh9DfrWkLVeHsUBwYiwxgd42nrPYNDI7CFPtJOx6Vb+4oMFPkt147l4+Ml81dHvjNTZ6oKpRGqAgAAAGtGqIrMOH28Szce1oFpNU3VmZfqLyxYHd/FmmiPul4nXzAeCEGmneKiGJn3xUt5X3GlN6suViWnNPOaffGKdbH+rZf/u1eSO1eaa02GjLoJH0joz0kMVaNhqfj5x2eoNZWNHTLjl7BS/gr37w0d5Vwu/794bXr5/7uf3a4mqJbKhfNf7bRc/t8eqnYZxugYTyeVCUfLEE7acVk+VPXLEYaOxrGbqvojOtb3+DL3VA2WZuwvf/NHSp7S0NgBAAAAtQhVkZnEPl5CqGpPO0q6/L++k19RJM9Unb/KvRz8JHOmzGlzfpUWezglN28a/xt9zjuKRTV7BX6oSuPl/7P7ZppVE2a9BX+oyvvcjI+9CTOcmW32rsLkYbeO8/2K2Fu7xyfxrzgOnB7ufMyMfqjq4+9/ffTHYbn8/tc/OVlq+IeqxGEDq7l1HMboEE+nlQmH9JEuc1y6h6pCOeYIylhIP8P3VG0KML9LjUEr7+1aQ1W3NPP1RsGEqgAAAMBqEKoiM51C1djl/0CK5W5iIP16zar2XsZKb8WgoSn5dTg4PProu18++ObnUJxaPi5c3S138wpzYmkxpao3x4cxusXT7nuEyoRD+Eg7Hxdp8Kk1VBXKsW/t4g0hCeMlwhxzcYDKO/4JoapbmlEna3qvM9Ljr5nT0NgBAAAAtQhVkZmuoao5TXX9nUOra5phIpJ7/Vdv6VsYpMeY1tS09VjtjRg05CxiHW49ePbO5duhRLXcVO7QS20xZLExkfWPl6yZhsYOAAAAqEWoiswwUxXrp/e2BV2s66/Q0JRCdbj14NmFq7viHFU1iSpDF0MTGkE5hfGSddPQ2AEAAAC1CFWRmcQ+3l/+/WfnR6vKR7nyFGoIDJuGnCVSh4PDoys3Jx9+u3duc7t8XLy2Vz6VrvoH0EJDYwcAAADUIlRFZujjAf3S0AY11AEYPBoaAAAAEEGoiszQxwP6paENaqgDMHg0NAAAACCCUBWZoY8H9EtDG9RQB2DwaGgAAABABKEqMkMfD+iXhjaooQ7A4NHQAAAAgAhCVWSGPh7QLw1tUEMdgMGjoQEAAAARhKrIDH08oF8a2qCGOgCDR0MDAAAAIghVkRm/j2eu2d5/Xj0tH+VyvfWNT+++ubmz+s7hZGu0MdqalEvjYr6wBs279ESuwDr/ZHTS8QyZ7l6M50/Kw9g8cdeIx1hDzqKhDsDg0dAAAACACEJVZMbp45XLo+v36zXlwuMXr44X6Wq9259Hr5+8eLXOzuHJE8ZVZZSnlnUSqubCPlKTrdH82TRc3SiKoglVxTXuUdaQs6yuDpzGqC15MlijFMYYR6C46aiFPZBh7zjbXqmH7Bzu3nJpzvuH1sf+cA2NHQAAAFCLUBWZcfp4956+rFY6uz22I9TDo9dr7hkSqkIt60h5Kem4cGaqOmu87RpyFr8O//Jv06nob13ZNXf4p0/v1jv865e75ZpyN7skTmPUljoZ3BY1SzmbcQt5jv9o5LSxxW7TV9cvcaagi9WLlEaoCgAAAKwXoSoyI/bxxDWf/Ph7vfzWl7uX7+y7Zc2m5c1UHdJZx3I8X1muqrfX3c1mxpB7eXS4N968S93vtd5oMaXJ3clgv8tW4U1WMvesy9mypk/Ny/DfWvwoQhVo9pzVgzRKicgZ4pxafsrTFqp6r9CQszh1qBLV+lHvID61K0+oitoyJ4PTPsqn069e898M9zt18SXcvKx+X2fOq3+rjsBtWOTSCFUBAACA9SJURWZaQ9VqjuqlGw/9feyV1uSgJn4yrrecb/ZvOin0TkOdUuPF1g1YN4xOdOtdWc13MRLg1gDU6M8vFtveev5RxCpQFTkLV0mjlIifIeap1RahCmvcHTTkLP5tQMzw9Nj4TnDWe5oPRx4y8ccwhHEF5xMOFRgYk2gZ0kASaQxJPqZFMbK+xprt8phTtBA7U51GqvY6Ya6qOcA1Mdf4mar9+nCoKpZGqAoAAACsGaEqMhMPVatbqf7w25PQa5snxgTSRW9ZTka8azPNjKUtVJ24Pf2m6z6JrbSJ7xKJcf0Erc5KpbcWPopAmRNxPhR6Fz9DThiqurGQhpzFD1Wd5fK/f/mPvfKRHqp6a0IJtT+uEG+Y8TGJ1iENpBHGkMxtzSEww2zvVhgb3rGKFzIWbkDsfk8mj8kJCaz5T0gsVE0Y6iNUBQAAAFaMUBWZiYeq5cL2/vN6vXlnVeenq6Q5QW2havOSuu978lC13mMdoeq8okZXXXpr4aMIlEmoqtRaQ9VsZqo61/vXm+od/uv3g/Lx3//73CgpZcjkuK0JpI3BiK9tH9JAIn8MKXpM0/8JaDkxmksR5mutAy3ecMOJZFcwU1UojVAVAAAAWDNCVWTG6eNduvGwTlKq2NTJVkbX75s7GCWZs43qNdFQtV4nXDgfiTjNy/+byW5N91u4RtsvZMlQddYlLwqrWy6+dTwfjU+1Q+/SQ9Vh3lNVvPy/evzzZ3ePpdR1IWXIxN4tMVT1CwyGqiSpq+GOIcWPaWKo2n5iNN+ilvkukZmqdSWsf1qWuadqsDT734LgvzWEqgAAAMAyCFWRmSX6ePeevvxi55GwwZwjlnT5f31DxDqmbA1VzXexCpzdks+amjbvlLf+UFVLqOqWY1/GKr+191GEKtBEB/xQlSYtZ4h5SngZaVuo6m3XkLOELv//z/956oSqP/3fi/Lpq9fNmj8Oj4ySUoZMju1P2B9XMKKveoRCLlC8/J+GtCLzMSTvcnn5mIqX/3caSzsWr9hPvKdqs7P5r4P1fe2cG62hqlvauBALJlQFAAAAVoNQFZkZRB/vVC+c9xIyApyzTUqBOu2toQ2urg4pQyb2sjiuUM9TLIpwgYHXtgxpIN3so/QHi+RjemxOL/XuwZJ4YgTug+rPZG24X8LurH9jzmvgzrDppRnnljVL2plQ66+Z09DYAQAAALUIVZEZ3X085wrQUEASTzYTC0nb2e3xp4SqnSqA/KRfcW5Pc57T0AY11OFEV+5z1f9gxEYpuo1gKKSioQEAAABaEaoiM4Po453OdNFqjlLqZZ5AIg1tUEMdTnLdPtf8D0koIRfHJPKioaEBAAAAahGqIjP08YB+aWiD/dXhJNfqc50/MqOhsQMAAABqEaoiM/TxgH5paIMa6gAMHg0NAAAAiCBURWbo4wH90tAGNdQBGDwaGgAAABBBqIrM0McD+qWhDWqoAzB4NDQAAAAgglAVmaGPB/RLQxvUUAdg8GhoAAAAQAShKjJDHw/ol4Y2qKEOwODR0AAAAIAIQlVkhj4e0C8NbTBSh4PDoys3Jxev7Z3b3C4f5UL5tFx5yjUEBkBDYwcAAADUIlRFZvw+nrlme/959bR8lMv11jc+vfvm5s7qO4eTrdHGaGtSLo2L+cIp6+t9oUlzHibvXoznT8ozqHnirhFPLw05S6gOtx48u3B1969/HzuPcmW56fTrCWRNQ2MHAAAA1CJURWacPl65PLp+v15TLjx+8ep4ka7Wu/159PrJi1fr7BwOPlQlvc2XfewmW6P5s2m4ulEURROqimvc464hZxHrcOvBs3cu366D1PNf7fztHzv103KTkKt2zKMDklvHat4OmVrFt+iJT6HFmMqssc9UrV3tCAoAAACgFqEqMuP08e49fVmtdHZ7bEeoh0ev19wzJFSFWtax81LSceHMVHXWeNs15Cx+HQ4Oj5w5qm8XO+V6Z77qeu4DQOtAish5Ej+FVneCNe1/PB4v1sxbuNIRFAAAAEAtQlVkRuzjiWs++fH3evmtL3cv39l3yxJn6oznK8tV9fa6ozm9MNp8RdPXDXV6p+uLYjR/gfuO7nO5SluFU416t9m2UGc7UnidkpnVtv8W602bv9vN36BC+rHzc5O2UNV7hYacxa/DlZsT55J/P1QtH+Vua6gOoSpS9B+qCrmp2d5VjqAAAAAAahGqIjOtoWo1R/XSjYf+PvZKo5s6Lpr4qc6m6hDTv+mkkKVGQlXjbZx3dHuwgSrV+aq3NItJxff1rxE1/gz5VrDm3yK+KbGRWunHri1CFda4O2jIWfw6fPjtXkqoevHanl1S/eF4gxDefu5mYWyjdWAmEn9joKQxMPt08katrJPR2TpOPtnEYbxYpqpzBAUAAABQi1AVmYmHqtWtVH/47Unotc0TY9qm11k9Di433dv0UHWx3n9HJxNNrJLV7w28r/VTRMKaRT86PFM1thLapB+7JUJVN2jRkLP4dTi3uZ0Sqpa72SUtPhz/Y5BZ+bU3ttE6MBOPvzE88TGweMs1R9cCo19JJ5tZTnOmzf/BcQf21I2gAAAAAGoRqiIz8VC1XNjef16vN++s6vx0lRA7toaqwr3nuoaqQnRS9WwXPxySUCVCVbjWGqpqzFnioep7n995u9h5fjj9zbrUUDU867vZ0RxQkZth68BM654YltDXdXB8Ln3AL+UfLL8c798g82oKlSMoAAAAgFqEqsiM08e7dONhtaaKU+vlerfR9fvmDkZJVldysSbaR7UuFO4eqgrvOLfoyCZWaSWX/zcFNLeHJVTNVXqoOth7ql68Nr38/93PblcTVEvlwvmvdpIv/59qRjgc/oAKoSpSiOdJbHwufcAvfRTQLEc4u8fhm6pqaOwAAACAWoSqyMwSfbx7T19+sfNI2GBO5Em6/L++N15RLDFT1X/HsXebxsQqjetbMUZ+qMorvSnceEm9V1HE++rzHblMWaOWnMU8dl5G2haqets15CziD1V9/P2vj/44LJff//onJ0sN/1CV23Klu06GBlTEy/8JVWGSzpPY+Nxxl9G11pPNKcc4u8fjsV+4yhEUAAAAQC1CVWSGPh5wInJq2GFvDW3Qr8PB4dFH3/3ywTc/h+LU8nHh6m65m12SMQ/dGeGw+AMq4tgGoSo8wnkinE7WqJU7umZuTQ9VhXKa9mxs8u8LU9PQ2AEAAAC1CFWRGd19vCaYOd1ZnX29L7IUuLuvYCz9hJKGNijW4daDZ+9cvh1KVMtN5Q691BbQIjamonQEBQAAAFCLUBWZoY8H9EtDGwzV4daDZxeu7opzVLskqoxSYLBCYypqR1AAAAAAtQhVkRn6eEC/NLTBSB0ODo+u3Jx8+O3euc3t8nHx2l751LvqH0A7DY0dAAAAUItQFZmhjwf0S0Mb1FAHYPBoaAAAAEAEoSoyQx8P6JeGNqihDsDg0dAAAACACEJVZIY+HtAvDW1QQx2AwaOhAQAAABGEqsgMfTygXxraoIY6AINHQwMAAAAiCFWRGfp4QL80tEENdQAGj4YGAAAARBCqIjP08YB+aWiDGuoADB4NDQAAAIggVEVm/D6euWZ7/3n1tHyUy/XWNz69++bmzuo7h5Ot0cZoa1IujYv5Qqv0PU/4wqXf6Gxojt1a9p/uXoz9VweOSrl6w9zf3XG2vVKfcA53b7k05/1D68U1cxpyFg11AAaPhgYAAABEEKoiM04fr1weXb9frykXHr94dbxIV+vd/jx6/eTFq3V2DglVs7C+z8QuebI1st5nlnLO17jb6pePrBjWKHD66volTrgr/kWR0gYbqq5rcKVKr9fXkuSwnsbbq5OMoExPGLvl2WMhqzyuXUeG2rkV1NDYAQAAALUIVZEZp4937+nLaqWz22M7Qj08er3mniGhahZOKVR1ctPyabFlrCr3taaRLl4+Nl9WF+jMefUjnEAkJ5c2zFB1bYMrTkJ2ami8moVGUKYtc6MoCqt5Vstmc9Z8ZAlVAQAAgA4IVZEZsY8nrvnkx9/r5be+3L18Z98ta9YFnjH6veP5ynJVvd1Mw6xXxDKp0NtY72LlcHbR8gvrK7+rvfxXTeqSt8hlHM0V89NPyz52W+aEMjvHnO8Y2X9sl2znJtNIdWytE3IV9z2a6nmZqv36cKgqljbQUHVtgyt9hZuEqprFRlCsMRNjsdlNGFPRg1AVAAAA6IBQFZlpDVWrGOXSjYf+PvZKK3FqojEjt2z6wG4n2I+iQiGIf32m8y7OPKa6MuILyxVmxib/CUbcSi7jMA+TFFLXn58QjET3d0s2k/HF8bTmjSafUUICGzgHUkobaKhar/TXtA2uTP/MohjNj6M1StFk5eZMRGcYZvHaSDneu3gVmH/OjIhosewIyvy186MsN/rwmErbWx+HR9rEk0csodtQnIbGDgAAAKhFqIrMxMOU6mrfH357Enpt86TpWPpTF4+Dy27M0haqCtMMpZL9ygReOBqJfWPjVcIV36iFwwth5SIOa8L1+P5CqGpdGRyZ3OacY+bZeIKZqkJpZyZU7TK44s/nNUcp5O+BOl8zvxqi5YRaoxXWMyKiw3IjKO6awEhKZEyl7a3dl8ZPnrbKJwzFaWjsAAAAgFqEqshMPEypf5emYl7869xdMTXuNJebl9Sd5RWGqvZu8gvtnx8SX0WoGpMeqs4/S+MTXSJUNSa1WbPF4qlKdVzrNcveUzVYmrF/U9SgQtUOgyvSXD95oCV9GKZlT4c4JZnG269lRlCM18ZD1eiYSvyt3dQzfvIkD+CFTzwNjR0AAABQi1AVmXH6eJduPDR/5rternerfr7G/B3wBX/uWFuoasVcaaFq8Cp+Z9mvTPCFzrxZbx8mu0V0CFVnWUNRCHNCWwuRfosm7Z6qzc7mBbvNUT32DnprqOqW5s6udO8OHCjEoCFnWdngihuGhsPu9GGYlj0dhKoKrSZUNRft4ZnEmariv0fzBm1d/t8tVO0wFKehsQMAAABqEaoiM0v08e49ffnFziNhgzlnJ+ny//rOc3XW1hqqHpvTFd274IVmtzU5l/hCIy/1XzWu76DHbRkF848neEW8dRytMLNtf6PkwH1QIzmMd/4IM9KcsyPwwoTSjJPG/lvtCbX+mjkNOctKB1fMAxMfAkkfhons6bBGVhgR0eEkIyh2kurPBI/fJbk5d4LfS0YZ8ZMncQAvduJpaOwAAACAWoSqyAx9PJwaIfxMJM1VTdmWBQ1tcHWDK+Ks3sBl+6nDMG3lhCrAiIgWJxlBsb82FsfUGp0Rf65svl8Re2tnoK3l5EkewAufeBoaOwAAAKAWoSoyo7uPZ03uk37pG/k4WfgpXAI+Y89+zZKGNqihDsBUty+K9Y+phL56lkJDAwAAACIIVZEZ+nhYv2oqF1MFZRraoIY6LIVxlwFKjzFPYUzFv7z/JLJtaAAAAMBpIFRFZujjAf3S0AY11AFQQ7gn90rQ0AAAAIAIQlVkhj4e0C8NbVBDHYDBo6EBAAAAEYSqyAx9PKBfGtqghjoAg0dDAwAAACIIVZEZ+nhAvzS0QQ11AAaPhgYAAABEEKoiM/TxgH5paIMa6gAMHg0NAAAAiCBURWbo4wH90tAGNdQBGDwaGgAAABBBqIrM0McD+qWhDWqoAzB4NDQAAAAgglAVmVlzH29cbIy2JmsrHljekifnZGu0UYyr11fqUqab5mZ7eGvEt9SQs2ioAzB4NDQAAAAgglAVmfH7eP/ybzvlmreu7Jo7/NOnd+sd/vXL3XJNuVtC8YSqUGupk3OyNapeNNnaGrvllEvzMNV4D3tN/fqGhpzFr4O5Znv/efW0fJTL9dY3Pr375ubO2is/TaarD23ZQ3bSb6HF+7YU1VY9+eVn4Euy4yGoxy2mpmMXRhtaDGWc4IRYWT0TuBXU0NgBAAAAtQhVkRmnj1clqvWj3kF8mtA5PAN5AXK1zMkpZKLGunHhbvTX+DmrhpzFqUO5PLp+v15TLjx+8ep4ka7Wu/159PrJi1erq3zrEUk/ZKv95kksbbk35UvS/gSa9jSb510UhZWwVsv1S6QWqQihKgAAANABoSoy44cpZnhaLdSb/P0Ns97jeH6186IfKa6ULpOu9twqNoJ7OlMAcaaZU9nq4KK+Hn+xbbqhKEaL587JJJ+c0ULEBKcOepryFzv5a4QUSEPO4tTh3tOXx0bbrz22I9TDo9crrTmh6tlkfQJe+zBGIYxFcyhD8T8OhKoAAABAB4SqyIwfqjrL5X//8h975SMhVN1oJg81V2caF2o2k4zMW04ae7rbjR6pMOUPZ5ictNQrmpPKzDe9sMY/OeOFCPmNFIn568w1biEachaxDuKaT378vV5+68vdy3f2vcK8kZCkQZQmza5vP7vIss1jERi5mRjFToSivJS7bTjHYldgEnqVdc5ISZ9Qk1kpg/9ui3xuzsHyxy2a9mJtM8cy/Ani7ikhvvWxPNASPEDJI3/hg6uhsQMAAABqEaoiM+JMVed6/3pTvcN//X5QPv77f58bJVlB0qLDK3VuJ+4sw+ieBr3TkXD6jAuBhVmm3h0X7bNusbefvEQLcfPQ4C0Yo6mqGwJpyFlaQ9VqjuqlGw/9feyVcnjdeRDFzbK9QRr5Rqt++um+PK0mDjFUDdVfONWkcszpzWcqVG097sH7EsuhqvwS+ei7b+2+NH6AEkf+YgdXQ2MHAAAA1CJURWZSLv+vHv/82d1jKXVdMPux5g+knzBUJUmFrEpY7BswOlPXuoeq8UKsDCZ2M8dYMpThTNXqVqo//PYk9Nrmif85p7f3UMwt79C9qA41cQRmqkpvOor91JFRE+vvOFOhauvB6hqqipNb008J89OPH6C0kb/owdXQ2AEAAAC1CFWRmdDl///5P0+dUPWn/3tRPn31ulnzx+GRUZIxs6wJL1Lmi7XsOfi8AUuahhdFMbIu4w7PYRRnUHqnXHshxuzJUODvv5W5Jod7qtYr64Xt/WZaunlnVeenq04xVI2O3PQWqs5S1eBIEKHqiUJVczHaFDudXfNc1DoZuoWq3glPqAoAAAAshVAVmVldH2/ae5zdA9G7X6HfjxV+v6d1Ty7/h6P6cfCx9XR6TpWnoTCxcX71rnj/RDtMjRRSBybOBLX6sl/v/PdOXi8C0pCzOHW4dONhPXZSxabO/PTR9fvmDkZJrZf/xwdRWkNVf+TGiLWa7SccznF0mKlaLoRTUqEmZ+/y/9as3J92at6r1DtqwpTx9FOieYE9qCIeoMSRv9jB1dDYAQAAALUIVZGZ1YaqQ48GcObFLvpf8vUacpYl6nDv6csvdh5JW7woOXkQZf5K59el7PTNG7kx3rAoWopKH85x/6IOoWo4KTVetajzWfyhqthx91uIPQqx+NwioxTmbsYpEZiZbp2q8QOUPPIXPrgaGjsAAACgFqEqMkOoCnRykjv9GlMlGxpyFg11AKa6jVucdJQj6R1Wd5UEDQ0AAACIIFRFZghVgX5pyFk01EGNZvriyW47sqpyzpz0GFMcpVgt//L+k6ChAQAAABGEqsgMfTygXxraoIY6AGqs62beNDQAAAAgglAVmaGPB/RLQxvUUAdg8GhoAAAAQAShKjJDHw/ol4Y2qKEOwODR0AAAAIAIQlVkhj4e0C8NbVBDHYDBo6EBAAAAEYSqyAx9PKBfGtqghjoAg0dDAwAAACIIVZGZSB/v4PDoys3JxWt75za3y0e5UD4tV55yDYFh05CzaKgDMHg0NAAAACCCUBWZCfXxbj14duHq7l//PnYe5cpy0+nXExgqDTmLhjoAg0dDAwAAACIIVZEZsY9368Gzdy7froPU81/t/O0fO/XTclPfueq42BhtTXqtwhmyik97sjU6WSHTAopx9f/K9FmwcuXqxR7NGmPH2fZKtdZYYa1vK815/9D6cE115Cwa6gAMHg0NAAAAiCBURWb8Pt7B4ZEzR/XtYqdc78xXXcN9ANLDu3XsiZDIZxj/eFf34U+2RvOSxuPxYs085my2OW89GplBqFGZaUZav8SJe8U6R0obbKhqrtnef149LR/lcr31jU/vvrm5s2zlgx/1dGUwhT/xSSWXzBfFWdVxvKf54jmuvkmswRZzjXhKaWjsAAAAgFqEqsiM38e7cnPiXPLvh6rlo9xt1XUhVNWp/1BVyk3LwhdxhrFovfXYfFldGSsVOXZXhJM+ubRhhqrl8uj6/XpNufD4xavjRbpa7/bn0esnL16tJVTt9qqT44sCIvvEaL6JZlPmi8L46hHXuCeVhsYOAAAAqEWoisz4fbwPv91LCVUvXtvzCnMuzZ52R4tiNH/mXrdtXHA9XWFcfl1PQLT3r9eMtrZCCUhLmUgnfdpdDpmz1U4bx/M9yy31i5oj6h76lkxV2j5/O3t6aj0F0jkbzNfHkj6htIGGqveevqxWOrs9tiPUw6PXJ6g5oSr0s04M75vGH8+x13jbNTR2AAAAQC1CVWTG7+Od29xOCVXL3eyS/KsozausrTzK283Pofz9m+sqZ5lbYvJCVrKc+Kedfsj8rbOw1Vs03lAsp0km5omre4dTP9pwamiEqu4ZYeas8aQvshD5ZCIlT2nIWcQ6iGs++fH3evmtL3cv39m3d7FCc6H5B+L1cFotDNV4r5LvtduM6Pg1nFiviozTYOjsU26rMMZ4nJEh/7ujLVT1XqGhsQMAAABqEaoiM/FQ9b3P77xd7Dw/nF752xKqChMAhfDCzT02zEmK0f0n4sXXnkiZSBf6tDsdskiUJkwLNWeS+uV40Zh7X9Rwgjl/9QpmqgqlnZlQtZqjeunGQ38fe6WRlDfjLG3xurDnYsE9+E4oHwniI98R7usTxmkwVPYJ2fzb5P8SXluEKqxxd9DQ2AEAAAC1CFWRGb+Pd/Ha9PL/dz+7XU1QLZUL57/aabn8vz1UtbcKPzTUtn9rqBovE+nET7vrIVs+VG1NLpy1kZmqdc2smY/L3FM1WJqxf1PUoELV6laqP/z2JPRa45n1Zy4OTOuZ4O9phezGB5cexIcavjhnmS+KMyv+1XTCUNUd79HQ2AEAAAC1CFWRGfGHqj7+/tdHfxyWy+9//ZOTpYZ/qEq8/N/sjtpbrYxL7L4KNxNomVbWUibSSZ/2Moese6gqlGMEE+OxkH6G76naFOBcYm7/gHcgs0sqbVyIBQ8qVC0Xtvef1+vNO6s6P10lBdDHCWeCv6f1cVUfebColkDfQagK01pDVWaqAgAAAB0QqiIzfh/v4PDoo+9++eCbn0Nxavm4cHW33M0rbGz9jpEcRZn3p6uuIy+KkZFPbfi/euTeLiB8A8S2MpFO+LQ7HzJja3qoKpTj/Oa2eVLMX+oeXzcjE+Y7+uVIL0wozaiTFdI16gvSN/wddeQsTh0u3XhYrani1Hq53m10/b65g1GSETJbU5vN36fz0nNhhq/wmdvRvrNzJNB3cPk/TOmhKvdUBQAAANaLUBWZEft4tx48e+fy7VCiWm4qd+iltjijhLmoSduyoCFnWaIO956+/GLnkbd6vPiFKC/4nq8qzLjK29MLs5yRmtQgPiVUTRmnweC1jPeY40bed01bqOpt19DYAQAAALUIVZGZUB/v1oNnF67uinNU1SSq1tQ/JqMOm3CF94x1KX+eNOQsq6sD19FjuLqN4Ah7a2jsAAAAgFqEqshMpI93cHh05ebkw2/3zm1ul4+L1/bKp9JV/wCWpyFnGW6oytALVik0uuMTx3s0NHYAAABALUJVZIY+HtAvDW1wuKEqoIiGxg4AAACoRaiKzNDHA/qloQ1qqAMweDQ0AAAAIIJQFZmhjwf0S0Mb1FAHYPBoaAAAAEAEoSoyQx8P6JeGNqihDsDg0dAAAACACEJVZIY+HtAvDW1QQx2AwaOhAQAAABGEqshMpI93cHh05ebk4rW9c5vb5aNcKJ+WK0+5hsCwachZNNQBGDwaGgAAABBBqIrMhPp4tx48u3B1969/HzuPcmW56fTrCQyVhpxFQx2AwaOhAQAAABGEqsiM2Me79eDZO5dv10Hq+a92/vaPnfppuWl1ueq42BhtTTQUgmFYxckw2RqdrJBpAcW4+n9l+ixQOQ05i4Y6AINHQwMAAAAiCFWRGb+Pd3B45MxRfbvYKdc781VXdB+ASASWno6tY09kaukzanXnxmRrNC9pPB4v1sxj1WZbTUPO4tfBXLO9/7x6Wj7K5XrrG5/efXNzx36h9DHKIXX7B17uMf/Y+tKk4huLyk4r5a6LrUffuo6RdNy/adzH1imrdgQFAAAAUItQFZnx+3hXbk6cS/79ULV8lLut4v0JVbFa/YeqQm46LXyRuxiLFQ05i1OHcnl0/X69plx4/OLV8SJdrXf78+j1kxev2kNVWdue08+xKPzPco3sKtnh2rjwZxvPglQhQzPXoxfr+6r3TpL5s1kAXxRG81Y6ggIAAACoRaiKzPh9vA+/3UsJVS9e27NLcjKFanm2MJ7P9mr6l5N6zVbhTwCb9kmNaV/1DD/ruVyIo6VMDMZJzyhnq3wCl1vqF/kn80Z4LqoVpHrbNeQsTh3uPX1ZrXR2e2xHqIdHr719VhaqVp+T9Gmuj1klawJiYB9zr9B69OKUQlXv/LTHTFSOoAAAAABqEaoiM34f79zmdkqoWu5mlxQKVRf5UzPtq7lCcpZHOV1fO89yC5wuzpbihTjEMjEYqzqjoiewsWi8oVhOk6PME1crWHGDFg05i1gHcc0nP/5eL7/15e7lO/v2LuI4ivEpiWMh/pBJnVZZqVWnjNucGxwY79kqjJfbwXowFXW+Q+r9QuvRg9gYiXXQ7cM03zH5JBFGUOzWrXIEBQAAAFCLUBWZiYeq731+5+1i5/nh9MrfZUNVKxHx+qFWJrXorXqvNe9sWEceYiGOSJkYjJWcUe0nsLQsl+OFadOamFMgrZNQQ87SGqpWc1Qv3Xjo72OvdGJoJ3oW428/mHauqrYvq2/JuBefvjWKE4jL3RfZZ4ifAwvfIYSqOiUfdOHOHMknidDYnTUaR1AAAAAAtQhVkRm/j3fx2vTy/3c/u11NUC2VC+e/2ln+8n/ncloxAhN+yceJwOy+a0qoGi8Tg7GSM2r5UDWeqvhrNeYs8VC1upXqD789Cb3WeBb9GINHygmmrR2Nz7jb4fAyMqlKoZXukQ3Ndg99t5zufQvg6nTQF2lpE9KnnSTtoarGERQAAABALUJVZEb8oaqPv//10R+H5fL7X//kZKnhH6qyow9jpk8z4cyb89PMVqs7qsH5ZU4aGr/ie7FLrEwMxqrOqO6hqlCOEaOMx2O/cJVXBMdD1XJhe/95vd68s6rz01XLhqp+MuUQJwmuM1R1vysCoSr3VFWqw/H17t67wlBV4wgKAAAAoBahKjLj9/EODo8++u6XD775ORSnlo8LV3fL3dyy6iRk+gvITf+zKEb2LQ6bPY37KtaX2Da/9z3fy/1ZIfN6TKcQR1uZGIxVnFHG1vRQVSjH+T1w4eTX99s1Th0u3XhYrani1Hq53m10/b65g1FSPIcSx0K8YNod+xAvsQ9m3Mbl/81bSeM98bxs/mvuXizuRvOBO7fyHdOvLqH5tMU23xJdQlXuqQoAAACsEqEqMiP28W49ePbO5duhRLXcVO6QVjwzQ3H2xK78FrZpyFmWqMO9py+/2HnkrW7LocSxEDuY9r81FrFop4zbKCMw3uO/3B10MabMun+A8xbB9ehHlzESJwVv2d88Sbz2bIeqKkdQAAAAALUIVZGZUB/v1oNnF67uinNUkxPV49MNVZ1Lhpkoht6ELv4WZzBqyFk01AHoi38Zf6oMR1AAAAAAtQhVkZlIH+/g8OjKzcmH3+6d29wuHxev7ZVPhav+Y5ipCrTQkLNoqAPQj5P9qFh2IygAAACAWoSqyAx9PKBfGtqghjoAp666W8TpjfzR0AAAAIAIQlVkhj4e0C8NbVBDHYDBo6EBAAAAEYSqyAx9PKBfGtqghjoAg0dDAwAAACIIVZEZ+nhAvzS0QQ11AAaPhgYAAABEEKoiM/TxgH5paIMa6gAMHg0NAAAAiCBURWYifbyDw6MrNycXr+2d29wuH+VC+bRceco1BIZNQ86ioQ7A4NHQAAAAgAhCVWQm1Me79eDZhau7f/372HmUK8tNp19PYKg05Cwa6gAMHg0NAAAAiCBURWbEPt6tB8/euXy7DlLPf7Xzt3/s1E/LTW256rjYGG1Num5Kt5JCMEirODcmW6OTFTItoBhX/69MnwUqpyFn0VAHYPBoaAAAAEAEoSoy4/fxDg6PnDmqbxc75Xpnvmr0PgDLharpcdg69sQwLH2Cre5UmWyN5iWNx+PFmnms2myrachZ/DqYa7b3n1dPy0e5XG9949O7b27u2C+UPkY5pG7/wMs95h9bX5pUfGNR2WmlnHXWqpk+6wxH1zGSjvs3jfvYOmXVjqAAAAAAatGVQmb8Pt6VmxPnkn8/VC0f5W7hUglV0Zf+Q1UhN50WvshdjMWKhpzFqUO5PLp+v15TLjx+8ep4ka7Wu/159PrJi1ftoaqsbc/p51gU/me5RnaV7HBtXPizjWdpanM0+bbRY33HwjtJ5s9mAXxRGM1b6QgKAAAAoBahKjLj9/E+/HYvJVS9eG3PLWsxq2u0tdV0OyMXQFubjMle9ZQ+63mgfFtTyvRFXpkYKuncaDkZYqdffZbOFsbzPcst9Yua8889UVsyVX+7hpzFqcO9py+rlc5uj+0I9fDotbfPykLV6nOSPs31MatkTUAM7ONPUyRUVeKUQlXv/LTHTFSOoAAAAABqEaoiM34f79zmdkqoWu5ml9Rc9zhLmYxMajLfPluy4yp5U2irX36I9C4YrPi5IZ4MiaffLGz1Fo03FMtpcpR54moFK27QoiFnEesgrvnkx9/r5be+3L18Z9/exYqhm4/GG0qJDr0cN2mVlVp1yrjNucHikZ1VoXm5HayHMlX3K8Xcj28bLWJjJNZBtw/zfMfkk0QYQbFbt8oRFAAAAEAtQlVkJh6qvvf5nbeLneeH0yt/W0JVP/uY2HckdPq3kU3H0laxfF/T5yVUPTNC50bkZIiffq05bMtp7IVx05qYUyCtc1JDztIaqlZzVC/deOjvY690Ymgnek4cenGuqrYvt2/JuBeffnPxfjgud19knyF+Dix8pRCq6pR80IU7cySfJEJjd9ZoHEEBAAAA1CJURWb8Pt7Fa9PL/9/97HY1QbVULpz/aqfl8v9gqOr3Ods2HUtbU0JV4eeAiDnOgJZzTzoZ4qdft1A1nqr4azXmLPFQtbqV6g+/PQm91ngW/RhTh16sHY3PuNvh8DIyqUqhle6RDU1+dzJfvm2U6HTQF2lpE9KnnSTtoarGERQAAABALUJVZEb8oaqPv//10R+H5fL7X//kZKnhH6oKzUFzYgZrElBgU2hr2+X/dQHyJDUMlXRutJwMradfWqgqlGPEKOOxcLdNlVcEx0PVcmF7/3m93ryzqvPTVcuGqn4y5RAnCa4zVHW/OgKhKvdUVarD8fXu3rvCUFXjCAoAAACgFqEqMuP38Q4Ojz767pcPvvk5FKeWjwtXd8vd3LLG9b3nxLslRq/xX4QfTX7ibZXLt9TX6TY/Gm6ViaESzo22kyF2+qWHqkI5zu+Bm6fw/KX6frvGqcOlGw+rNVWcWi/Xu42u3zd3MEqK51BpQy9uOFknl0kZt3H5f/NWzVTX1Lxs/mvuXmDqRvP2zxIRqirRJTSfttjmW6JLqMo9VQEAAIBVIlRFZsQ+3q0Hz965fDuUqJabyh16qS2Qgdgv1gvbNOQsS9Th3tOXX+w88la35VAJQy9+NrmIRTtl3EYZ9czXoojna+4YjDFl1v0DnLdwq4SedRkjcdLxlv3Nk8Rrz3aoqnIEBQAAAFCLUBWZCfXxbj14duHqrjhHVU2i6lwjzGRUaBH66XhnZmNFQ86ioQ5AX/zL+FNlOIICAAAAqEWoisxE+ngHh0dXbk4+/Hbv3OZ2+bh4ba98Klz1D+AENOQsGuoA9CMWjCa9Oq8RFAAAAEAtQlVkhj4e0C8NbVBDHYBTV90t4vRu2kBDAwAAACIIVZEZ+nhAvzS0QQ11AAaPhgYAAABEEKoiM/TxgH5paIMa6gAMHg0NAAAAiCBURWbo4wH90tAGNdQBGDwaGgAAABBBqIrMVH08Hjx49PvQ8D3Qbx2AwaOhAQAAABGEqshM71kSDx48NvrOWXr/83nwODuPfhs7AAAAoBahKgAgM73HTDx4nJ1H380dAAAAUIpQFQAAAAAAAAA6IFQFAAAAAAAAgA4IVQEAAAAAAACgA0JVAAAAAAAAAOiAUBUAAAAAAAAAOiBUBQAAAAAAAIAOCFUBAAAAAAAAoANCVQAAAAAAAADogFAVAAAAAAAAADogVAUAAAAAAACADv4fkc9WHQvS3CoAAAAASUVORK5CYII=;" vertex="1" parent="1">
                    <mxGeometry width="2530" height="1290" as="geometry"/>
                </mxCell>
                <mxCell id="9" style="edgeStyle=none;html=1;entryX=1;entryY=0.5;entryDx=0;entryDy=0;endArrow=none;endFill=0;strokeWidth=3;dashed=1;dashPattern=1 2;" parent="1" source="10" target="11" edge="1">
                    <mxGeometry relative="1" as="geometry"/>
                </mxCell>
                <mxCell id="10" value="X-Community-Readyness&lt;br style=&quot;font-size: 15px;&quot;&gt;Step 4" style="text;html=1;strokeColor=default;fillColor=none;align=center;verticalAlign=middle;whiteSpace=wrap;rounded=0;strokeWidth=2;fontSize=15;" parent="1" vertex="1">
                    <mxGeometry x="1780" y="-20.000000000000007" width="120" height="60" as="geometry"/>
                </mxCell>
                <mxCell id="11" value="" style="ellipse;shape=doubleEllipse;whiteSpace=wrap;html=1;fillColor=none;strokeWidth=2;rotation=-30;" parent="1" vertex="1">
                    <mxGeometry x="956.5" y="66.92" width="820" height="424.02" as="geometry"/>
                </mxCell>
                <mxCell id="12" style="edgeStyle=none;html=1;entryX=0.377;entryY=0.978;entryDx=0;entryDy=0;endArrow=none;endFill=0;strokeWidth=3;dashed=1;dashPattern=1 2;entryPerimeter=0;" parent="1" source="13" target="14" edge="1">
                    <mxGeometry relative="1" as="geometry"/>
                </mxCell>
                <mxCell id="13" value="X-Community-Readyness&lt;br style=&quot;font-size: 15px;&quot;&gt;Step 1" style="text;html=1;strokeColor=default;fillColor=none;align=center;verticalAlign=middle;whiteSpace=wrap;rounded=0;strokeWidth=2;fontSize=15;" parent="1" vertex="1">
                    <mxGeometry x="40" y="470" width="120" height="60" as="geometry"/>
                </mxCell>
                <mxCell id="14" value="" style="ellipse;shape=doubleEllipse;whiteSpace=wrap;html=1;fillColor=none;strokeWidth=2;rotation=0;" parent="1" vertex="1">
                    <mxGeometry x="-150" y="-40" width="1140" height="450" as="geometry"/>
                </mxCell>
                <mxCell id="18" style="edgeStyle=none;html=1;entryX=1;entryY=1;entryDx=0;entryDy=0;endArrow=none;endFill=0;strokeWidth=3;dashed=1;dashPattern=1 2;" parent="1" source="19" target="20" edge="1">
                    <mxGeometry relative="1" as="geometry"/>
                </mxCell>
                <mxCell id="19" value="X-Community-Readyness&lt;br style=&quot;font-size: 15px;&quot;&gt;Step 3" style="text;html=1;strokeColor=default;fillColor=none;align=center;verticalAlign=middle;whiteSpace=wrap;rounded=0;strokeWidth=2;fontSize=15;" parent="1" vertex="1">
                    <mxGeometry x="1360" y="1140" width="120" height="60" as="geometry"/>
                </mxCell>
                <mxCell id="20" value="" style="ellipse;shape=doubleEllipse;whiteSpace=wrap;html=1;fillColor=none;strokeWidth=2;rotation=-30;" parent="1" vertex="1">
                    <mxGeometry x="567.36" y="338.87" width="600.16" height="1050.72" as="geometry"/>
                </mxCell>
                <mxCell id="22" value="X-Community-Readyness&lt;br style=&quot;font-size: 15px;&quot;&gt;Step 2" style="text;html=1;strokeColor=default;fillColor=none;align=center;verticalAlign=middle;whiteSpace=wrap;rounded=0;strokeWidth=2;fontSize=15;" vertex="1" parent="1">
                    <mxGeometry x="2170" y="110" width="120" height="60" as="geometry"/>
                </mxCell>
                <mxCell id="23" value="" style="ellipse;shape=doubleEllipse;whiteSpace=wrap;html=1;fillColor=none;strokeWidth=2;rotation=0;" vertex="1" parent="1">
                    <mxGeometry x="1350" y="270" width="1300" height="1000" as="geometry"/>
                </mxCell>
                <mxCell id="25" style="edgeStyle=none;html=1;entryX=0.724;entryY=0.06;entryDx=0;entryDy=0;endArrow=none;endFill=0;strokeWidth=3;dashed=1;dashPattern=1 2;exitX=0.5;exitY=1;exitDx=0;exitDy=0;entryPerimeter=0;" edge="1" parent="1" source="22" target="23">
                    <mxGeometry relative="1" as="geometry">
                        <mxPoint x="1794.4253475136647" y="50" as="sourcePoint"/>
                        <mxPoint x="1731.5704155516223" y="83.92999999999893" as="targetPoint"/>
                    </mxGeometry>
                </mxCell>
            </root>
        </mxGraphModel>
    </diagram>
</mxfile>